<?xml version="1.0" encoding="UTF-8"?>
<!DOCTYPE svg PUBLIC "-//W3C//DTD SVG 1.1//EN" "http://www.w3.org/Graphics/SVG/1.1/DTD/svg11.dtd">
<svg xmlns="http://www.w3.org/2000/svg" version="1.1" width="128px" height="128px" style="shape-rendering:geometricPrecision; text-rendering:geometricPrecision; image-rendering:optimizeQuality; fill-rule:evenodd; clip-rule:evenodd" xmlns:xlink="http://www.w3.org/1999/xlink">
<g><path style="opacity:0.935" fill="#f9861a" d="M 62.5,15.5 C 65.5184,15.3354 68.5184,15.502 71.5,16C 85.7583,27.3802 99.925,38.8802 114,50.5C 123.618,65.2943 123.952,80.2943 115,95.5C 99.1165,112.476 80.6165,115.976 59.5,106C 48.0809,98.6834 41.5809,88.1834 40,74.5C 32.4391,81.0283 24.6058,87.1949 16.5,93C 7.74641,96.389 4.24641,93.5557 6,84.5C 20.4487,71.5144 35.6154,59.3478 51.5,48C 42.5,47.6667 33.5,47.3333 24.5,47C 20.1048,41.4353 21.4382,37.7686 28.5,36C 44.5,35.6667 60.5,35.3333 76.5,35C 71.044,31.2127 65.8774,27.046 61,22.5C 60.1668,19.829 60.6668,17.4957 62.5,15.5 Z"/></g>
<g><path style="opacity:1" fill="#f0efee" d="M 74.5,47.5 C 90.5314,45.2567 101.365,51.59 107,66.5C 107.483,81.0287 100.65,90.1953 86.5,94C 72.1604,95.6441 62.3271,89.8107 57,76.5C 55.1764,62.1386 61.0097,52.4719 74.5,47.5 Z"/></g>
<g><path style="opacity:1" fill="#1a69ae" d="M 78.5,55.5 C 90.414,55.2557 96.5807,60.9223 97,72.5C 92.4207,83.6935 84.5874,86.8601 73.5,82C 66.2885,76.8788 64.7885,70.3788 69,62.5C 71.529,59.1151 74.6956,56.7818 78.5,55.5 Z"/></g>
</svg>
