<?xml version="1.0" encoding="UTF-8"?>
<!DOCTYPE svg PUBLIC "-//W3C//DTD SVG 1.1//EN" "http://www.w3.org/Graphics/SVG/1.1/DTD/svg11.dtd">
<svg xmlns="http://www.w3.org/2000/svg" version="1.1" width="256px" height="256px" style="shape-rendering:geometricPrecision; text-rendering:geometricPrecision; image-rendering:optimizeQuality; fill-rule:evenodd; clip-rule:evenodd" xmlns:xlink="http://www.w3.org/1999/xlink">
<g><path style="opacity:0.651" fill="#4b267b" d="M 115.5,13.5 C 170.147,10.7216 209.313,33.7216 233,82.5C 250.586,131.521 241.42,174.688 205.5,212C 168.651,242.404 127.651,249.404 82.5,233C 33.5708,209.338 10.7375,170.172 14,115.5C 23.3453,56.9882 57.1787,22.9882 115.5,13.5 Z"/></g>
<g><path style="opacity:1" fill="#f4f3f3" d="M 118.5,15.5 C 170.843,14.7364 208.343,37.7364 231,84.5C 246.757,128.296 239.757,167.962 210,203.5C 173.977,238.628 132.144,247.794 84.5,231C 34.3547,206.561 11.8547,166.394 17,110.5C 28.817,55.1796 62.6503,23.5129 118.5,15.5 Z"/></g>
<g><path style="opacity:1" fill="#4b267b" d="M 114.5,23.5 C 165.47,20.5536 201.97,41.8869 224,87.5C 239.915,132.942 230.748,172.442 196.5,206C 163.649,232.42 127.315,238.42 87.5,224C 41.7356,201.994 20.569,165.494 24,114.5C 33.6795,63.6541 63.8462,33.3207 114.5,23.5 Z"/></g>
<g><path style="opacity:1" fill="#fcfbfb" d="M 117.5,27.5 C 170.769,26.198 206.269,50.5314 224,100.5C 234.271,149.726 218.438,187.893 176.5,215C 135.562,234.91 97.2283,230.91 61.5,203C 31.7642,174.782 21.5976,140.616 31,100.5C 42.1667,65.3333 65.3333,42.1667 100.5,31C 106.301,29.8161 111.968,28.6494 117.5,27.5 Z"/></g>
<g><path style="opacity:1" fill="#4b267b" d="M 92.5,48.5 C 106.068,48.6322 118.735,52.1322 130.5,59C 146.625,68.1434 161.792,78.6434 176,90.5C 183.155,85.7528 190.989,83.9195 199.5,85C 201.624,86.1217 203.457,87.6217 205,89.5C 206.476,94.0759 206.81,98.7426 206,103.5C 202.037,119.424 195.37,134.091 186,147.5C 179.719,156.782 173.052,165.782 166,174.5C 167.973,180.952 169.473,187.619 170.5,194.5C 170.854,198.958 169.188,202.458 165.5,205C 160.924,206.476 156.257,206.81 151.5,206C 143.485,204.328 135.818,201.662 128.5,198C 110.906,188.399 94.4064,177.232 79,164.5C 71.8448,169.247 64.0114,171.081 55.5,170C 53.3762,168.878 51.5429,167.378 50,165.5C 48.5236,160.924 48.1902,156.257 49,151.5C 50.6718,143.485 53.3384,135.818 57,128.5C 66.6012,110.906 77.7678,94.4064 90.5,79C 85.0679,71.1235 83.5679,62.6235 86,53.5C 87.8049,51.1743 89.9716,49.5077 92.5,48.5 Z"/></g>
<g><path style="opacity:1" fill="#fbfafa" d="M 117.5,74.5 C 125.046,74.309 132.379,75.4757 139.5,78C 150.231,82.1989 160.564,87.1989 170.5,93C 160.486,98.6779 151.32,105.511 143,113.5C 142.383,114.449 142.549,115.282 143.5,116C 149.39,113.735 155.39,111.402 161.5,109C 176.301,106.467 182.467,112.634 180,127.5C 176.486,142.863 170.486,157.196 162,170.5C 156.322,160.486 149.489,151.32 141.5,143C 140.551,142.383 139.718,142.549 139,143.5C 141.265,149.39 143.598,155.39 146,161.5C 148.522,176.311 142.355,182.478 127.5,180C 112.491,176.608 98.4912,170.774 85.5,162.5C 92.6681,156.839 100.001,151.339 107.5,146C 109,144.5 110.5,143 112,141.5C 112.617,140.551 112.451,139.718 111.5,139C 105.61,141.265 99.6101,143.598 93.5,146C 78.6886,148.522 72.522,142.355 75,127.5C 78.5142,112.137 84.5142,97.8035 93,84.5C 98.6779,94.5136 105.511,103.68 113.5,112C 114.449,112.617 115.282,112.451 116,111.5C 113.735,105.61 111.402,99.6101 109,93.5C 106.054,84.2052 108.888,77.8719 117.5,74.5 Z"/></g>
<g><path style="opacity:1" fill="#4b267b" d="M 122.5,113.5 C 139.286,113.073 144.786,120.739 139,136.5C 132.803,142.104 125.969,142.937 118.5,139C 112.896,132.803 112.063,125.969 116,118.5C 117.965,116.45 120.132,114.783 122.5,113.5 Z"/></g>
</svg>
