<?xml version="1.0" encoding="UTF-8"?>
<!DOCTYPE svg PUBLIC "-//W3C//DTD SVG 1.1//EN" "http://www.w3.org/Graphics/SVG/1.1/DTD/svg11.dtd">
<svg xmlns="http://www.w3.org/2000/svg" version="1.1" width="980px" height="980px" style="shape-rendering:geometricPrecision; text-rendering:geometricPrecision; image-rendering:optimizeQuality; fill-rule:evenodd; clip-rule:evenodd" xmlns:xlink="http://www.w3.org/1999/xlink">
<g><path style="opacity:0.988" fill="#d3b62a" d="M 158.5,113.5 C 379.167,113.5 599.833,113.5 820.5,113.5C 800.287,338.845 779.953,564.179 759.5,789.5C 669.32,814.726 579.154,840.059 489,865.5C 399.41,840.47 309.91,815.136 220.5,789.5C 199.413,564.206 178.746,338.873 158.5,113.5 Z"/></g>
<g><path style="opacity:1" fill="#e5c427" d="M 759.5,179.5 C 759.5,177.833 759.5,176.167 759.5,174.5C 669.833,174.5 580.167,174.5 490.5,174.5C 489.834,386.836 490.501,598.836 492.5,810.5C 491.791,811.404 490.791,811.737 489.5,811.5C 489.5,598.833 489.5,386.167 489.5,173.5C 579.833,173.5 670.167,173.5 760.5,173.5C 760.795,175.735 760.461,177.735 759.5,179.5 Z"/></g>
<g><path style="opacity:1" fill="#fad726" d="M 759.5,179.5 C 742.816,370.193 725.982,560.86 709,751.5C 637.01,771.375 564.844,791.042 492.5,810.5C 490.501,598.836 489.834,386.836 490.5,174.5C 580.167,174.5 669.833,174.5 759.5,174.5C 759.5,176.167 759.5,177.833 759.5,179.5 Z"/></g>
<g><path style="opacity:1" fill="#fbe15f" d="M 702.5,259.5 C 710.65,258.507 718.983,258.174 727.5,258.5C 727.813,262.042 727.479,265.375 726.5,268.5C 726.5,265.5 726.5,262.5 726.5,259.5C 718.5,259.5 710.5,259.5 702.5,259.5 Z"/></g>
<g><path style="opacity:0.906" fill="#eaeded" d="M 464.5,259.5 C 465.165,406.837 464.498,553.837 462.5,700.5C 398.776,683.653 335.11,666.653 271.5,649.5C 271.167,623.158 271.5,596.825 272.5,570.5C 281.056,573.241 289.723,575.574 298.5,577.5C 321.55,584.432 344.884,590.765 368.5,596.5C 377.141,599.818 386.141,602.151 395.5,603.5C 396.209,604.404 397.209,604.737 398.5,604.5C 398.5,576.833 398.5,549.167 398.5,521.5C 398.5,434.167 398.5,346.833 398.5,259.5C 420.5,259.5 442.5,259.5 464.5,259.5 Z"/></g>
<g><path style="opacity:0.973" fill="#dbca73" d="M 464.5,259.5 C 465.5,406.666 465.833,553.999 465.5,701.5C 464.209,701.737 463.209,701.404 462.5,700.5C 464.498,553.837 465.165,406.837 464.5,259.5 Z"/></g>
<g><path style="opacity:1" fill="#fffefe" d="M 702.5,259.5 C 710.5,259.5 718.5,259.5 726.5,259.5C 726.5,262.5 726.5,265.5 726.5,268.5C 724.668,291.481 723.002,314.481 721.5,337.5C 674.833,337.5 628.167,337.5 581.5,337.5C 581.168,376.337 581.501,415.004 582.5,453.5C 625.827,448.76 669.16,444.093 712.5,439.5C 706.54,511.142 700.707,582.808 695,654.5C 636.423,669.602 577.923,684.936 519.5,700.5C 517.838,684.025 516.838,667.358 516.5,650.5C 516.5,641.167 516.5,631.833 516.5,622.5C 559.153,611.337 601.819,600.17 644.5,589C 645.286,567.897 645.952,546.73 646.5,525.5C 604.063,531.854 561.73,538.854 519.5,546.5C 518.039,450.838 517.039,355.171 516.5,259.5C 578.5,259.5 640.5,259.5 702.5,259.5 Z"/></g>
<g><path style="opacity:1" fill="#fce36b" d="M 721.5,337.5 C 675.336,338.499 629.003,338.832 582.5,338.5C 582.5,376.833 582.5,415.167 582.5,453.5C 581.501,415.004 581.168,376.337 581.5,337.5C 628.167,337.5 674.833,337.5 721.5,337.5 Z"/></g>
<g><path style="opacity:0.992" fill="#d6be48" d="M 398.5,521.5 C 398.5,549.167 398.5,576.833 398.5,604.5C 397.209,604.737 396.209,604.404 395.5,603.5C 397.164,576.349 398.164,549.015 398.5,521.5 Z"/></g>
<g><path style="opacity:0.998" fill="#d5ba3f" d="M 298.5,577.5 C 320.569,581.475 342.402,586.808 364,593.5C 365.577,594.551 367.077,595.551 368.5,596.5C 344.884,590.765 321.55,584.432 298.5,577.5 Z"/></g>
<g><path style="opacity:1" fill="#fde887" d="M 516.5,650.5 C 516.838,667.358 517.838,684.025 519.5,700.5C 518.791,701.404 517.791,701.737 516.5,701.5C 516.5,684.5 516.5,667.5 516.5,650.5 Z"/></g>
</svg>
