<?xml version="1.0" standalone="no"?>
<!DOCTYPE svg PUBLIC "-//W3C//DTD SVG 20010904//EN"
 "http://www.w3.org/TR/2001/REC-SVG-20010904/DTD/svg10.dtd">
<svg version="1.0" xmlns="http://www.w3.org/2000/svg"
 width="267.000000pt" height="267.000000pt" viewBox="0 0 267.000000 267.000000"
 preserveAspectRatio="xMidYMid meet">

<g transform="translate(0.000000,267.000000) scale(0.100000,-0.100000)"
fill="#000000" stroke="none">
<path d="M190 2655 c6 -8 9 -18 6 -23 -6 -10 20 -68 35 -77 21 -14 28 7 12 40
-16 33 -15 36 2 55 18 20 18 20 -25 20 -36 0 -41 -2 -30 -15z"/>
<path d="M395 2660 c3 -5 12 -10 20 -10 8 0 17 5 20 10 4 6 -5 10 -20 10 -15
0 -24 -4 -20 -10z"/>
<path d="M520 2624 c-18 -25 -37 -43 -43 -41 -7 2 -29 -4 -49 -14 -39 -20 -73
-25 -64 -10 8 12 -26 71 -41 71 -8 0 -8 -7 2 -27 30 -63 29 -67 -28 -106 -29
-20 -58 -37 -63 -37 -5 0 -15 -4 -23 -9 -11 -7 -8 -17 17 -47 16 -22 36 -56
43 -76 7 -21 17 -38 21 -38 14 0 9 38 -10 72 -21 39 -36 75 -26 65 4 -3 24 7
44 23 21 17 42 30 48 30 5 0 16 7 23 16 13 16 54 36 76 38 6 1 28 16 48 34 20
17 39 32 42 32 7 0 28 27 44 53 8 14 6 17 -10 17 -13 0 -32 -17 -51 -46z"/>
<path d="M786 2655 c4 -8 10 -12 16 -9 5 3 22 10 36 14 24 7 22 8 -15 9 -34 1
-41 -2 -37 -14z"/>
<path d="M1360 2663 c14 -2 32 -7 40 -10 8 -3 21 -5 29 -4 8 1 17 -2 21 -8 3
-6 27 -12 53 -13 26 -1 47 -6 47 -9 0 -11 68 -31 80 -24 5 3 10 2 10 -4 0 -5
17 -15 37 -22 55 -18 198 -106 283 -174 53 -43 133 -130 168 -184 20 -31 40
-58 43 -61 34 -30 149 -302 149 -354 0 -12 4 -26 9 -31 5 -6 11 -25 13 -43 l3
-34 -105 -3 c-58 -1 -112 -5 -120 -8 -8 -3 -38 -8 -66 -11 -52 -5 -104 -23
-104 -37 0 -4 9 -5 20 -2 11 3 20 0 20 -6 0 -13 5 -13 -105 -16 -49 -2 -103
-6 -120 -9 -27 -5 -162 -15 -257 -19 -27 -1 -42 5 -51 18 -9 11 -19 15 -27 10
-7 -4 -15 -3 -19 4 -5 8 -28 7 -87 -4 -43 -8 -113 -17 -154 -19 -42 -2 -113
-12 -159 -20 -46 -9 -87 -14 -92 -11 -5 3 -17 2 -26 -3 -10 -6 -48 -12 -85
-14 -37 -3 -74 -11 -83 -18 -14 -11 -18 -11 -25 -1 -4 8 -13 10 -19 6 -13 -8
-36 -11 -131 -21 -36 -3 -68 -8 -73 -11 -14 -9 5 -25 25 -20 14 4 18 1 14 -8
-3 -9 24 -37 75 -77 165 -129 152 -128 -26 1 l-110 80 -20 -27 c-29 -39 -68
-79 -59 -62 4 8 18 32 31 53 13 21 21 41 19 46 -7 11 -124 -12 -162 -32 -17
-9 -34 -14 -37 -11 -3 3 -13 1 -24 -4 -10 -5 -31 -15 -47 -23 -15 -8 -38 -32
-51 -54 -18 -33 -29 -41 -63 -48 l-42 -8 0 -100 c0 -107 1 -108 53 -85 32 14
202 56 244 61 13 1 29 8 38 15 12 10 20 7 45 -18 16 -17 30 -35 30 -40 0 -5 7
-12 15 -16 8 -3 15 -14 15 -23 0 -23 48 -136 78 -183 12 -19 22 -43 22 -52 0
-10 6 -18 14 -18 8 0 16 -6 19 -14 3 -8 25 -17 49 -21 74 -10 212 -12 243 -3
17 5 93 11 170 14 77 3 144 10 150 15 5 5 18 9 30 9 11 0 26 9 33 20 6 11 20
19 30 18 45 -5 112 25 147 66 20 22 42 48 49 56 8 8 30 47 50 86 31 59 45 74
81 92 23 11 60 24 81 28 22 4 53 14 69 22 17 9 35 15 40 13 6 -2 41 -5 78 -6
66 -4 97 -16 97 -38 0 -5 9 -28 19 -51 11 -23 29 -62 40 -89 30 -67 57 -91
100 -89 248 13 416 24 428 27 7 3 13 0 13 -5 0 -6 5 -10 10 -10 6 0 10 7 10
15 0 8 5 15 10 15 6 0 10 6 10 14 0 9 12 16 28 18 l27 3 3 288 c1 158 0 287
-4 287 -3 0 -39 -10 -80 -22 -123 -35 -111 -2 18 48 57 23 68 31 66 48 -3 22
-33 29 -55 13 -7 -5 -18 -5 -25 -1 -17 11 -30 11 -116 -2 -83 -12 -86 -10 -98
65 -4 23 -11 44 -15 47 -5 3 -9 16 -9 28 0 26 -19 74 -90 221 -50 103 -144
222 -245 310 -26 22 -55 48 -66 58 -10 9 -22 17 -25 17 -8 0 -37 30 -33 34 8
7 48 26 54 26 3 0 3 -4 0 -10 -3 -5 -1 -10 4 -10 6 0 11 7 11 16 0 9 6 14 13
11 14 -5 71 22 63 30 -3 3 -42 -6 -87 -22 l-81 -27 -46 23 c-26 13 -54 32 -64
41 -10 10 -29 20 -43 24 -14 3 -25 10 -25 14 0 4 -12 11 -27 15 -16 3 -41 12
-58 20 -60 25 -114 35 -191 34 -44 -1 -68 -4 -54 -6z"/>
<path d="M2468 2658 c-3 -7 6 -34 19 -61 14 -27 22 -56 19 -64 -4 -8 3 -17 16
-22 14 -5 18 -10 10 -15 -7 -4 -9 -12 -5 -19 3 -6 7 -63 8 -126 l0 -116 34 0
c33 0 33 0 37 55 7 82 -2 119 -26 113 -11 -3 -20 0 -20 6 0 6 9 11 19 11 17 0
19 5 14 38 -3 20 -11 51 -18 67 -7 17 -16 43 -19 58 -5 23 -11 27 -27 22 -18
-6 -19 -5 -8 13 10 16 10 23 -4 36 -18 19 -44 21 -49 4z"/>
<path d="M82 2615 c-14 -31 -15 -35 -4 -35 8 0 32 43 32 55 0 15 -19 1 -28
-20z"/>
<path d="M150 2507 c0 -19 21 -37 43 -37 18 0 17 3 -7 25 -31 28 -36 30 -36
12z"/>
<path d="M2161 2494 c-7 -8 -10 -18 -7 -21 3 -4 6 -3 6 2 0 4 9 0 20 -10 11
-10 23 -15 28 -10 4 4 1 10 -5 12 -7 3 -13 13 -13 24 0 23 -10 24 -29 3z"/>
<path d="M2214 2442 c-15 -24 -7 -41 16 -35 23 6 26 26 7 41 -9 8 -16 7 -23
-6z"/>
<path d="M2221 2363 c-6 -21 -11 -51 -11 -66 0 -15 -7 -30 -15 -33 -22 -9 -19
-18 16 -38 35 -21 55 -11 23 11 -20 12 -21 18 -10 46 6 18 16 35 23 39 6 5 11
24 11 43 0 47 -24 46 -37 -2z"/>
<path d="M2534 2188 c-3 -5 -4 -12 -1 -15 10 -9 62 -8 65 2 4 13 -57 25 -64
13z"/>
<path d="M2490 2092 c0 -11 8 -22 18 -25 9 -2 25 -8 35 -12 11 -5 17 -3 17 7
0 13 -12 21 -62 46 -5 2 -8 -5 -8 -16z"/>
<path d="M13 2063 c-7 -2 -12 -17 -12 -31 1 -15 3 -20 6 -11 2 10 13 19 24 22
10 3 19 10 19 16 0 11 -16 13 -37 4z"/>
<path d="M2014 2005 c-14 -21 -14 -29 -3 -54 17 -38 82 -68 135 -62 6 0 16 13
23 27 11 24 9 30 -15 55 -29 30 -82 59 -108 59 -8 0 -23 -11 -32 -25z"/>
<path d="M2402 1962 c-27 -37 -48 -69 -47 -71 8 -8 52 9 76 29 95 81 99 91 48
104 -23 5 -32 -2 -77 -62z"/>
<path d="M903 1968 c-82 -45 -93 -61 -73 -113 8 -22 13 -25 24 -16 10 9 16 9
21 1 4 -7 28 1 67 22 45 24 64 42 75 67 17 39 10 50 -38 57 -24 4 -46 -2 -76
-18z"/>
<path d="M0 1871 c0 -25 11 -33 27 -20 18 16 16 26 -7 32 -14 4 -20 0 -20 -12z"/>
<path d="M1777 985 c-13 -5 -31 -18 -41 -27 -14 -14 -15 -21 -4 -37 7 -12 26
-26 43 -32 l30 -11 -55 -20 c-30 -11 -68 -21 -84 -21 -16 -1 -31 -8 -34 -16
-8 -23 134 -5 159 20 14 14 24 17 33 10 6 -5 33 -15 60 -21 55 -12 128 3 119
25 -5 14 -14 14 -57 -4 -20 -8 -32 -9 -40 -1 -5 5 -25 10 -43 10 -18 0 -33 5
-33 10 0 6 5 10 10 10 19 0 60 52 60 76 0 40 -61 55 -123 29z"/>
<path d="M2585 949 c12 -39 27 -48 23 -15 -2 16 -9 31 -17 34 -10 3 -11 -2 -6
-19z"/>
<path d="M2606 884 c-3 -9 -6 -26 -6 -38 0 -12 -5 -27 -12 -34 -6 -6 -8 -15
-4 -19 13 -14 36 30 36 69 0 41 -4 47 -14 22z"/>
<path d="M2020 880 c-8 -5 -11 -12 -7 -16 4 -4 13 -2 19 4 15 15 7 24 -12 12z"/>
<path d="M1588 853 c-28 -7 -22 -33 7 -33 15 0 25 6 25 14 0 18 -10 24 -32 19z"/>
<path d="M2562 744 c-12 -18 -22 -38 -22 -44 0 -5 -7 -10 -15 -10 -9 0 -20
-10 -25 -22 -5 -13 -9 -19 -9 -14 -1 5 -7 4 -13 -1 -7 -6 -34 -22 -60 -36
l-47 -26 -48 25 c-55 28 -73 30 -73 9 0 -9 9 -15 23 -15 12 0 30 -8 39 -17 23
-24 46 -43 53 -43 10 0 35 -28 35 -38 0 -6 6 -12 13 -15 9 -3 9 -7 -2 -20 -10
-13 -11 -20 -2 -31 7 -8 14 -39 16 -68 2 -29 6 -64 9 -78 6 -21 7 -71 5 -182
0 -23 -2 -23 -52 5 -46 26 -115 46 -164 49 -18 1 -33 5 -33 9 0 3 -27 7 -61 8
-34 1 -64 3 -68 6 -4 2 -6 18 -3 35 7 46 -12 36 -37 -21 -23 -53 -22 -71 2
-50 16 13 48 10 69 -6 7 -6 45 -20 83 -33 39 -12 100 -33 138 -48 63 -24 66
-26 51 -43 -9 -10 -26 -20 -38 -22 -11 -2 -2 -5 21 -6 47 -1 87 13 121 43 14
13 22 15 22 7 0 -7 6 -11 14 -8 7 3 25 -6 39 -19 27 -25 47 -31 47 -14 0 5 7
7 15 4 8 -4 15 -1 15 6 0 6 5 8 10 5 6 -4 18 -1 26 6 12 10 12 14 2 20 -10 7
-10 9 0 9 8 0 12 18 12 56 l0 55 -29 -20 c-38 -27 -45 -26 -60 5 -11 25 -9 30
39 74 46 43 50 50 50 93 0 41 -3 49 -24 56 -13 5 -26 17 -29 25 -4 9 -13 16
-20 16 -8 0 -19 11 -25 25 -6 14 -20 25 -29 25 -15 0 -16 2 -3 10 13 9 13 12
0 23 -16 13 -25 62 -10 52 13 -8 28 24 23 46 -8 28 -23 23 -23 -6 0 -28 -12
-32 -30 -10 -7 9 -19 14 -27 11 -23 -9 -14 13 12 30 13 9 42 39 62 67 52 71
54 75 45 80 -4 3 -17 -10 -30 -29z"/>
<path d="M2596 686 c-17 -14 -24 -26 -17 -30 14 -9 61 22 61 40 0 19 -10 17
-44 -10z"/>
<path d="M2147 617 c-60 -25 -88 -44 -126 -85 -27 -29 -51 -65 -54 -80 l-5
-27 21 30 c64 88 143 145 222 159 21 4 35 13 35 21 0 19 -1 19 -93 -18z"/>
<path d="M2560 624 c0 -8 5 -12 10 -9 6 3 10 10 10 16 0 5 -4 9 -10 9 -5 0
-10 -7 -10 -16z"/>
<path d="M2110 493 c-14 -7 -18 -13 -10 -13 17 0 47 17 40 23 -3 2 -16 -2 -30
-10z"/>
<path d="M2214 502 c4 -7 18 -12 31 -12 12 0 25 -7 29 -15 3 -8 12 -15 20 -15
9 0 20 -9 26 -20 6 -11 20 -20 31 -20 27 0 17 13 -36 50 -46 32 -114 53 -101
32z"/>
<path d="M2130 456 c-5 -5 -10 -15 -10 -22 0 -7 -5 -14 -10 -16 -6 -2 -12 -13
-13 -26 0 -12 -7 -22 -13 -22 -7 0 -14 -7 -18 -15 -9 -24 10 -18 49 16 19 17
35 40 35 50 0 10 5 19 10 19 6 0 10 6 10 13 0 16 -25 18 -40 3z"/>
<path d="M1419 456 c-2 -2 -45 -6 -96 -10 -101 -7 -187 -21 -218 -35 -11 -5
-41 -17 -67 -28 -27 -10 -48 -21 -48 -25 0 -5 -7 -8 -15 -8 -8 0 -15 -4 -15
-10 0 -5 -7 -10 -15 -10 -17 0 -51 -47 -41 -58 4 -3 10 -2 14 4 7 12 149 74
167 74 6 0 27 9 48 20 20 11 54 20 74 20 21 0 56 5 78 10 27 6 42 5 46 -2 4
-6 12 -7 20 -2 7 4 40 7 73 6 33 -1 65 3 73 9 10 9 13 8 13 -5 0 -12 7 -17 23
-14 12 1 32 -6 44 -17 52 -48 63 -54 63 -33 0 18 -81 90 -96 84 -7 -3 -14 0
-16 6 -2 6 -20 12 -40 12 -21 1 -40 5 -44 9 -8 8 -18 9 -25 3z"/>
<path d="M0 425 c0 -9 8 -18 18 -21 9 -4 31 -12 47 -19 17 -7 51 -18 78 -25
26 -7 47 -16 47 -20 0 -7 191 -29 275 -31 122 -2 186 1 180 11 -3 6 -16 10
-29 10 -12 0 -26 4 -32 9 -24 22 -90 33 -218 37 -77 2 -155 8 -174 14 -20 5
-39 7 -43 4 -5 -2 -16 0 -26 5 -17 10 -108 41 -118 41 -3 0 -5 -7 -5 -15z
m405 -85 c4 -7 -3 -8 -22 -4 -38 9 -42 14 -10 14 14 0 29 -5 32 -10z"/>
<path d="M1829 408 c-73 -18 -96 -28 -65 -28 10 0 14 -5 11 -11 -4 -5 -17 -9
-28 -7 -12 1 -42 -10 -66 -24 -33 -20 -49 -24 -62 -17 -26 13 -52 11 -43 -3 6
-10 4 -10 -7 0 -20 18 -84 15 -123 -7 -19 -11 -37 -17 -40 -13 -4 3 -13 -4
-22 -16 -8 -12 -23 -22 -33 -22 -22 0 -41 -19 -41 -42 0 -10 -6 -18 -12 -18
-17 -1 -56 -79 -64 -129 l-6 -40 -42 16 c-22 9 -48 22 -56 28 -8 7 -32 18 -52
25 -21 6 -38 15 -38 20 0 4 -11 10 -25 12 -32 7 -33 -14 -2 -35 12 -8 19 -18
16 -21 -4 -4 -39 -10 -78 -13 l-70 -6 9 34 c6 19 10 35 10 37 0 6 -67 -33 -93
-54 -16 -13 -38 -24 -49 -24 -11 0 -36 -10 -55 -21 -19 -12 -37 -18 -41 -14
-4 3 1 11 11 16 18 11 24 39 7 39 -5 0 -16 -12 -24 -27 -12 -22 -15 -24 -14
-8 1 11 0 30 0 43 l-2 23 -26 -20 c-29 -23 -67 -30 -46 -9 7 7 12 17 12 22 0
6 -8 1 -18 -12 -10 -13 -33 -25 -55 -29 -44 -7 -48 7 -11 36 l25 20 -37 10
c-41 11 -76 6 -112 -17 -29 -19 -28 -8 5 36 16 20 23 33 16 29 -6 -4 -14 -3
-17 2 -4 5 -32 -1 -66 -14 -59 -23 -65 -22 -61 14 2 8 -2 10 -10 5 -8 -4 -10
-3 -5 5 15 23 17 63 4 58 -7 -2 -12 -10 -10 -17 2 -7 -2 -16 -8 -20 -6 -4 -13
-31 -15 -61 -2 -30 -6 -73 -9 -96 l-6 -43 456 0 c381 0 460 2 483 15 26 13 30
13 41 0 8 -9 30 -15 57 -15 40 0 44 2 38 20 -8 26 11 26 25 0 12 -23 32 -27
24 -5 -7 16 -8 16 94 19 35 1 66 -2 68 -6 3 -4 29 -7 58 -7 29 1 62 -4 74 -10
11 -6 45 -10 74 -10 29 1 41 4 26 6 -16 2 -28 10 -28 16 -1 13 -62 47 -85 47
-7 0 -15 5 -17 11 -5 16 -121 41 -210 46 -43 3 -78 9 -78 14 0 16 91 109 106
109 8 0 14 5 14 11 0 7 10 9 25 5 18 -5 25 -2 25 9 0 8 7 15 16 15 8 0 12 -4
9 -10 -3 -6 1 -10 9 -10 19 0 21 26 4 34 -7 2 -2 4 12 3 14 -1 30 -9 37 -17 9
-10 12 -11 13 -2 0 6 8 12 19 12 27 0 82 -21 76 -29 -2 -5 4 -24 14 -44 10
-20 16 -39 13 -42 -10 -10 -77 -4 -116 10 -22 8 -43 12 -48 9 -4 -3 -8 -1 -8
4 0 5 -15 15 -32 23 -18 7 -36 17 -39 22 -7 10 -29 1 -29 -12 0 -13 120 -70
136 -64 8 3 14 1 14 -3 0 -5 33 -9 73 -9 69 1 129 -14 142 -34 3 -6 13 -7 21
-4 9 3 20 0 25 -8 5 -9 24 -13 54 -12 43 1 45 0 45 -27 0 -16 -4 -40 -10 -54
-9 -24 -7 -26 19 -26 28 0 28 1 21 42 -5 25 -4 50 2 61 13 25 -12 43 -70 52
-24 4 -62 13 -84 21 -46 16 -118 70 -118 88 0 40 149 124 232 130 49 4 50 5
46 18 -6 17 -48 16 -129 -4z"/>
<path d="M1970 399 c0 -11 27 -12 34 -1 2 4 -4 9 -15 9 -10 1 -19 -2 -19 -8z"/>
<path d="M2370 396 c0 -9 5 -16 10 -16 6 0 10 4 10 9 0 6 -4 13 -10 16 -5 3
-10 -1 -10 -9z"/>
<path d="M2027 360 c3 -11 9 -20 15 -20 5 0 4 9 -2 20 -6 11 -12 20 -14 20 -2
0 -2 -9 1 -20z"/>
<path d="M726 344 c-7 -18 28 -59 43 -49 16 10 13 30 -7 48 -23 21 -28 21 -36
1z"/>
<path d="M2037 323 c-15 -14 -7 -43 12 -43 14 0 17 6 13 25 -4 25 -13 31 -25
18z"/>
<path d="M132 295 c-37 -37 -26 -60 31 -61 26 -1 47 3 47 7 0 5 -18 9 -40 9
-22 0 -40 5 -40 10 0 6 7 10 15 10 9 0 15 9 15 25 0 29 1 29 -28 0z"/>
<path d="M830 301 c0 -12 5 -21 10 -21 6 0 10 6 10 14 0 8 -4 18 -10 21 -5 3
-10 -3 -10 -14z"/>
<path d="M860 244 c0 -4 23 -31 52 -60 44 -46 54 -51 62 -37 6 12 4 20 -9 29
-10 7 -22 11 -26 8 -5 -3 -9 2 -9 10 0 9 -6 16 -13 16 -7 0 -18 9 -25 20 -11
19 -32 28 -32 14z"/>
<path d="M2040 109 c0 -5 5 -7 10 -4 6 3 10 8 10 11 0 2 -4 4 -10 4 -5 0 -10
-5 -10 -11z"/>
<path d="M2064 98 c-7 -11 -8 -10 26 -26 14 -7 39 -21 55 -31 37 -24 45 -25
45 -6 0 28 -113 85 -126 63z"/>
</g>
</svg>
