<?xml version="1.0" encoding="UTF-8"?>
<!DOCTYPE svg PUBLIC "-//W3C//DTD SVG 1.1//EN" "http://www.w3.org/Graphics/SVG/1.1/DTD/svg11.dtd">
<svg xmlns="http://www.w3.org/2000/svg" version="1.1" width="256px" height="256px" style="shape-rendering:geometricPrecision; text-rendering:geometricPrecision; image-rendering:optimizeQuality; fill-rule:evenodd; clip-rule:evenodd" xmlns:xlink="http://www.w3.org/1999/xlink">
<g><path style="opacity:0.006" fill="#000000" d="M 126.5,-0.5 C 130.833,-0.5 135.167,-0.5 139.5,-0.5C 135.167,0.833333 130.833,0.833333 126.5,-0.5 Z"/></g>
<g><path style="opacity:0.008" fill="#000000" d="M 156.5,-0.5 C 157.833,-0.5 159.167,-0.5 160.5,-0.5C 160.5,-0.166667 160.5,0.166667 160.5,0.5C 158.901,0.767809 157.568,0.434475 156.5,-0.5 Z"/></g>
<g><path style="opacity:0.843" fill="#000000" d="M 166.5,-0.5 C 176.167,-0.5 185.833,-0.5 195.5,-0.5C 197.265,0.461384 199.265,0.794717 201.5,0.5C 203.515,1.92381 205.848,2.59047 208.5,2.5C 209.93,3.53747 211.597,4.20414 213.5,4.5C 216.515,6.6744 219.849,8.34107 223.5,9.5C 224.29,10.4013 225.29,11.0679 226.5,11.5C 227.436,12.9744 228.77,13.9744 230.5,14.5C 236.205,19.204 241.205,24.5374 245.5,30.5C 245.992,32.8185 246.992,34.8185 248.5,36.5C 249.911,49.5403 249.578,62.5403 247.5,75.5C 245.898,79.2393 244.898,83.2393 244.5,87.5C 243.566,88.5676 243.232,89.901 243.5,91.5C 242.596,92.209 242.263,93.209 242.5,94.5C 241.596,95.209 241.263,96.209 241.5,97.5C 240.596,98.209 240.263,99.209 240.5,100.5C 239.596,101.209 239.263,102.209 239.5,103.5C 238.596,104.209 238.263,105.209 238.5,106.5C 237.069,107.78 236.402,109.447 236.5,111.5C 235.069,112.78 234.402,114.447 234.5,116.5C 233.662,116.842 233.328,117.508 233.5,118.5C 232.596,119.209 232.263,120.209 232.5,121.5C 231.662,121.842 231.328,122.508 231.5,123.5C 230.662,123.842 230.328,124.508 230.5,125.5C 229.662,125.842 229.328,126.508 229.5,127.5C 228.662,127.842 228.328,128.508 228.5,129.5C 227.662,129.842 227.328,130.508 227.5,131.5C 226.662,131.842 226.328,132.508 226.5,133.5C 225.662,133.842 225.328,134.508 225.5,135.5C 224.662,135.842 224.328,136.508 224.5,137.5C 223.662,137.842 223.328,138.508 223.5,139.5C 222.662,139.842 222.328,140.508 222.5,141.5C 221.662,141.842 221.328,142.508 221.5,143.5C 220.711,143.783 220.044,144.283 219.5,145C 225.379,145.294 231.212,144.794 237,143.5C 239.216,143.653 241.383,143.986 243.5,144.5C 244.436,145.974 245.77,146.974 247.5,147.5C 248.11,149.434 249.11,151.101 250.5,152.5C 250.5,155.5 250.5,158.5 250.5,161.5C 249.662,161.842 249.328,162.508 249.5,163.5C 248.662,163.842 248.328,164.508 248.5,165.5C 246.457,166.579 245.124,168.246 244.5,170.5C 243.833,170.5 243.5,170.833 243.5,171.5C 241.973,171.427 240.973,172.094 240.5,173.5C 239.833,173.5 239.5,173.833 239.5,174.5C 238.508,174.328 237.842,174.662 237.5,175.5C 236.833,175.5 236.5,175.833 236.5,176.5C 235.508,176.328 234.842,176.662 234.5,177.5C 233.508,177.328 232.842,177.662 232.5,178.5C 231.508,178.328 230.842,178.662 230.5,179.5C 229.508,179.328 228.842,179.662 228.5,180.5C 227.209,180.263 226.209,180.596 225.5,181.5C 224.209,181.263 223.209,181.596 222.5,182.5C 220.901,182.232 219.568,182.566 218.5,183.5C 212.185,184.11 205.851,184.443 199.5,184.5C 199.307,197.297 197.973,209.963 195.5,222.5C 194.262,224.214 193.595,226.214 193.5,228.5C 192.069,229.78 191.402,231.447 191.5,233.5C 190.094,233.973 189.427,234.973 189.5,236.5C 188.662,236.842 188.328,237.508 188.5,238.5C 187.833,238.5 187.5,238.833 187.5,239.5C 185.167,242.5 182.5,245.167 179.5,247.5C 178.833,247.5 178.5,247.833 178.5,248.5C 177.508,248.328 176.842,248.662 176.5,249.5C 175.508,249.328 174.842,249.662 174.5,250.5C 173.508,250.328 172.842,250.662 172.5,251.5C 171.508,251.328 170.842,251.662 170.5,252.5C 168.214,252.595 166.214,253.262 164.5,254.5C 162.901,254.232 161.568,254.566 160.5,255.5C 154.5,255.5 148.5,255.5 142.5,255.5C 141.791,254.596 140.791,254.263 139.5,254.5C 129.553,248.95 123.219,240.617 120.5,229.5C 120.198,226.627 119.531,223.961 118.5,221.5C 118.118,211.484 117.452,201.484 116.5,191.5C 115.893,191.624 115.56,191.957 115.5,192.5C 114.209,192.263 113.209,192.596 112.5,193.5C 104.504,194.783 96.5037,194.783 88.5,193.5C 85.6865,191.93 82.6865,190.597 79.5,189.5C 77.8767,188.221 76.21,186.887 74.5,185.5C 73.4777,185.855 72.811,186.522 72.5,187.5C 71.5084,187.328 70.8417,187.662 70.5,188.5C 68.847,188.66 67.5137,189.326 66.5,190.5C 62.2048,191.538 57.8715,191.538 53.5,190.5C 45.6001,186.601 39.2668,180.934 34.5,173.5C 34.573,171.973 33.9063,170.973 32.5,170.5C 30.0698,164.643 27.4032,158.977 24.5,153.5C 24.5979,151.447 23.9313,149.78 22.5,148.5C 22.7373,147.209 22.404,146.209 21.5,145.5C 20.4054,140.216 18.7387,135.216 16.5,130.5C 16.7373,129.209 16.404,128.209 15.5,127.5C 15.7678,125.901 15.4345,124.568 14.5,123.5C 14.5905,120.848 13.9238,118.515 12.5,116.5C 12.7678,114.901 12.4345,113.568 11.5,112.5C 11.7678,110.901 11.4345,109.568 10.5,108.5C 10.5797,105.219 9.91301,102.219 8.5,99.5C 8.11791,94.2558 7.11791,89.2558 5.5,84.5C 4.19214,71.4978 4.19214,58.4978 5.5,45.5C 6.43448,44.4324 6.76781,43.099 6.5,41.5C 7.73838,39.7857 8.40505,37.7857 8.5,35.5C 13.6002,24.2904 21.2669,15.2904 31.5,8.5C 32.4916,8.67158 33.1583,8.33825 33.5,7.5C 35.5529,7.59794 37.2196,6.93127 38.5,5.5C 39.791,5.73731 40.791,5.40397 41.5,4.5C 43.099,4.76781 44.4324,4.43448 45.5,3.5C 47.4147,3.78448 49.0813,3.45115 50.5,2.5C 58.5,2.5 66.5,2.5 74.5,2.5C 79.6173,3.9887 84.9506,4.9887 90.5,5.5C 92.5145,6.92381 94.8478,7.59047 97.5,7.5C 98.6412,8.33903 99.9745,9.00569 101.5,9.5C 117.234,1.40623 133.734,-0.593774 151,3.5C 151.765,3.43007 152.265,3.09674 152.5,2.5C 155.428,2.43487 158.095,1.7682 160.5,0.5C 162.735,0.794717 164.735,0.461384 166.5,-0.5 Z M 199.5,9.5 C 201.099,9.23219 202.432,9.56552 203.5,10.5C 204.791,10.2627 205.791,10.596 206.5,11.5C 207.791,11.2627 208.791,11.596 209.5,12.5C 208.761,12.369 208.094,12.5357 207.5,13C 208.946,14.298 210.279,14.4646 211.5,13.5C 214.089,13.461 216.089,14.461 217.5,16.5C 216.262,16.81 216.262,17.31 217.5,18C 224.602,21.939 230.602,27.1057 235.5,33.5C 235.5,34.1667 235.833,34.5 236.5,34.5C 236.833,37.1667 237.167,37.1667 237.5,34.5C 239.074,36.1016 239.741,38.1016 239.5,40.5C 240.196,44.2315 240.862,48.0648 241.5,52C 240.856,58.3152 239.856,64.4819 238.5,70.5C 238.784,72.4147 238.451,74.0813 237.5,75.5C 237.768,77.099 237.434,78.4324 236.5,79.5C 236.768,81.099 236.434,82.4324 235.5,83.5C 235.768,85.099 235.434,86.4324 234.5,87.5C 234.737,88.791 234.404,89.791 233.5,90.5C 233.139,94.9155 231.806,98.9155 229.5,102.5C 229.737,103.791 229.404,104.791 228.5,105.5C 228.598,107.553 227.931,109.22 226.5,110.5C 226.598,112.553 225.931,114.22 224.5,115.5C 224.631,114.761 224.464,114.094 224,113.5C 223.167,115.167 222.333,116.833 221.5,118.5C 221.624,119.107 221.957,119.44 222.5,119.5C 222.737,120.791 222.404,121.791 221.5,122.5C 221.631,121.761 221.464,121.094 221,120.5C 218.833,124.833 216.667,129.167 214.5,133.5C 214.624,134.107 214.957,134.44 215.5,134.5C 215.573,136.027 214.906,137.027 213.5,137.5C 213.19,136.262 212.69,136.262 212,137.5C 210.702,138.946 210.535,140.279 211.5,141.5C 211.573,143.027 210.906,144.027 209.5,144.5C 209.19,143.262 208.69,143.262 208,144.5C 207.308,145.437 207.475,146.103 208.5,146.5C 208.573,148.027 207.906,149.027 206.5,149.5C 206.527,151.199 207.194,152.533 208.5,153.5C 217.749,154.534 226.916,153.867 236,151.5C 237.07,151.528 237.903,151.861 238.5,152.5C 239.492,152.328 240.158,152.662 240.5,153.5C 241.338,153.842 241.672,154.508 241.5,155.5C 240.167,156.167 240.167,156.833 241.5,157.5C 241.737,158.791 241.404,159.791 240.5,160.5C 240.631,159.761 240.464,159.094 240,158.5C 234.443,165.373 227.276,169.873 218.5,172C 219.448,172.483 220.448,172.649 221.5,172.5C 218.423,173.856 215.09,174.689 211.5,175C 205.406,175.293 199.406,175.46 193.5,175.5C 192.318,184.314 190.985,192.98 189.5,201.5C 189.415,208.435 188.415,215.101 186.5,221.5C 186.768,223.099 186.434,224.432 185.5,225.5C 185.737,226.791 185.404,227.791 184.5,228.5C 184.539,231.089 183.539,233.089 181.5,234.5C 181.167,233.167 180.833,233.167 180.5,234.5C 179.833,234.5 179.5,234.833 179.5,235.5C 178.5,236.5 177.5,237.5 176.5,238.5C 175.833,238.5 175.5,238.833 175.5,239.5C 173.193,240.653 170.86,241.82 168.5,243C 169.094,243.464 169.761,243.631 170.5,243.5C 164.656,246.541 158.323,248.208 151.5,248.5C 148.562,248.432 145.895,247.766 143.5,246.5C 142.209,246.737 141.209,246.404 140.5,245.5C 141.239,245.631 141.906,245.464 142.5,245C 140.308,244.074 138.308,242.907 136.5,241.5C 136.5,240.833 136.167,240.5 135.5,240.5C 135.5,239.833 135.167,239.5 134.5,239.5C 133.994,237.895 133.327,237.561 132.5,238.5C 131.094,238.027 130.427,237.027 130.5,235.5C 131.465,234.279 131.298,232.946 130,231.5C 129.536,232.094 129.369,232.761 129.5,233.5C 128.596,232.791 128.263,231.791 128.5,230.5C 127.778,230.082 127.278,229.416 127,228.5C 126.005,223.547 125.338,218.547 125,213.5C 124.833,201.486 124.333,189.486 123.5,177.5C 122.378,178.63 121.044,179.297 119.5,179.5C 119.565,179.062 119.399,178.728 119,178.5C 115.763,180.58 112.263,182.08 108.5,183C 109.448,183.483 110.448,183.649 111.5,183.5C 108.114,184.97 104.447,185.637 100.5,185.5C 96.5527,185.637 92.886,184.97 89.5,183.5C 88.209,183.737 87.209,183.404 86.5,182.5C 85.5084,182.672 84.8417,182.338 84.5,181.5C 83.5084,181.672 82.8417,181.338 82.5,180.5C 83.4387,179.673 83.1054,179.006 81.5,178.5C 81.1658,175.812 81.8325,173.479 83.5,171.5C 86.1667,171.167 86.1667,170.833 83.5,170.5C 86.763,168.432 90.4296,167.432 94.5,167.5C 96.2143,166.262 98.2143,165.595 100.5,165.5C 100.973,164.094 101.973,163.427 103.5,163.5C 103.833,164.833 104.167,164.833 104.5,163.5C 105.167,163.5 105.5,163.167 105.5,162.5C 106.596,160.897 107.93,159.397 109.5,158C 109.272,157.601 108.938,157.435 108.5,157.5C 105.44,155.747 102.107,154.413 98.5,153.5C 96.0897,152.562 93.7564,152.562 91.5,153.5C 88.8431,154.438 86.5097,156.438 84.5,159.5C 83.8333,159.5 83.5,159.833 83.5,160.5C 81.7341,162.771 79.7341,164.937 77.5,167C 77.7284,167.399 78.0618,167.565 78.5,167.5C 78.573,169.027 77.9063,170.027 76.5,170.5C 74.8708,170.372 73.5375,171.372 72.5,173.5C 71.8333,173.5 71.5,173.833 71.5,174.5C 70.5,174.833 69.8333,175.5 69.5,176.5C 68.8333,176.5 68.5,176.833 68.5,177.5C 66.6406,178.594 64.6406,179.427 62.5,180C 63.448,180.483 64.448,180.649 65.5,180.5C 61.8333,183.167 58.1667,183.167 54.5,180.5C 55.2389,180.631 55.9056,180.464 56.5,180C 51.1122,177.945 46.9456,174.445 44,169.5C 43.6012,169.728 43.4346,170.062 43.5,170.5C 42.0937,170.027 41.427,169.027 41.5,167.5C 42.7125,166.503 42.5458,165.503 41,164.5C 40.6012,164.728 40.4346,165.062 40.5,165.5C 39.0937,165.027 38.427,164.027 38.5,162.5C 39.0431,162.44 39.3764,162.107 39.5,161.5C 38.6667,159.833 37.8333,158.167 37,156.5C 36.5357,157.094 36.369,157.761 36.5,158.5C 35.596,157.791 35.2627,156.791 35.5,155.5C 36.0431,155.44 36.3764,155.107 36.5,154.5C 35.6667,152.833 34.8333,151.167 34,149.5C 33.5357,150.094 33.369,150.761 33.5,151.5C 32.596,150.791 32.2627,149.791 32.5,148.5C 31.0687,147.22 30.4021,145.553 30.5,143.5C 29.596,142.791 29.2627,141.791 29.5,140.5C 28.596,139.791 28.2627,138.791 28.5,137.5C 27.596,136.791 27.2627,135.791 27.5,134.5C 26.596,133.791 26.2627,132.791 26.5,131.5C 27.0967,131.265 27.4301,130.765 27.5,130C 27,128.5 26.5,127 26,125.5C 25.5172,126.448 25.3505,127.448 25.5,128.5C 24.0762,126.485 23.4095,124.152 23.5,121.5C 22.5655,120.432 22.2322,119.099 22.5,117.5C 20.2507,112.503 18.9174,107.17 18.5,101.5C 16.2919,95.1267 14.9586,88.46 14.5,81.5C 13.6909,79.7078 13.1909,77.7078 13,75.5C 12.3333,68.1667 12.3333,60.8333 13,53.5C 13.254,48.4835 14.4206,43.8168 16.5,39.5C 16.3505,40.552 16.5172,41.552 17,42.5C 18.7923,36.2487 21.6256,30.582 25.5,25.5C 26.1667,25.5 26.5,25.1667 26.5,24.5C 27.1667,24.5 27.5,24.1667 27.5,23.5C 28.1667,23.5 28.5,23.1667 28.5,22.5C 31.8092,19.841 35.4758,17.6743 39.5,16C 38.9056,15.5357 38.2389,15.369 37.5,15.5C 40.0836,13.5275 43.0836,12.5275 46.5,12.5C 51.5805,10.9848 56.9138,10.3182 62.5,10.5C 68.4085,10.3491 74.0752,11.0158 79.5,12.5C 81.4147,12.2155 83.0813,12.5489 84.5,13.5C 87.4951,13.2938 90.1617,13.9605 92.5,15.5C 95.9164,15.5275 98.9164,16.5275 101.5,18.5C 102.167,18.5 102.833,18.5 103.5,18.5C 103.435,18.9382 103.601,19.2716 104,19.5C 104.75,18.8742 105.584,18.3742 106.5,18C 107.738,17.31 107.738,16.81 106.5,16.5C 106.842,15.6618 107.508,15.3284 108.5,15.5C 108.56,16.0431 108.893,16.3764 109.5,16.5C 111.385,15.3906 113.385,14.5573 115.5,14C 114.552,13.5172 113.552,13.3505 112.5,13.5C 123.301,9.21442 134.301,8.54775 145.5,11.5C 149.534,11.4955 153.534,11.1621 157.5,10.5C 160.577,9.14396 163.91,8.31063 167.5,8C 172,7.83333 176.5,7.66667 181,7.5C 187.414,7.28855 193.581,7.95522 199.5,9.5 Z M 28.5,21.5 C 28.5,21.8333 28.5,22.1667 28.5,22.5C 27.8333,22.5 27.5,22.8333 27.5,23.5C 26.8333,23.5 26.5,23.8333 26.5,24.5C 25.8333,24.5 25.5,24.8333 25.5,25.5C 25.1667,25.5 24.8333,25.5 24.5,25.5C 24.8333,23.1667 26.1667,21.8333 28.5,21.5 Z M 220.5,24.5 C 221.167,24.5 221.833,24.5 222.5,24.5C 222.5,25.1667 222.833,25.5 223.5,25.5C 223.5,25.8333 223.5,26.1667 223.5,26.5C 221.973,26.573 220.973,25.9063 220.5,24.5 Z M 179.5,28.5 C 179.5,28.1667 179.5,27.8333 179.5,27.5C 181.027,27.427 182.027,28.0937 182.5,29.5C 181.833,29.5 181.167,29.5 180.5,29.5C 180.5,28.8333 180.167,28.5 179.5,28.5 Z M 235.5,31.5 C 236.906,31.9731 237.573,32.9731 237.5,34.5C 237.167,34.5 236.833,34.5 236.5,34.5C 235.833,34.5 235.5,34.1667 235.5,33.5C 235.5,32.8333 235.5,32.1667 235.5,31.5 Z M 178.5,33.5 C 179.167,33.5 179.833,33.5 180.5,33.5C 180.5,34.1667 180.833,34.5 181.5,34.5C 181.5,35.1667 181.833,35.5 182.5,35.5C 182.5,36.1667 182.833,36.5 183.5,36.5C 183.5,37.1667 183.5,37.8333 183.5,38.5C 181.5,37.1667 179.833,35.5 178.5,33.5 Z M 230.5,33.5 C 230.833,33.5 231.167,33.5 231.5,33.5C 231.5,34.1667 231.833,34.5 232.5,34.5C 232.5,35.1667 232.5,35.8333 232.5,36.5C 231.094,36.0269 230.427,35.0269 230.5,33.5 Z M 187.5,34.5 C 188.906,34.9731 189.573,35.9731 189.5,37.5C 189.167,37.5 188.833,37.5 188.5,37.5C 188.5,36.8333 188.167,36.5 187.5,36.5C 187.5,35.8333 187.5,35.1667 187.5,34.5 Z M 118.5,72.5 C 119.906,72.9731 120.573,73.9731 120.5,75.5C 120.167,75.5 119.833,75.5 119.5,75.5C 119.5,74.8333 119.167,74.5 118.5,74.5C 118.5,73.8333 118.5,73.1667 118.5,72.5 Z M 113.5,75.5 C 114.167,75.5 114.833,75.5 115.5,75.5C 115.5,76.1667 115.833,76.5 116.5,76.5C 116.5,77.1667 116.5,77.8333 116.5,78.5C 115.167,77.8333 114.167,76.8333 113.5,75.5 Z M 102.5,80.5 C 105.5,79.1667 108.5,79.1667 111.5,80.5C 107.5,80.8333 107.5,81.1667 111.5,81.5C 111.443,82.609 111.11,83.609 110.5,84.5C 108.435,84.4828 106.435,84.1495 104.5,83.5C 104.715,81.8212 104.048,80.8212 102.5,80.5 Z M 111.5,81.5 C 111.5,81.1667 111.5,80.8333 111.5,80.5C 112.586,80.62 113.253,81.2867 113.5,82.5C 113.457,83.4164 113.124,84.0831 112.5,84.5C 112.737,83.209 112.404,82.209 111.5,81.5 Z M 184.5,78.5 C 184.5,78.8333 184.5,79.1667 184.5,79.5C 183.662,79.8417 183.328,80.5084 183.5,81.5C 182.115,80.0527 182.448,79.0527 184.5,78.5 Z M 184.5,78.5 C 187.167,77.1667 189.833,77.1667 192.5,78.5C 190.007,78.1307 189.34,78.7973 190.5,80.5C 189.167,80.8333 189.167,81.1667 190.5,81.5C 190.158,82.3382 189.492,82.6716 188.5,82.5C 187.791,81.596 186.791,81.2627 185.5,81.5C 185.167,80.8333 184.833,80.1667 184.5,79.5C 189.833,79.1667 189.833,78.8333 184.5,78.5 Z M 123.5,154.5 C 123.5,154.167 123.5,153.833 123.5,153.5C 125.5,153.5 126.5,154.5 126.5,156.5C 126.167,156.5 125.833,156.5 125.5,156.5C 125.5,155.833 125.167,155.5 124.5,155.5C 124.5,154.833 124.167,154.5 123.5,154.5 Z M 79.5,158.5 C 79.5,159.167 79.5,159.833 79.5,160.5C 78.8333,160.5 78.5,160.833 78.5,161.5C 77.8333,161.5 77.5,161.833 77.5,162.5C 77.1667,162.5 76.8333,162.5 76.5,162.5C 76.7376,160.596 77.7376,159.262 79.5,158.5 Z M 84.5,159.5 C 84.8333,159.5 85.1667,159.5 85.5,159.5C 85.573,161.027 84.9063,162.027 83.5,162.5C 83.5,161.833 83.5,161.167 83.5,160.5C 84.1667,160.5 84.5,160.167 84.5,159.5 Z M 105.5,160.5 C 105.5,161.167 105.5,161.833 105.5,162.5C 104.833,162.5 104.5,162.833 104.5,163.5C 104.167,163.5 103.833,163.5 103.5,163.5C 103.427,161.973 104.094,160.973 105.5,160.5 Z M 109.5,162.5 C 109.833,162.5 110.167,162.5 110.5,162.5C 110.573,164.027 109.906,165.027 108.5,165.5C 108.5,164.833 108.5,164.167 108.5,163.5C 109.167,163.5 109.5,163.167 109.5,162.5 Z M 73.5,165.5 C 73.5,166.167 73.5,166.833 73.5,167.5C 72.8333,167.5 72.5,167.833 72.5,168.5C 72.1667,168.5 71.8333,168.5 71.5,168.5C 71.427,166.973 72.0937,165.973 73.5,165.5 Z M 49.5,169.5 C 51.5,170.833 53.1667,172.5 54.5,174.5C 53.8333,174.5 53.1667,174.5 52.5,174.5C 52.5,173.833 52.1667,173.5 51.5,173.5C 51.5,172.833 51.1667,172.5 50.5,172.5C 50.5,171.833 50.1667,171.5 49.5,171.5C 49.5,170.833 49.5,170.167 49.5,169.5 Z M 72.5,173.5 C 72.8333,173.5 73.1667,173.5 73.5,173.5C 73.573,175.027 72.9063,176.027 71.5,176.5C 71.5,175.833 71.5,175.167 71.5,174.5C 72.1667,174.5 72.5,174.167 72.5,173.5 Z M 69.5,176.5 C 70.1667,176.5 70.8333,176.5 71.5,176.5C 71.0269,177.906 70.0269,178.573 68.5,178.5C 68.5,178.167 68.5,177.833 68.5,177.5C 69.1667,177.5 69.5,177.167 69.5,176.5 Z M 180.5,234.5 C 180.833,234.5 181.167,234.5 181.5,234.5C 181.573,236.027 180.906,237.027 179.5,237.5C 179.5,236.833 179.5,236.167 179.5,235.5C 180.167,235.5 180.5,235.167 180.5,234.5 Z M 176.5,238.5 C 177.167,238.5 177.833,238.5 178.5,238.5C 178.027,239.906 177.027,240.573 175.5,240.5C 175.5,240.167 175.5,239.833 175.5,239.5C 176.167,239.5 176.5,239.167 176.5,238.5 Z M 133.5,239.5 C 133.833,239.5 134.167,239.5 134.5,239.5C 135.167,239.5 135.5,239.833 135.5,240.5C 136.167,240.5 136.5,240.833 136.5,241.5C 136.5,241.833 136.5,242.167 136.5,242.5C 134.5,242.5 133.5,241.5 133.5,239.5 Z"/></g>
<g><path style="opacity:0.009" fill="#000000" d="M 201.5,0.5 C 201.5,0.166667 201.5,-0.166667 201.5,-0.5C 202.5,-0.5 203.5,-0.5 204.5,-0.5C 203.791,0.403972 202.791,0.737305 201.5,0.5 Z"/></g>
<g><path style="opacity:0.012" fill="#000000" d="M 52.5,1.5 C 58.987,0.346018 65.6536,0.179351 72.5,1C 65.8417,1.49958 59.175,1.66625 52.5,1.5 Z"/></g>
<g><path style="opacity:0.01" fill="#000000" d="M 119.5,1.5 C 120.601,0.401682 121.934,0.235015 123.5,1C 122.207,1.49001 120.873,1.65668 119.5,1.5 Z"/></g>
<g><path style="opacity:0.009" fill="#000000" d="M 142.5,1.5 C 144.288,0.377527 146.288,0.210861 148.5,1C 146.527,1.49546 144.527,1.66212 142.5,1.5 Z"/></g>
<g><path style="opacity:0.01" fill="#000000" d="M 153.5,1.5 C 153.897,0.474981 154.563,0.308314 155.5,1C 154.906,1.46434 154.239,1.63101 153.5,1.5 Z"/></g>
<g><path style="opacity:0.01" fill="#000000" d="M 205.5,1.5 C 205.897,0.474981 206.563,0.308314 207.5,1C 206.906,1.46434 206.239,1.63101 205.5,1.5 Z"/></g>
<g><path style="opacity:0.009" fill="#000000" d="M 50.5,2.5 C 49.1266,2.65668 47.7932,2.49001 46.5,2C 48.0657,1.23502 49.3991,1.40168 50.5,2.5 Z"/></g>
<g><path style="opacity:0.009" fill="#000000" d="M 74.5,2.5 C 75.9464,1.38705 77.6131,1.22039 79.5,2C 77.8659,2.49351 76.1992,2.66018 74.5,2.5 Z"/></g>
<g><path style="opacity:0.012" fill="#000000" d="M 115.5,2.5 C 115.897,1.47498 116.563,1.30831 117.5,2C 116.906,2.46434 116.239,2.63101 115.5,2.5 Z"/></g>
<g><path style="opacity:0.008" fill="#000000" d="M 152.5,2.5 C 151.761,2.63101 151.094,2.46434 150.5,2C 151.437,1.30831 152.103,1.47498 152.5,2.5 Z"/></g>
<g><path style="opacity:0.01" fill="#000000" d="M 208.5,2.5 C 208.897,1.47498 209.563,1.30831 210.5,2C 209.906,2.46434 209.239,2.63101 208.5,2.5 Z"/></g>
<g><path style="opacity:0.009" fill="#000000" d="M 45.5,3.5 C 44.448,3.64945 43.448,3.48278 42.5,3C 43.7494,2.25988 44.7494,2.42654 45.5,3.5 Z"/></g>
<g><path style="opacity:0.01" fill="#000000" d="M 81.5,3.5 C 82.6009,2.40168 83.9343,2.23502 85.5,3C 84.2068,3.49001 82.8734,3.65668 81.5,3.5 Z"/></g>
<g><path style="opacity:0.012" fill="#000000" d="M 41.5,4.5 C 40.7611,4.63101 40.0944,4.46434 39.5,4C 40.4368,3.30831 41.1034,3.47498 41.5,4.5 Z"/></g>
<g><path style="opacity:0.009" fill="#000000" d="M 86.5,4.5 C 87.2506,3.42654 88.2506,3.25988 89.5,4C 88.552,4.48278 87.552,4.64945 86.5,4.5 Z"/></g>
<g><path style="opacity:0.008" fill="#000000" d="M 213.5,4.5 C 213.897,3.47498 214.563,3.30831 215.5,4C 214.906,4.46434 214.239,4.63101 213.5,4.5 Z"/></g>
<g><path style="opacity:0.01" fill="#000000" d="M 38.5,5.5 C 37.7611,5.63101 37.0944,5.46434 36.5,5C 37.4368,4.30831 38.1034,4.47498 38.5,5.5 Z"/></g>
<g><path style="opacity:0.009" fill="#000000" d="M 90.5,5.5 C 91.2506,4.42654 92.2506,4.25988 93.5,5C 92.552,5.48278 91.552,5.64945 90.5,5.5 Z"/></g>
<g><path style="opacity:0.012" fill="#000000" d="M 216.5,4.5 C 217.833,5.16667 217.833,5.16667 216.5,4.5 Z"/></g>
<g><path style="opacity:0.012" fill="#000000" d="M 34.5,5.5 C 35.8333,6.16667 35.8333,6.16667 34.5,5.5 Z"/></g>
<g><path style="opacity:0.012" fill="#000000" d="M 94.5,6.5 C 94.8966,5.47498 95.5632,5.30831 96.5,6C 95.9056,6.46434 95.2389,6.63101 94.5,6.5 Z"/></g>
<g><path style="opacity:0.012" fill="#000000" d="M 218.5,5.5 C 219.833,6.16667 219.833,6.16667 218.5,5.5 Z"/></g>
<g><path style="opacity:0.012" fill="#000000" d="M 33.5,7.5 C 32.8333,6.16667 32.8333,6.16667 33.5,7.5 Z"/></g>
<g><path style="opacity:0.01" fill="#000000" d="M 97.5,7.5 C 97.8966,6.47498 98.5632,6.30831 99.5,7C 98.9056,7.46434 98.2389,7.63101 97.5,7.5 Z"/></g>
<g><path style="opacity:0.012" fill="#000000" d="M 220.5,6.5 C 221.833,7.16667 221.833,7.16667 220.5,6.5 Z"/></g>
<g><path style="opacity:0.012" fill="#000000" d="M 31.5,8.5 C 30.8333,7.16667 30.8333,7.16667 31.5,8.5 Z"/></g>
<g><path style="opacity:0.008" fill="#000000" d="M 28.5,8.5 C 29.8333,9.16667 29.8333,9.16667 28.5,8.5 Z"/></g>
<g><path style="opacity:0.012" fill="#000000" d="M 223.5,8.5 C 224.833,9.16667 224.833,9.16667 223.5,8.5 Z"/></g>
<g><path style="opacity:0.012" fill="#000000" d="M 226.5,10.5 C 227.833,11.1667 227.833,11.1667 226.5,10.5 Z"/></g>
<g><path style="opacity:0.008" fill="#000000" d="M 228.5,11.5 C 229.833,12.1667 229.833,12.1667 228.5,11.5 Z"/></g>
<g><path style="opacity:0.012" fill="#000000" d="M 230.5,13.5 C 231.833,14.1667 231.833,14.1667 230.5,13.5 Z"/></g>
<g><path style="opacity:0.004" fill="#000000" d="M 232.5,14.5 C 233.833,15.1667 233.833,15.1667 232.5,14.5 Z"/></g>
<g><path style="opacity:0.998" fill="#31648d" d="M 140.5,15.5 C 142.265,16.4614 144.265,16.7947 146.5,16.5C 147.568,17.4345 148.901,17.7678 150.5,17.5C 152.214,18.7384 154.214,19.405 156.5,19.5C 157.209,20.404 158.209,20.7373 159.5,20.5C 161.181,22.0075 163.181,23.0075 165.5,23.5C 165.973,24.9063 166.973,25.573 168.5,25.5C 168.842,26.3382 169.508,26.6716 170.5,26.5C 173.126,28.8235 175.793,31.1568 178.5,33.5C 179.833,35.5 181.5,37.1667 183.5,38.5C 186.271,42.39 189.271,46.0567 192.5,49.5C 192.328,50.4916 192.662,51.1583 193.5,51.5C 193.328,52.4916 193.662,53.1583 194.5,53.5C 194.427,55.0269 195.094,56.0269 196.5,56.5C 196.328,57.4916 196.662,58.1583 197.5,58.5C 197.402,60.5529 198.069,62.2196 199.5,63.5C 199.263,64.791 199.596,65.791 200.5,66.5C 200.158,67.3382 199.492,67.6716 198.5,67.5C 193.089,66.1427 187.755,66.476 182.5,68.5C 181.209,68.2627 180.209,68.596 179.5,69.5C 177.973,69.427 176.973,70.0937 176.5,71.5C 174.413,72.5846 173.08,74.2512 172.5,76.5C 171.596,77.209 171.263,78.209 171.5,79.5C 170.836,81.8097 170.503,84.3097 170.5,87C 170.349,91.1123 171.016,94.9457 172.5,98.5C 172.263,99.791 172.596,100.791 173.5,101.5C 173.263,102.791 173.596,103.791 174.5,104.5C 174.402,106.553 175.069,108.22 176.5,109.5C 176.328,110.492 176.662,111.158 177.5,111.5C 177.402,113.553 178.069,115.22 179.5,116.5C 179.66,118.153 180.326,119.486 181.5,120.5C 181.427,122.027 182.094,123.027 183.5,123.5C 183.328,124.492 183.662,125.158 184.5,125.5C 187.656,134.493 192.323,142.493 198.5,149.5C 197.9,150.9 196.9,151.9 195.5,152.5C 193.596,152.738 192.262,153.738 191.5,155.5C 189.896,156.287 189.229,157.62 189.5,159.5C 187.02,178.676 184.687,198.01 182.5,217.5C 181.232,219.905 180.565,222.572 180.5,225.5C 178.58,229.66 175.913,233.327 172.5,236.5C 170.973,236.427 169.973,237.094 169.5,238.5C 168.508,238.328 167.842,238.662 167.5,239.5C 166.209,239.263 165.209,239.596 164.5,240.5C 163.209,240.263 162.209,240.596 161.5,241.5C 156.527,242.164 151.527,242.497 146.5,242.5C 145.791,241.596 144.791,241.263 143.5,241.5C 143.027,240.094 142.027,239.427 140.5,239.5C 138.471,237.142 136.471,234.808 134.5,232.5C 134.672,231.508 134.338,230.842 133.5,230.5C 133.405,228.214 132.738,226.214 131.5,224.5C 130.084,202.863 129.251,181.196 129,159.5C 128.722,158.584 128.222,157.918 127.5,157.5C 127.5,156.833 127.167,156.5 126.5,156.5C 126.5,154.5 125.5,153.5 123.5,153.5C 123.158,152.662 122.492,152.328 121.5,152.5C 119.302,151.835 116.969,151.168 114.5,150.5C 115.309,148.929 115.643,147.262 115.5,145.5C 116.404,144.791 116.737,143.791 116.5,142.5C 117.338,142.158 117.672,141.492 117.5,140.5C 118.404,139.791 118.737,138.791 118.5,137.5C 119.338,137.158 119.672,136.492 119.5,135.5C 120.931,134.22 121.598,132.553 121.5,130.5C 124.216,125.977 125.549,120.977 125.5,115.5C 126.655,108.679 126.821,101.679 126,94.5C 125.641,89.1825 124.474,84.1825 122.5,79.5C 122.771,77.6203 122.104,76.287 120.5,75.5C 120.573,73.9731 119.906,72.9731 118.5,72.5C 117.71,71.5987 116.71,70.9321 115.5,70.5C 108.208,66.7093 100.874,66.7093 93.5,70.5C 92.209,70.2627 91.209,70.596 90.5,71.5C 89.5084,71.3284 88.8417,71.6618 88.5,72.5C 87.5084,72.3284 86.8417,72.6618 86.5,73.5C 85.5084,73.3284 84.8417,73.6618 84.5,74.5C 83.4138,74.38 82.7472,73.7133 82.5,72.5C 83.4475,67.8674 84.1142,63.2007 84.5,58.5C 85.4345,57.4324 85.7678,56.099 85.5,54.5C 86.7384,52.7857 87.405,50.7857 87.5,48.5C 88.404,47.791 88.7373,46.791 88.5,45.5C 90.341,43.1515 91.6743,40.4848 92.5,37.5C 93.9063,37.0269 94.573,36.0269 94.5,34.5C 95.9063,34.0269 96.573,33.0269 96.5,31.5C 99.2971,29.205 101.964,26.705 104.5,24C 107.564,22.1412 110.564,20.3079 113.5,18.5C 115.786,18.405 117.786,17.7384 119.5,16.5C 126.471,15.7103 133.471,15.3769 140.5,15.5 Z"/></g>
<g><path style="opacity:0.997" fill="#31648d" d="M 195.5,13.5 C 197.905,14.7682 200.572,15.4349 203.5,15.5C 204.209,16.404 205.209,16.7373 206.5,16.5C 206.842,17.3382 207.508,17.6716 208.5,17.5C 209.514,18.6737 210.847,19.3404 212.5,19.5C 215.131,21.1526 217.797,22.8193 220.5,24.5C 220.973,25.9063 221.973,26.573 223.5,26.5C 225.5,29.1667 227.833,31.5 230.5,33.5C 230.427,35.0269 231.094,36.0269 232.5,36.5C 232.5,37.1667 232.833,37.5 233.5,37.5C 233.263,38.791 233.596,39.791 234.5,40.5C 235.665,50.865 235.332,61.1984 233.5,71.5C 232.549,72.9187 232.216,74.5853 232.5,76.5C 231.566,77.5676 231.232,78.901 231.5,80.5C 230.076,82.5145 229.41,84.8478 229.5,87.5C 227.595,91.2157 226.261,95.2157 225.5,99.5C 224.596,100.209 224.263,101.209 224.5,102.5C 223.069,103.78 222.402,105.447 222.5,107.5C 221.662,107.842 221.328,108.508 221.5,109.5C 220.596,110.209 220.263,111.209 220.5,112.5C 219.326,113.514 218.66,114.847 218.5,116.5C 217.069,117.78 216.402,119.447 216.5,121.5C 215.662,121.842 215.328,122.508 215.5,123.5C 214.662,123.842 214.328,124.508 214.5,125.5C 213.662,125.842 213.328,126.508 213.5,127.5C 212.662,127.842 212.328,128.508 212.5,129.5C 211.094,129.973 210.427,130.973 210.5,132.5C 209.326,133.514 208.66,134.847 208.5,136.5C 207.662,136.842 207.328,137.508 207.5,138.5C 205.684,140.118 204.351,142.118 203.5,144.5C 202.391,144.443 201.391,144.11 200.5,143.5C 201.11,142.609 201.443,141.609 201.5,140.5C 202.338,140.158 202.672,139.492 202.5,138.5C 203.404,137.791 203.737,136.791 203.5,135.5C 205.397,130.985 206.397,126.152 206.5,121C 205.576,113.188 204.91,105.354 204.5,97.5C 205.073,89.4922 205.739,81.4922 206.5,73.5C 206.706,69.5313 206.039,65.8646 204.5,62.5C 204.598,60.4471 203.931,58.7804 202.5,57.5C 201.172,52.8349 198.839,48.8349 195.5,45.5C 195.672,44.5084 195.338,43.8417 194.5,43.5C 193.557,40.8908 191.89,38.8908 189.5,37.5C 189.573,35.9731 188.906,34.9731 187.5,34.5C 186.167,32.5 184.5,30.8333 182.5,29.5C 182.027,28.0937 181.027,27.427 179.5,27.5C 179.167,26.5 178.5,25.8333 177.5,25.5C 177.027,24.0937 176.027,23.427 174.5,23.5C 174.027,22.0937 173.027,21.427 171.5,21.5C 171.027,20.0937 170.027,19.427 168.5,19.5C 167.486,18.3263 166.153,17.6596 164.5,17.5C 163.909,16.8485 163.243,16.1818 162.5,15.5C 173.343,12.4578 184.343,11.7912 195.5,13.5 Z"/></g>
<g><path style="opacity:0.998" fill="#31648d" d="M 50.5,16.5 C 60.5238,16.3344 70.5238,16.6677 80.5,17.5C 84.2393,19.1016 88.2393,20.1016 92.5,20.5C 93.7175,21.1614 95.0508,21.8281 96.5,22.5C 95.0476,23.9397 94.0476,25.6064 93.5,27.5C 90.7232,29.9505 88.7232,32.9505 87.5,36.5C 86.6618,36.8417 86.3284,37.5084 86.5,38.5C 85.3263,39.5137 84.6596,40.847 84.5,42.5C 83.596,43.209 83.2627,44.209 83.5,45.5C 81.9261,47.1016 81.2594,49.1016 81.5,51.5C 79.9605,53.8383 79.2938,56.5049 79.5,59.5C 76.3936,71.5542 75.7269,83.8875 77.5,96.5C 77.0138,104.515 76.3471,112.515 75.5,120.5C 75.6282,125.16 76.6282,129.493 78.5,133.5C 78.9925,135.819 79.9925,137.819 81.5,139.5C 81.427,141.027 82.0937,142.027 83.5,142.5C 84.8333,144.5 86.5,146.167 88.5,147.5C 86.7484,149.246 85.4151,151.246 84.5,153.5C 82.5,154.833 80.8333,156.5 79.5,158.5C 77.7376,159.262 76.7376,160.596 76.5,162.5C 75.1667,163.167 74.1667,164.167 73.5,165.5C 72.0937,165.973 71.427,166.973 71.5,168.5C 68.8333,170.5 66.5,172.833 64.5,175.5C 62.1944,175.993 59.861,176.326 57.5,176.5C 56.7095,175.599 55.7095,174.932 54.5,174.5C 53.1667,172.5 51.5,170.833 49.5,169.5C 48.396,167.611 47.0627,165.945 45.5,164.5C 45.6716,163.508 45.3382,162.842 44.5,162.5C 43.0078,158.182 41.0078,154.182 38.5,150.5C 38.5979,148.447 37.9313,146.78 36.5,145.5C 36.5979,143.447 35.9313,141.78 34.5,140.5C 34.7373,139.209 34.404,138.209 33.5,137.5C 33.7373,136.209 33.404,135.209 32.5,134.5C 32.7373,133.209 32.404,132.209 31.5,131.5C 31.7373,130.209 31.404,129.209 30.5,128.5C 30.5905,125.848 29.9238,123.515 28.5,121.5C 28.5905,118.848 27.9238,116.515 26.5,114.5C 26.7678,112.901 26.4345,111.568 25.5,110.5C 25.7678,108.901 25.4345,107.568 24.5,106.5C 24.7678,104.901 24.4345,103.568 23.5,102.5C 22.1961,93.8122 20.6961,85.1455 19,76.5C 18.0766,65.0841 18.5766,53.7508 20.5,42.5C 21.9313,41.2196 22.5979,39.5529 22.5,37.5C 26.8333,29.8333 32.8333,23.8333 40.5,19.5C 41.791,19.7373 42.791,19.404 43.5,18.5C 46.0673,18.2785 48.4006,17.6118 50.5,16.5 Z"/></g>
<g><path style="opacity:0.012" fill="#000000" d="M 11.5,25.5 C 12.8333,26.1667 12.8333,26.1667 11.5,25.5 Z"/></g>
<g><path style="opacity:0.006" fill="#000000" d="M 246.5,30.5 C 246.167,30.5 245.833,30.5 245.5,30.5C 245.833,27.8333 246.167,27.8333 246.5,30.5 Z"/></g>
<g><path style="opacity:0.012" fill="#000000" d="M 246.5,30.5 C 247.833,31.1667 247.833,31.1667 246.5,30.5 Z"/></g>
<g><path style="opacity:0.012" fill="#000000" d="M 247.5,32.5 C 248.833,33.1667 248.833,33.1667 247.5,32.5 Z"/></g>
<g><path style="opacity:0.008" fill="#000000" d="M 8.5,35.5 C 8.16667,35.5 7.83333,35.5 7.5,35.5C 7.83333,32.8333 8.16667,32.8333 8.5,35.5 Z"/></g>
<g><path style="opacity:0.01" fill="#000000" d="M 248.5,36.5 C 248.369,35.7611 248.536,35.0944 249,34.5C 249.692,35.4368 249.525,36.1034 248.5,36.5 Z"/></g>
<g><path style="opacity:0.008" fill="#000000" d="M 7.5,35.5 C 7.63101,36.2389 7.46434,36.9056 7,37.5C 6.30831,36.5632 6.47498,35.8966 7.5,35.5 Z"/></g>
<g><path style="opacity:0.009" fill="#000000" d="M 249.5,37.5 C 250.573,38.2506 250.74,39.2506 250,40.5C 249.517,39.552 249.351,38.552 249.5,37.5 Z"/></g>
<g><path style="opacity:0.008" fill="#000000" d="M 6.5,41.5 C 5.42654,40.7494 5.25988,39.7494 6,38.5C 6.48278,39.448 6.64945,40.448 6.5,41.5 Z"/></g>
<g><path style="opacity:0.009" fill="#000000" d="M 5.5,45.5 C 4.42654,44.7494 4.25988,43.7494 5,42.5C 5.48278,43.448 5.64945,44.448 5.5,45.5 Z"/></g>
<g><path style="opacity:0.012" fill="#000000" d="M 250.5,42.5 C 251.653,48.3188 251.819,54.3188 251,60.5C 250.501,54.5092 250.334,48.5092 250.5,42.5 Z"/></g>
<g><path style="opacity:0.01" fill="#000000" d="M 3.5,46.5 C 4.59832,47.6009 4.76498,48.9343 4,50.5C 3.50999,49.2068 3.34332,47.8734 3.5,46.5 Z"/></g>
<g><path style="opacity:0.009" fill="#000000" d="M 2.5,52.5 C 3.65613,60.3225 3.82279,68.3225 3,76.5C 2.50029,68.5069 2.33362,60.5069 2.5,52.5 Z"/></g>
<g><path style="opacity:0.009" fill="#000000" d="M 249.5,63.5 C 250.613,64.9464 250.78,66.6131 250,68.5C 249.506,66.8659 249.34,65.1992 249.5,63.5 Z"/></g>
<g><path style="opacity:0.01" fill="#000000" d="M 248.5,70.5 C 249.598,71.6009 249.765,72.9343 249,74.5C 248.51,73.2068 248.343,71.8734 248.5,70.5 Z"/></g>
<g><path style="opacity:0.004" fill="#31648c" d="M 116.5,72.5 C 117.167,72.5 117.833,72.5 118.5,72.5C 118.5,73.1667 118.5,73.8333 118.5,74.5C 117.5,74.1667 116.833,73.5 116.5,72.5 Z"/></g>
<g><path style="opacity:0.01" fill="#000000" d="M 247.5,75.5 C 248.573,76.2506 248.74,77.2506 248,78.5C 247.517,77.552 247.351,76.552 247.5,75.5 Z"/></g>
<g><path style="opacity:0.994" fill="#31648d" d="M 109.5,73.5 C 110.209,74.404 111.209,74.7373 112.5,74.5C 112.5,75.1667 112.833,75.5 113.5,75.5C 114.167,76.8333 115.167,77.8333 116.5,78.5C 116.5,79.1667 116.833,79.5 117.5,79.5C 117.263,80.791 117.596,81.791 118.5,82.5C 118.232,84.099 118.566,85.4324 119.5,86.5C 121.298,97.1368 121.631,107.803 120.5,118.5C 119.566,119.568 119.232,120.901 119.5,122.5C 118.596,123.209 118.263,124.209 118.5,125.5C 117.662,125.842 117.328,126.508 117.5,127.5C 116.069,128.78 115.402,130.447 115.5,132.5C 114.662,132.842 114.328,133.508 114.5,134.5C 113.069,135.78 112.402,137.447 112.5,139.5C 111.596,140.209 111.263,141.209 111.5,142.5C 110.596,143.209 110.263,144.209 110.5,145.5C 109.751,146.531 109.085,147.698 108.5,149C 106.527,149.495 104.527,149.662 102.5,149.5C 100.351,148.264 98.0177,147.264 95.5,146.5C 95.0269,145.094 94.0269,144.427 92.5,144.5C 91.1667,142.5 89.5,140.833 87.5,139.5C 87.573,137.973 86.9063,136.973 85.5,136.5C 85.0075,134.181 84.0075,132.181 82.5,130.5C 82.7678,128.901 82.4345,127.568 81.5,126.5C 82.2288,111.511 82.5621,96.5113 82.5,81.5C 85.669,80.0834 88.669,78.4168 91.5,76.5C 97.3315,74.5428 103.332,73.5428 109.5,73.5 Z M 102.5,80.5 C 105.5,79.1667 108.5,79.1667 111.5,80.5C 107.5,80.8333 107.5,81.1667 111.5,81.5C 111.443,82.609 111.11,83.609 110.5,84.5C 108.435,84.4828 106.435,84.1495 104.5,83.5C 104.715,81.8212 104.048,80.8212 102.5,80.5 Z M 111.5,81.5 C 111.5,81.1667 111.5,80.8333 111.5,80.5C 112.586,80.62 113.253,81.2867 113.5,82.5C 113.457,83.4164 113.124,84.0831 112.5,84.5C 112.737,83.209 112.404,82.209 111.5,81.5 Z"/></g>
<g><path style="opacity:0.009" fill="#000000" d="M 3.5,78.5 C 4.61295,79.9464 4.77961,81.6131 4,83.5C 3.50649,81.8659 3.33982,80.1992 3.5,78.5 Z"/></g>
<g><path style="opacity:0.008" fill="#31638c" d="M 102.5,81.5 C 102.5,81.1667 102.5,80.8333 102.5,80.5C 104.048,80.8212 104.715,81.8212 104.5,83.5C 104.167,83.5 103.833,83.5 103.5,83.5C 103.672,82.5084 103.338,81.8417 102.5,81.5 Z"/></g>
<g><path style="opacity:0.986" fill="#31648d" d="M 186.5,72.5 C 191.167,72.5 195.833,72.5 200.5,72.5C 200.082,80.8486 199.415,89.182 198.5,97.5C 198.609,102.716 199.276,107.716 200.5,112.5C 200.5,117.833 200.5,123.167 200.5,128.5C 199.566,129.568 199.232,130.901 199.5,132.5C 198.596,133.209 198.263,134.209 198.5,135.5C 196.805,136.826 195.472,136.493 194.5,134.5C 194.539,131.911 193.539,129.911 191.5,128.5C 191.672,127.508 191.338,126.842 190.5,126.5C 189.341,122.849 187.674,119.515 185.5,116.5C 185.34,114.847 184.674,113.514 183.5,112.5C 183.008,110.181 182.008,108.181 180.5,106.5C 180.737,105.209 180.404,104.209 179.5,103.5C 179.598,101.447 178.931,99.7804 177.5,98.5C 177.768,96.901 177.434,95.5676 176.5,94.5C 175.426,89.4802 175.426,84.4802 176.5,79.5C 177.906,79.0269 178.573,78.0269 178.5,76.5C 181.232,75.134 183.899,73.8007 186.5,72.5 Z M 184.5,78.5 C 184.5,78.8333 184.5,79.1667 184.5,79.5C 183.662,79.8417 183.328,80.5084 183.5,81.5C 182.115,80.0527 182.448,79.0527 184.5,78.5 Z M 184.5,78.5 C 187.167,77.1667 189.833,77.1667 192.5,78.5C 190.007,78.1307 189.34,78.7973 190.5,80.5C 189.167,80.8333 189.167,81.1667 190.5,81.5C 190.158,82.3382 189.492,82.6716 188.5,82.5C 187.791,81.596 186.791,81.2627 185.5,81.5C 185.167,80.8333 184.833,80.1667 184.5,79.5C 189.833,79.1667 189.833,78.8333 184.5,78.5 Z"/></g>
<g><path style="opacity:0.012" fill="#32638c" d="M 192.5,78.5 C 192.5,78.8333 192.5,79.1667 192.5,79.5C 191.833,79.5 191.5,79.8333 191.5,80.5C 191.167,80.5 190.833,80.5 190.5,80.5C 189.34,78.7973 190.007,78.1307 192.5,78.5 Z"/></g>
<g><path style="opacity:0.016" fill="#31638c" d="M 184.5,79.5 C 184.833,80.1667 185.167,80.8333 185.5,81.5C 184.833,81.5 184.167,81.5 183.5,81.5C 183.328,80.5084 183.662,79.8417 184.5,79.5 Z"/></g>
<g><path style="opacity:0.01" fill="#000000" d="M 246.5,80.5 C 247.573,81.2506 247.74,82.2506 247,83.5C 246.517,82.552 246.351,81.552 246.5,80.5 Z"/></g>
<g><path style="opacity:0.008" fill="#31638c" d="M 111.5,81.5 C 112.404,82.209 112.737,83.209 112.5,84.5C 111.833,84.5 111.167,84.5 110.5,84.5C 111.11,83.609 111.443,82.609 111.5,81.5 Z"/></g>
<g><path style="opacity:0.009" fill="#000000" d="M 5.5,84.5 C 5.65668,85.8734 5.49001,87.2068 5,88.5C 4.23502,86.9343 4.40168,85.6009 5.5,84.5 Z"/></g>
<g><path style="opacity:0.01" fill="#000000" d="M 245.5,84.5 C 246.525,84.8966 246.692,85.5632 246,86.5C 245.536,85.9056 245.369,85.2389 245.5,84.5 Z"/></g>
<g><path style="opacity:0.009" fill="#000000" d="M 244.5,87.5 C 245.573,88.2506 245.74,89.2506 245,90.5C 244.517,89.552 244.351,88.552 244.5,87.5 Z"/></g>
<g><path style="opacity:0.01" fill="#000000" d="M 5.5,90.5 C 6.57346,91.2506 6.74012,92.2506 6,93.5C 5.51722,92.552 5.35055,91.552 5.5,90.5 Z"/></g>
<g><path style="opacity:0.012" fill="#000000" d="M 243.5,91.5 C 244.525,91.8966 244.692,92.5632 244,93.5C 243.536,92.9056 243.369,92.2389 243.5,91.5 Z"/></g>
<g><path style="opacity:0.008" fill="#000000" d="M 242.5,94.5 C 243.833,95.5 243.833,96.5 242.5,97.5C 242.5,96.5 242.5,95.5 242.5,94.5 Z"/></g>
<g><path style="opacity:0.009" fill="#000000" d="M 6.5,95.5 C 7.57346,96.2506 7.74012,97.2506 7,98.5C 6.51722,97.552 6.35055,96.552 6.5,95.5 Z"/></g>
<g><path style="opacity:0.007" fill="#000000" d="M 241.5,97.5 C 241.833,97.5 242.167,97.5 242.5,97.5C 242.737,98.791 242.404,99.791 241.5,100.5C 241.5,99.5 241.5,98.5 241.5,97.5 Z"/></g>
<g><path style="opacity:0.008" fill="#000000" d="M 8.5,99.5 C 8.65668,100.873 8.49001,102.207 8,103.5C 7.23502,101.934 7.40168,100.601 8.5,99.5 Z"/></g>
<g><path style="opacity:0.007" fill="#000000" d="M 240.5,100.5 C 240.833,100.5 241.167,100.5 241.5,100.5C 241.737,101.791 241.404,102.791 240.5,103.5C 240.5,102.5 240.5,101.5 240.5,100.5 Z"/></g>
<g><path style="opacity:0.01" fill="#000000" d="M 239.5,103.5 C 239.833,103.5 240.167,103.5 240.5,103.5C 240.167,106.167 239.833,106.167 239.5,103.5 Z"/></g>
<g><path style="opacity:0.009" fill="#000000" d="M 8.5,104.5 C 9.57346,105.251 9.74012,106.251 9,107.5C 8.51722,106.552 8.35055,105.552 8.5,104.5 Z"/></g>
<g><path style="opacity:0.01" fill="#000000" d="M 238.5,106.5 C 239.525,106.897 239.692,107.563 239,108.5C 238.536,107.906 238.369,107.239 238.5,106.5 Z"/></g>
<g><path style="opacity:0.008" fill="#000000" d="M 10.5,108.5 C 10.6495,109.552 10.4828,110.552 10,111.5C 9.25988,110.251 9.42654,109.251 10.5,108.5 Z"/></g>
<g><path style="opacity:0.008" fill="#000000" d="M 237.5,111.5 C 237.369,110.761 237.536,110.094 238,109.5C 238.692,110.437 238.525,111.103 237.5,111.5 Z"/></g>
<g><path style="opacity:0.008" fill="#000000" d="M 236.5,111.5 C 236.833,111.5 237.167,111.5 237.5,111.5C 237.167,114.167 236.833,114.167 236.5,111.5 Z"/></g>
<g><path style="opacity:0.008" fill="#000000" d="M 11.5,112.5 C 11.6495,113.552 11.4828,114.552 11,115.5C 10.2599,114.251 10.4265,113.251 11.5,112.5 Z"/></g>
<g><path style="opacity:0.008" fill="#000000" d="M 235.5,116.5 C 235.369,115.761 235.536,115.094 236,114.5C 236.692,115.437 236.525,116.103 235.5,116.5 Z"/></g>
<g><path style="opacity:0.008" fill="#000000" d="M 12.5,116.5 C 12.6495,117.552 12.4828,118.552 12,119.5C 11.2599,118.251 11.4265,117.251 12.5,116.5 Z"/></g>
<g><path style="opacity:0.01" fill="#000000" d="M 234.5,116.5 C 234.833,116.5 235.167,116.5 235.5,116.5C 235.672,117.492 235.338,118.158 234.5,118.5C 234.5,117.833 234.5,117.167 234.5,116.5 Z"/></g>
<g><path style="opacity:0.008" fill="#000000" d="M 233.5,118.5 C 233.833,118.5 234.167,118.5 234.5,118.5C 234.167,121.167 233.833,121.167 233.5,118.5 Z"/></g>
<g><path style="opacity:0.009" fill="#000000" d="M 13.5,123.5 C 12.4265,122.749 12.2599,121.749 13,120.5C 13.4828,121.448 13.6495,122.448 13.5,123.5 Z"/></g>
<g><path style="opacity:0.008" fill="#000000" d="M 232.5,121.5 C 233.833,122.167 233.833,122.833 232.5,123.5C 232.5,122.833 232.5,122.167 232.5,121.5 Z"/></g>
<g><path style="opacity:0.008" fill="#000000" d="M 13.5,123.5 C 13.8333,123.5 14.1667,123.5 14.5,123.5C 14.1667,127.5 13.8333,127.5 13.5,123.5 Z"/></g>
<g><path style="opacity:0.008" fill="#000000" d="M 231.5,123.5 C 231.833,123.5 232.167,123.5 232.5,123.5C 232.672,124.492 232.338,125.158 231.5,125.5C 231.5,124.833 231.5,124.167 231.5,123.5 Z"/></g>
<g><path style="opacity:0.01" fill="#000000" d="M 230.5,125.5 C 230.833,125.5 231.167,125.5 231.5,125.5C 231.672,126.492 231.338,127.158 230.5,127.5C 230.5,126.833 230.5,126.167 230.5,125.5 Z"/></g>
<g><path style="opacity:0.012" fill="#000000" d="M 15.5,127.5 C 15.631,128.239 15.4643,128.906 15,129.5C 14.3083,128.563 14.475,127.897 15.5,127.5 Z"/></g>
<g><path style="opacity:0.008" fill="#000000" d="M 229.5,127.5 C 229.833,127.5 230.167,127.5 230.5,127.5C 230.672,128.492 230.338,129.158 229.5,129.5C 229.5,128.833 229.5,128.167 229.5,127.5 Z"/></g>
<g><path style="opacity:0.008" fill="#000000" d="M 228.5,129.5 C 228.833,129.5 229.167,129.5 229.5,129.5C 229.672,130.492 229.338,131.158 228.5,131.5C 228.5,130.833 228.5,130.167 228.5,129.5 Z"/></g>
<g><path style="opacity:0.008" fill="#000000" d="M 16.5,130.5 C 16.6495,131.552 16.4828,132.552 16,133.5C 15.2599,132.251 15.4265,131.251 16.5,130.5 Z"/></g>
<g><path style="opacity:0.008" fill="#000000" d="M 227.5,131.5 C 227.833,131.5 228.167,131.5 228.5,131.5C 228.672,132.492 228.338,133.158 227.5,133.5C 227.5,132.833 227.5,132.167 227.5,131.5 Z"/></g>
<g><path style="opacity:0.008" fill="#000000" d="M 226.5,133.5 C 226.833,133.5 227.167,133.5 227.5,133.5C 227.672,134.492 227.338,135.158 226.5,135.5C 226.5,134.833 226.5,134.167 226.5,133.5 Z"/></g>
<g><path style="opacity:0.008" fill="#000000" d="M 16.5,134.5 C 17.525,134.897 17.6917,135.563 17,136.5C 16.5357,135.906 16.369,135.239 16.5,134.5 Z"/></g>
<g><path style="opacity:0.008" fill="#000000" d="M 225.5,135.5 C 225.833,135.5 226.167,135.5 226.5,135.5C 226.672,136.492 226.338,137.158 225.5,137.5C 225.5,136.833 225.5,136.167 225.5,135.5 Z"/></g>
<g><path style="opacity:0.008" fill="#000000" d="M 17.5,137.5 C 18.525,137.897 18.6917,138.563 18,139.5C 17.5357,138.906 17.369,138.239 17.5,137.5 Z"/></g>
<g><path style="opacity:0.008" fill="#000000" d="M 224.5,137.5 C 224.833,137.5 225.167,137.5 225.5,137.5C 225.672,138.492 225.338,139.158 224.5,139.5C 224.5,138.833 224.5,138.167 224.5,137.5 Z"/></g>
<g><path style="opacity:0.008" fill="#000000" d="M 223.5,139.5 C 223.833,139.5 224.167,139.5 224.5,139.5C 224.672,140.492 224.338,141.158 223.5,141.5C 223.5,140.833 223.5,140.167 223.5,139.5 Z"/></g>
<g><path style="opacity:0.008" fill="#000000" d="M 18.5,140.5 C 19.525,140.897 19.6917,141.563 19,142.5C 18.5357,141.906 18.369,141.239 18.5,140.5 Z"/></g>
<g><path style="opacity:0.012" fill="#000000" d="M 222.5,141.5 C 222.833,141.5 223.167,141.5 223.5,141.5C 223.315,142.17 222.981,142.17 222.5,141.5 Z"/></g>
<g><path style="opacity:0.012" fill="#000000" d="M 233.5,142.5 C 235.628,141.371 237.961,141.204 240.5,142C 238.19,142.497 235.857,142.663 233.5,142.5 Z"/></g>
<g><path style="opacity:0.009" fill="#000000" d="M 228.5,143.5 C 229.251,142.427 230.251,142.26 231.5,143C 230.552,143.483 229.552,143.649 228.5,143.5 Z"/></g>
<g><path style="opacity:0.013" fill="#000000" d="M 221.5,143.5 C 223.199,143.34 224.866,143.506 226.5,144C 224.613,144.78 222.946,144.613 221.5,143.5 Z"/></g>
<g><path style="opacity:0.012" fill="#000000" d="M 243.5,143.5 C 244.833,144.167 244.833,144.167 243.5,143.5 Z"/></g>
<g><path style="opacity:0.004" fill="#000000" d="M 245.5,144.5 C 246.833,145.167 246.833,145.167 245.5,144.5 Z"/></g>
<g><path style="opacity:0.008" fill="#000000" d="M 21.5,145.5 C 21.631,146.239 21.4643,146.906 21,147.5C 20.3083,146.563 20.475,145.897 21.5,145.5 Z"/></g>
<g><path style="opacity:0.008" fill="#000000" d="M 248.5,147.5 C 247.833,146.167 247.833,146.167 248.5,147.5 Z"/></g>
<g><path style="opacity:0.008" fill="#000000" d="M 248.5,147.5 C 249.833,148.167 249.833,148.167 248.5,147.5 Z"/></g>
<g><path style="opacity:0.01" fill="#000000" d="M 22.5,148.5 C 22.631,149.239 22.4643,149.906 22,150.5C 21.3083,149.563 21.475,148.897 22.5,148.5 Z"/></g>
<g><path style="opacity:0.008" fill="#000000" d="M 250.5,152.5 C 250.369,151.761 250.536,151.094 251,150.5C 251.692,151.437 251.525,152.103 250.5,152.5 Z"/></g>
<g><path style="opacity:0.008" fill="#000000" d="M 23.5,153.5 C 22.475,153.103 22.3083,152.437 23,151.5C 23.4643,152.094 23.631,152.761 23.5,153.5 Z"/></g>
<g><path style="opacity:0.008" fill="#000000" d="M 23.5,153.5 C 23.8333,153.5 24.1667,153.5 24.5,153.5C 24.1667,156.167 23.8333,156.167 23.5,153.5 Z"/></g>
<g><path style="opacity:0.01" fill="#000000" d="M 251.5,161.5 C 251.336,158.813 251.503,156.146 252,153.5C 252.801,156.367 252.634,159.034 251.5,161.5 Z"/></g>
<g><path style="opacity:0.008" fill="#000000" d="M 24.5,156.5 C 25.525,156.897 25.6917,157.563 25,158.5C 24.5357,157.906 24.369,157.239 24.5,156.5 Z"/></g>
<g><path style="opacity:0.964" fill="#31648d" d="M 198.5,156.5 C 200.167,156.5 201.833,156.5 203.5,156.5C 203.842,157.338 204.508,157.672 205.5,157.5C 206.209,158.404 207.209,158.737 208.5,158.5C 214.833,159.833 221.167,159.833 227.5,158.5C 229.415,158.784 231.081,158.451 232.5,157.5C 233.239,157.369 233.906,157.536 234.5,158C 233.748,158.671 233.414,159.504 233.5,160.5C 232.508,160.328 231.842,160.662 231.5,161.5C 227.047,164.393 222.38,166.727 217.5,168.5C 209.774,169.864 202.107,169.697 194.5,168C 193.55,165.568 193.55,163.068 194.5,160.5C 195.5,158.833 196.833,157.5 198.5,156.5 Z"/></g>
<g><path style="opacity:0.965" fill="#32648d" d="M 120.5,157.5 C 121.167,158.833 122.167,159.833 123.5,160.5C 123.833,162.5 124.167,164.5 124.5,166.5C 123.512,167.795 122.512,169.128 121.5,170.5C 119.833,171.5 118.5,172.833 117.5,174.5C 115.77,175.026 114.436,176.026 113.5,177.5C 105.599,179.73 97.5986,180.064 89.5,178.5C 89.1583,177.662 88.4916,177.328 87.5,177.5C 87.1961,176.85 86.8627,176.183 86.5,175.5C 87.6016,174.824 88.6016,174.158 89.5,173.5C 94.6216,173.39 99.2882,172.056 103.5,169.5C 105.749,168.92 107.415,167.587 108.5,165.5C 109.906,165.027 110.573,164.027 110.5,162.5C 111.5,162.167 112.167,161.5 112.5,160.5C 114.545,158.016 117.212,157.016 120.5,157.5 Z"/></g>
<g><path style="opacity:0.008" fill="#000000" d="M 250.5,161.5 C 250.833,161.5 251.167,161.5 251.5,161.5C 251.672,162.492 251.338,163.158 250.5,163.5C 250.5,162.833 250.5,162.167 250.5,161.5 Z"/></g>
<g><path style="opacity:0.006" fill="#000000" d="M 249.5,163.5 C 249.833,163.5 250.167,163.5 250.5,163.5C 250.672,164.492 250.338,165.158 249.5,165.5C 249.5,164.833 249.5,164.167 249.5,163.5 Z"/></g>
<g><path style="opacity:0.012" fill="#000000" d="M 248.5,165.5 C 248.833,165.5 249.167,165.5 249.5,165.5C 249.315,166.17 248.981,166.17 248.5,165.5 Z"/></g>
<g><path style="opacity:0.012" fill="#000000" d="M 32.5,170.5 C 31.8333,171.167 31.8333,171.167 32.5,170.5 Z"/></g>
<g><path style="opacity:0.008" fill="#000000" d="M 244.5,170.5 C 245.833,171.167 245.833,171.167 244.5,170.5 Z"/></g>
<g><path style="opacity:0.009" fill="#000000" d="M 81.5,171.5 C 82.1667,171.5 82.8333,171.5 83.5,171.5C 81.8325,173.479 81.1658,175.812 81.5,178.5C 81.1667,178.5 80.8333,178.5 80.5,178.5C 80.5,176.5 80.5,174.5 80.5,172.5C 81.1667,172.5 81.5,172.167 81.5,171.5 Z"/></g>
<g><path style="opacity:0.008" fill="#000000" d="M 243.5,171.5 C 243.833,171.5 244.167,171.5 244.5,171.5C 244.315,172.17 243.981,172.17 243.5,171.5 Z"/></g>
<g><path style="opacity:0.008" fill="#000000" d="M 33.5,173.5 C 32.8333,172.167 32.8333,172.167 33.5,173.5 Z"/></g>
<g><path style="opacity:0.008" fill="#000000" d="M 243.5,172.5 C 242.833,173.167 242.833,173.167 243.5,172.5 Z"/></g>
<g><path style="opacity:0.012" fill="#000000" d="M 33.5,173.5 C 33.8333,173.5 34.1667,173.5 34.5,173.5C 34.3147,174.17 33.9813,174.17 33.5,173.5 Z"/></g>
<g><path style="opacity:0.012" fill="#000000" d="M 240.5,173.5 C 241.833,174.167 241.833,174.167 240.5,173.5 Z"/></g>
<g><path style="opacity:0.004" fill="#000000" d="M 71.5,174.5 C 71.5,175.167 71.5,175.833 71.5,176.5C 70.8333,176.5 70.1667,176.5 69.5,176.5C 69.8333,175.5 70.5,174.833 71.5,174.5 Z"/></g>
<g><path style="opacity:0.012" fill="#000000" d="M 239.5,174.5 C 239.833,174.5 240.167,174.5 240.5,174.5C 240.315,175.17 239.981,175.17 239.5,174.5 Z"/></g>
<g><path style="opacity:0.008" fill="#000000" d="M 34.5,175.5 C 35.8333,176.167 35.8333,176.167 34.5,175.5 Z"/></g>
<g><path style="opacity:0.006" fill="#000000" d="M 237.5,176.5 C 237.5,176.167 237.5,175.833 237.5,175.5C 238.167,175.5 238.833,175.5 239.5,175.5C 239.158,176.338 238.492,176.672 237.5,176.5 Z"/></g>
<g><path style="opacity:0.012" fill="#000000" d="M 236.5,176.5 C 236.833,176.5 237.167,176.5 237.5,176.5C 237.315,177.17 236.981,177.17 236.5,176.5 Z"/></g>
<g><path style="opacity:0.012" fill="#000000" d="M 234.5,177.5 C 235.833,178.167 235.833,178.167 234.5,177.5 Z"/></g>
<g><path style="opacity:0.008" fill="#000000" d="M 232.5,179.5 C 232.5,179.167 232.5,178.833 232.5,178.5C 233.167,178.5 233.833,178.5 234.5,178.5C 234.158,179.338 233.492,179.672 232.5,179.5 Z"/></g>
<g><path style="opacity:0.008" fill="#000000" d="M 230.5,180.5 C 230.5,180.167 230.5,179.833 230.5,179.5C 231.167,179.5 231.833,179.5 232.5,179.5C 232.158,180.338 231.492,180.672 230.5,180.5 Z"/></g>
<g><path style="opacity:0.008" fill="#000000" d="M 228.5,180.5 C 229.167,180.5 229.833,180.5 230.5,180.5C 229.833,181.833 229.167,181.833 228.5,180.5 Z"/></g>
<g><path style="opacity:0.01" fill="#000000" d="M 225.5,182.5 C 225.5,182.167 225.5,181.833 225.5,181.5C 228.167,181.833 228.167,182.167 225.5,182.5 Z"/></g>
<g><path style="opacity:0.008" fill="#000000" d="M 222.5,182.5 C 223.5,182.5 224.5,182.5 225.5,182.5C 224.5,183.833 223.5,183.833 222.5,182.5 Z"/></g>
<g><path style="opacity:0.009" fill="#000000" d="M 218.5,183.5 C 219.552,183.351 220.552,183.517 221.5,184C 220.251,184.74 219.251,184.573 218.5,183.5 Z"/></g>
<g><path style="opacity:0.009" fill="#000000" d="M 212.5,185.5 C 213.946,184.387 215.613,184.22 217.5,185C 215.866,185.494 214.199,185.66 212.5,185.5 Z"/></g>
<g><path style="opacity:0.006" fill="#000000" d="M 200.5,185.5 C 203.518,185.335 206.518,185.502 209.5,186C 206.854,186.497 204.187,186.664 201.5,186.5C 201.662,188.527 201.495,190.527 201,192.5C 200.503,190.19 200.337,187.857 200.5,185.5 Z"/></g>
<g><path style="opacity:0.012" fill="#000000" d="M 72.5,187.5 C 73.8333,188.167 73.8333,188.167 72.5,187.5 Z"/></g>
<g><path style="opacity:0.006" fill="#000000" d="M 70.5,189.5 C 70.5,189.167 70.5,188.833 70.5,188.5C 71.1667,188.5 71.8333,188.5 72.5,188.5C 72.1583,189.338 71.4916,189.672 70.5,189.5 Z"/></g>
<g><path style="opacity:0.012" fill="#000000" d="M 70.5,189.5 C 69.8333,190.167 69.8333,190.167 70.5,189.5 Z"/></g>
<g><path style="opacity:0.006" fill="#000000" d="M 79.5,189.5 C 79.5,189.833 79.5,190.167 79.5,190.5C 76.8333,190.167 76.8333,189.833 79.5,189.5 Z"/></g>
<g><path style="opacity:0.01" fill="#000000" d="M 53.5,190.5 C 53.1034,191.525 52.4368,191.692 51.5,191C 52.0944,190.536 52.7611,190.369 53.5,190.5 Z"/></g>
<g><path style="opacity:0.008" fill="#000000" d="M 66.5,190.5 C 67.2389,190.369 67.9056,190.536 68.5,191C 67.5632,191.692 66.8966,191.525 66.5,190.5 Z"/></g>
<g><path style="opacity:0.012" fill="#000000" d="M 79.5,190.5 C 80.8333,191.167 80.8333,191.167 79.5,190.5 Z"/></g>
<g><path style="opacity:0.012" fill="#000000" d="M 54.5,192.5 C 55.2506,191.427 56.2506,191.26 57.5,192C 56.552,192.483 55.552,192.649 54.5,192.5 Z"/></g>
<g><path style="opacity:0.01" fill="#000000" d="M 62.5,192.5 C 63.2506,191.427 64.2506,191.26 65.5,192C 64.552,192.483 63.552,192.649 62.5,192.5 Z"/></g>
<g><path style="opacity:0.012" fill="#000000" d="M 81.5,191.5 C 82.8333,192.167 82.8333,192.167 81.5,191.5 Z"/></g>
<g><path style="opacity:0.011" fill="#000000" d="M 115.5,192.5 C 116.652,197.985 116.818,203.651 116,209.5C 115.501,203.843 115.334,198.176 115.5,192.5 Z"/></g>
<g><path style="opacity:0.009" fill="#000000" d="M 88.5,193.5 C 87.7494,194.573 86.7494,194.74 85.5,194C 86.448,193.517 87.448,193.351 88.5,193.5 Z"/></g>
<g><path style="opacity:0.012" fill="#000000" d="M 112.5,193.5 C 113.239,193.369 113.906,193.536 114.5,194C 113.563,194.692 112.897,194.525 112.5,193.5 Z"/></g>
<g><path style="opacity:0.01" fill="#000000" d="M 89.5,195.5 C 90.6009,194.402 91.9343,194.235 93.5,195C 92.2068,195.49 90.8734,195.657 89.5,195.5 Z"/></g>
<g><path style="opacity:0.009" fill="#000000" d="M 108.5,195.5 C 109.251,194.427 110.251,194.26 111.5,195C 110.552,195.483 109.552,195.649 108.5,195.5 Z"/></g>
<g><path style="opacity:0.007" fill="#000000" d="M 95.5,196.5 C 98.9758,195.357 102.642,195.19 106.5,196C 102.848,196.499 99.1817,196.665 95.5,196.5 Z"/></g>
<g><path style="opacity:0.009" fill="#000000" d="M 199.5,197.5 C 200.634,199.966 200.801,202.633 200,205.5C 199.503,202.854 199.336,200.187 199.5,197.5 Z"/></g>
<g><path style="opacity:0.012" fill="#000000" d="M 198.5,208.5 C 199.598,209.601 199.765,210.934 199,212.5C 198.51,211.207 198.343,209.873 198.5,208.5 Z"/></g>
<g><path style="opacity:0.01" fill="#000000" d="M 116.5,213.5 C 117.629,215.628 117.796,217.961 117,220.5C 116.503,218.19 116.337,215.857 116.5,213.5 Z"/></g>
<g><path style="opacity:0.009" fill="#000000" d="M 197.5,214.5 C 198.598,215.601 198.765,216.934 198,218.5C 197.51,217.207 197.343,215.873 197.5,214.5 Z"/></g>
<g><path style="opacity:0.009" fill="#000000" d="M 196.5,222.5 C 196.351,221.448 196.517,220.448 197,219.5C 197.74,220.749 197.573,221.749 196.5,222.5 Z"/></g>
<g><path style="opacity:0.009" fill="#000000" d="M 118.5,221.5 C 118.657,222.873 118.49,224.207 118,225.5C 117.235,223.934 117.402,222.601 118.5,221.5 Z"/></g>
<g><path style="opacity:0.008" fill="#000000" d="M 195.5,222.5 C 195.833,222.5 196.167,222.5 196.5,222.5C 196.167,226.5 195.833,226.5 195.5,222.5 Z"/></g>
<g><path style="opacity:0.008" fill="#000000" d="M 194.5,228.5 C 194.369,227.761 194.536,227.094 195,226.5C 195.692,227.437 195.525,228.103 194.5,228.5 Z"/></g>
<g><path style="opacity:0.008" fill="#000000" d="M 193.5,228.5 C 193.833,228.5 194.167,228.5 194.5,228.5C 194.167,231.167 193.833,231.167 193.5,228.5 Z"/></g>
<g><path style="opacity:0.007" fill="#000000" d="M 120.5,229.5 C 120.649,230.552 120.483,231.552 120,232.5C 119.26,231.251 119.427,230.251 120.5,229.5 Z"/></g>
<g><path style="opacity:0.012" fill="#000000" d="M 192.5,231.5 C 193.833,232.167 193.833,232.167 192.5,231.5 Z"/></g>
<g><path style="opacity:0.01" fill="#000000" d="M 120.5,233.5 C 121.525,233.897 121.692,234.563 121,235.5C 120.536,234.906 120.369,234.239 120.5,233.5 Z"/></g>
<g><path style="opacity:0.012" fill="#000000" d="M 191.5,233.5 C 192.833,234.167 192.833,234.167 191.5,233.5 Z"/></g>
<g><path style="opacity:0.008" fill="#000000" d="M 190.5,235.5 C 191.833,236.167 191.833,236.167 190.5,235.5 Z"/></g>
<g><path style="opacity:0.008" fill="#000000" d="M 121.5,236.5 C 122.525,236.897 122.692,237.563 122,238.5C 121.536,237.906 121.369,237.239 121.5,236.5 Z"/></g>
<g><path style="opacity:0.008" fill="#000000" d="M 189.5,236.5 C 189.833,236.5 190.167,236.5 190.5,236.5C 190.672,237.492 190.338,238.158 189.5,238.5C 189.5,237.833 189.5,237.167 189.5,236.5 Z"/></g>
<g><path style="opacity:0.012" fill="#000000" d="M 188.5,238.5 C 188.833,238.5 189.167,238.5 189.5,238.5C 189.315,239.17 188.981,239.17 188.5,238.5 Z"/></g>
<g><path style="opacity:0.012" fill="#000000" d="M 187.5,239.5 C 187.833,239.5 188.167,239.5 188.5,239.5C 188.315,240.17 187.981,240.17 187.5,239.5 Z"/></g>
<g><path style="opacity:0.012" fill="#000000" d="M 179.5,247.5 C 180.833,248.167 180.833,248.167 179.5,247.5 Z"/></g>
<g><path style="opacity:0.012" fill="#000000" d="M 178.5,248.5 C 178.833,248.5 179.167,248.5 179.5,248.5C 179.315,249.17 178.981,249.17 178.5,248.5 Z"/></g>
<g><path style="opacity:0.012" fill="#000000" d="M 176.5,249.5 C 177.833,250.167 177.833,250.167 176.5,249.5 Z"/></g>
<g><path style="opacity:0.008" fill="#000000" d="M 174.5,251.5 C 174.5,251.167 174.5,250.833 174.5,250.5C 175.167,250.5 175.833,250.5 176.5,250.5C 176.158,251.338 175.492,251.672 174.5,251.5 Z"/></g>
<g><path style="opacity:0.008" fill="#000000" d="M 172.5,252.5 C 172.5,252.167 172.5,251.833 172.5,251.5C 173.167,251.5 173.833,251.5 174.5,251.5C 174.158,252.338 173.492,252.672 172.5,252.5 Z"/></g>
<g><path style="opacity:0.01" fill="#000000" d="M 170.5,253.5 C 170.5,253.167 170.5,252.833 170.5,252.5C 171.167,252.5 171.833,252.5 172.5,252.5C 172.158,253.338 171.492,253.672 170.5,253.5 Z"/></g>
<g><path style="opacity:0.008" fill="#000000" d="M 170.5,253.5 C 170.103,254.525 169.437,254.692 168.5,254C 169.094,253.536 169.761,253.369 170.5,253.5 Z"/></g>
<g><path style="opacity:0.01" fill="#000000" d="M 137.5,255.5 C 137.842,254.662 138.508,254.328 139.5,254.5C 139.5,254.833 139.5,255.167 139.5,255.5C 138.833,255.5 138.167,255.5 137.5,255.5 Z"/></g>
<g><path style="opacity:0.008" fill="#000000" d="M 164.5,255.5 C 164.5,255.167 164.5,254.833 164.5,254.5C 165.791,254.263 166.791,254.596 167.5,255.5C 166.5,255.5 165.5,255.5 164.5,255.5 Z"/></g>
</svg>
