<?xml version="1.0" encoding="UTF-8"?>
<!DOCTYPE svg PUBLIC "-//W3C//DTD SVG 1.1//EN" "http://www.w3.org/Graphics/SVG/1.1/DTD/svg11.dtd">
<svg xmlns="http://www.w3.org/2000/svg" version="1.1" width="1200px" height="1080px" style="shape-rendering:geometricPrecision; text-rendering:geometricPrecision; image-rendering:optimizeQuality; fill-rule:evenodd; clip-rule:evenodd" xmlns:xlink="http://www.w3.org/1999/xlink">
<g><path style="opacity:0.989" fill="#149eca" d="M 360.5,-0.5 C 373.167,-0.5 385.833,-0.5 398.5,-0.5C 440.574,5.47013 480.241,18.9701 517.5,40C 546.337,56.3475 573.67,74.8475 599.5,95.5C 633.967,67.749 671.3,44.249 711.5,25C 740.004,11.9619 769.671,3.46185 800.5,-0.5C 813.167,-0.5 825.833,-0.5 838.5,-0.5C 898.17,7.98966 940.67,39.6563 966,94.5C 978.839,124.191 986.506,155.191 989,187.5C 992.092,231.074 990.425,274.408 984,317.5C 1027.74,334.282 1068.58,356.116 1106.5,383C 1136.25,405.081 1160.75,431.915 1180,463.5C 1189.84,482.194 1196.34,501.861 1199.5,522.5C 1199.5,533.833 1199.5,545.167 1199.5,556.5C 1194.63,587.938 1182.46,616.271 1163,641.5C 1137.73,672.444 1107.9,697.944 1073.5,718C 1044.78,734.774 1014.95,749.274 984,761.5C 990.425,804.592 992.092,847.925 989,891.5C 986.038,933.378 974.038,972.378 953,1008.5C 925.856,1049.83 887.689,1073.49 838.5,1079.5C 825.833,1079.5 813.167,1079.5 800.5,1079.5C 758.424,1073.53 718.758,1060.03 681.5,1039C 652.663,1022.65 625.33,1004.15 599.5,983.5C 565.033,1011.25 527.7,1034.75 487.5,1054C 458.997,1067.04 429.331,1075.54 398.5,1079.5C 385.833,1079.5 373.167,1079.5 360.5,1079.5C 300.83,1071.01 258.33,1039.34 233,984.5C 220.161,954.809 212.494,923.809 210,891.5C 206.886,847.924 208.553,804.591 215,761.5C 171.257,744.718 130.424,722.884 92.5,696C 62.7499,673.919 38.2499,647.085 19,615.5C 9.1572,596.806 2.6572,577.139 -0.5,556.5C -0.5,545.167 -0.5,533.833 -0.5,522.5C 4.47433,489.216 17.641,459.55 39,433.5C 65.3237,403.167 95.8237,378.001 130.5,358C 157.708,342.479 185.874,328.979 215,317.5C 207.699,268.343 206.699,219.01 212,169.5C 217.074,127.919 231.741,90.2528 256,56.5C 283.173,23.496 318.007,4.49601 360.5,-0.5 Z M 364.5,57.5 C 397.334,56.0334 428.667,62.2001 458.5,76C 493.142,91.6407 525.142,111.307 554.5,135C 512.891,174.931 474.557,217.598 439.5,263C 382.646,270.237 326.812,282.07 272,298.5C 265.154,255.551 264.821,212.551 271,169.5C 275.034,143.055 284.367,118.722 299,96.5C 315.628,74.6082 337.462,61.6082 364.5,57.5 Z M 804.5,57.5 C 859.569,53.4457 897.069,77.1124 917,128.5C 930.255,168.79 935.255,210.123 932,252.5C 931.256,267.942 929.589,283.276 927,298.5C 872.188,282.07 816.354,270.237 759.5,263C 724.443,217.598 686.109,174.931 644.5,135C 682.273,104.438 724.273,81.1044 770.5,65C 781.843,61.9009 793.176,59.4009 804.5,57.5 Z M 598.5,173.5 C 601.603,175.423 604.603,177.59 607.5,180C 631.934,204.096 655.267,229.096 677.5,255C 651.525,254.105 625.525,253.605 599.5,253.5C 573.475,253.605 547.475,254.105 521.5,255C 545.232,226.098 570.899,198.932 598.5,173.5 Z M 561.5,311.5 C 616.635,310.352 671.635,312.519 726.5,318C 777.433,386.653 820.1,460.486 854.5,539.5C 820.1,618.514 777.433,692.347 726.5,761C 641.833,769.667 557.167,769.667 472.5,761C 421.91,692.124 379.244,618.291 344.5,539.5C 379.244,460.709 421.91,386.876 472.5,318C 502.269,315.064 531.935,312.898 561.5,311.5 Z M 388.5,329.5 C 389.873,329.343 391.207,329.51 392.5,330C 363.934,373.612 337.768,418.779 314,465.5C 300.753,429.597 290.253,392.93 282.5,355.5C 317.551,345.237 352.884,336.57 388.5,329.5 Z M 806.5,330.5 C 806.917,329.876 807.584,329.543 808.5,329.5C 844.978,336.287 880.978,344.953 916.5,355.5C 908.747,392.93 898.247,429.597 885,465.5C 861.331,418.798 835.164,373.798 806.5,330.5 Z M 224.5,376.5 C 225.496,376.414 226.329,376.748 227,377.5C 240.341,433.022 258.174,487.022 280.5,539.5C 258.174,591.978 240.341,645.978 227,701.5C 181.969,685.898 141.469,662.398 105.5,631C 41.2061,569.362 41.5394,508.028 106.5,447C 141.877,417.174 181.211,393.674 224.5,376.5 Z M 972.5,376.5 C 1017.26,393.201 1057.6,417.035 1093.5,448C 1157.5,509 1157.5,570 1093.5,631C 1057.53,662.398 1017.03,685.898 972,701.5C 958.659,645.978 940.826,591.978 918.5,539.5C 940.902,486.626 958.902,432.293 972.5,376.5 Z M 313.5,613.5 C 337.662,659.998 363.995,705.165 392.5,749C 355.301,742.992 318.635,734.492 282.5,723.5C 284.874,709.668 288.041,696.001 292,682.5C 298.874,659.379 306.041,636.379 313.5,613.5 Z M 884.5,613.5 C 898.173,649.196 908.84,685.863 916.5,723.5C 880.31,734.237 843.643,742.737 806.5,749C 835.165,705.52 861.165,660.354 884.5,613.5 Z M 271.5,780.5 C 326.491,796.865 382.491,808.699 439.5,816C 474.557,861.402 512.891,904.069 554.5,944C 517.612,973.954 476.612,996.954 431.5,1013C 350.137,1038.22 297.97,1010.05 275,928.5C 267.339,894.909 264.672,860.909 267,826.5C 267.907,811.098 269.407,795.765 271.5,780.5 Z M 926.5,780.5 C 929.573,795.533 931.406,810.867 932,826.5C 934.564,863.395 931.231,899.729 922,935.5C 897.606,1011.12 847.106,1037.29 770.5,1014C 724.273,997.896 682.273,974.562 644.5,944C 686.109,904.069 724.443,861.402 759.5,816C 816.295,808.809 871.962,796.976 926.5,780.5 Z M 521.5,824.5 C 523.304,823.838 525.304,823.505 527.5,823.5C 551.476,824.928 575.476,825.595 599.5,825.5C 625.524,825.381 651.524,824.881 677.5,824C 653.787,853.216 627.787,880.383 599.5,905.5C 571.35,880.354 545.35,853.354 521.5,824.5 Z"/></g>
<g><path style="opacity:0.994" fill="#149eca" d="M 591.5,424.5 C 643.897,423.933 681.731,446.933 705,493.5C 721.822,537.894 715.489,578.561 686,615.5C 650.086,652.103 607.586,662.603 558.5,647C 521.922,632.089 498.422,605.589 488,567.5C 477.418,511.862 495.918,469.029 543.5,439C 558.685,431.043 574.685,426.21 591.5,424.5 Z"/></g>
</svg>
