<?xml version="1.0" encoding="UTF-8"?>
<!DOCTYPE svg PUBLIC "-//W3C//DTD SVG 1.1//EN" "http://www.w3.org/Graphics/SVG/1.1/DTD/svg11.dtd">
<svg xmlns="http://www.w3.org/2000/svg" version="1.1" width="222px" height="190px" style="shape-rendering:geometricPrecision; text-rendering:geometricPrecision; image-rendering:optimizeQuality; fill-rule:evenodd; clip-rule:evenodd" xmlns:xlink="http://www.w3.org/1999/xlink">
<g><path style="opacity:0.396" fill="#f6f6f6" d="M 169.5,-0.5 C 172.167,-0.5 174.833,-0.5 177.5,-0.5C 177.833,0.166667 178.167,0.833333 178.5,1.5C 169.527,-1.18126 165.194,2.15208 165.5,11.5C 163.469,6.44048 164.802,2.44048 169.5,-0.5 Z"/></g>
<g><path style="opacity:0.327" fill="#dddddd" d="M 3.5,-0.5 C 4.5,-0.5 5.5,-0.5 6.5,-0.5C 9.55382,3.53918 13.5538,6.37251 18.5,8C 26.1975,9.87297 33.8642,11.873 41.5,14C 44.7556,15.116 47.4223,16.9493 49.5,19.5C 46.3374,17.7545 43.004,16.2545 39.5,15C 32.0789,13.3114 24.7455,11.3114 17.5,9C 13.5808,7.45974 10.0808,5.29307 7,2.5C 8.02649,13.0535 6.19315,23.0535 1.5,32.5C 3.38782,25.4463 4.72116,18.2796 5.5,11C 5.56777,6.99697 4.9011,3.16364 3.5,-0.5 Z"/></g>
<g><path style="opacity:0.016" fill="#e9e9e9" d="M 178.5,1.5 C 183.394,4.81999 183.727,8.48666 179.5,12.5C 181.016,8.61457 180.682,4.9479 178.5,1.5 Z"/></g>
<g><path style="opacity:0.556" fill="#f1f0f0" d="M 71.5,36.5 C 72.6253,34.8712 73.9586,33.3712 75.5,32C 77.9739,31.9633 79.9739,31.13 81.5,29.5C 84.3401,27.2849 85.0068,24.6182 83.5,21.5C 83.4142,20.5041 83.7476,19.6708 84.5,19C 92.5338,17.9133 93.3671,15.0799 87,10.5C 84.4541,11.452 82.9541,13.2853 82.5,16C 81.552,16.4828 80.552,16.6495 79.5,16.5C 77.5449,14.6742 75.2116,14.1742 72.5,15C 70.5743,15.4224 69.5743,16.5891 69.5,18.5C 67.062,21.2277 64.062,23.2277 60.5,24.5C 62.1462,22.2486 64.3129,20.582 67,19.5C 70.0826,12.4713 74.7493,11.138 81,15.5C 83.2297,8.92323 86.8963,7.92323 92,12.5C 93.0472,17.7749 91.0472,20.1082 86,19.5C 86.5049,24.5139 85.0049,28.6806 81.5,32C 77.8158,32.9072 74.4824,34.4072 71.5,36.5 Z"/></g>
<g><path style="opacity:1" fill="#55747d" d="M 79.5,16.5 C 79.4431,17.609 79.1098,18.609 78.5,19.5C 78.1667,19.5 77.8333,19.5 77.5,19.5C 77.38,18.4138 76.7133,17.7472 75.5,17.5C 73.9271,17.7517 72.5938,18.4183 71.5,19.5C 70.5489,20.9187 70.2155,22.5853 70.5,24.5C 69.8333,24.5 69.5,24.1667 69.5,23.5C 69.5,21.8333 69.5,20.1667 69.5,18.5C 69.5743,16.5891 70.5743,15.4224 72.5,15C 75.2116,14.1742 77.5449,14.6742 79.5,16.5 Z"/></g>
<g><path style="opacity:0.3" fill="#f7f7f7" d="M 178.5,13.5 C 175.745,16.5179 172.411,17.1846 168.5,15.5C 167.378,16.6302 166.044,17.2969 164.5,17.5C 166.426,14.3513 169.092,13.6847 172.5,15.5C 174.516,14.8224 176.516,14.1557 178.5,13.5 Z"/></g>
<g><path style="opacity:1" fill="#161314" d="M 83.5,21.5 C 82.1591,21.3547 80.8258,22.0214 79.5,23.5C 78.8466,24.8068 78.1799,26.1401 77.5,27.5C 76.3864,28.7759 75.3864,28.7759 74.5,27.5C 75.3382,27.1583 75.6716,26.4916 75.5,25.5C 77.309,22.8607 79.6424,20.6941 82.5,19C 81.1807,18.805 79.8474,18.9717 78.5,19.5C 79.1098,18.609 79.4431,17.609 79.5,16.5C 80.552,16.6495 81.552,16.4828 82.5,16C 82.9541,13.2853 84.4541,11.452 87,10.5C 93.3671,15.0799 92.5338,17.9133 84.5,19C 83.7476,19.6708 83.4142,20.5041 83.5,21.5 Z"/></g>
<g><path style="opacity:1" fill="#c4606b" d="M 85.5,12.5 C 88.5,12.1667 89.8333,13.5 89.5,16.5C 85.56,17.234 84.2266,15.9007 85.5,12.5 Z"/></g>
<g><path style="opacity:0.292" fill="#dfdfdf" d="M 165.5,11.5 C 166.525,11.8966 166.692,12.5632 166,13.5C 163.656,15.1813 161.323,16.848 159,18.5C 149.013,16.4153 139.513,17.7486 130.5,22.5C 129.197,20.0629 127.53,17.8962 125.5,16C 121.412,15.3963 118.912,17.2297 118,21.5C 117.667,24.5 117.333,27.5 117,30.5C 112.199,34.299 107.699,38.4657 103.5,43C 100.518,43.498 97.5184,43.6646 94.5,43.5C 83.2087,45.4854 72.542,49.1521 62.5,54.5C 62.6741,52.139 63.0074,49.8056 63.5,47.5C 68.989,46.6692 70.6557,43.6692 68.5,38.5C 69.0047,37.0815 70.0047,36.4148 71.5,36.5C 71.7853,39.5048 71.2853,42.5048 70,45.5C 68.7365,47.607 66.9032,48.607 64.5,48.5C 64.3433,49.8734 64.51,51.2068 65,52.5C 76.8981,45.649 89.7314,41.8157 103.5,41C 107.034,37.1311 110.867,33.6311 115,30.5C 115.579,25.5962 116.912,20.9295 119,16.5C 120.737,14.3754 122.904,13.542 125.5,14C 127.712,16.0425 129.712,18.2092 131.5,20.5C 140.792,16.3954 150.459,14.8954 160.5,16C 162.618,14.9509 164.284,13.4509 165.5,11.5 Z"/></g>
<g><path style="opacity:1" fill="#181716" d="M 178.5,1.5 C 180.682,4.9479 181.016,8.61457 179.5,12.5C 179.5,13.1667 179.167,13.5 178.5,13.5C 176.516,14.1557 174.516,14.8224 172.5,15.5C 169.092,13.6847 166.426,14.3513 164.5,17.5C 163.244,17.4614 162.244,17.9614 161.5,19C 163.996,20.6665 166.329,22.4998 168.5,24.5C 168.857,26.5891 169.523,28.5891 170.5,30.5C 173.601,29.1432 176.601,27.8099 179.5,26.5C 181.833,26.5 184.167,26.5 186.5,26.5C 186.884,22.4448 188.884,19.4448 192.5,17.5C 200.04,17.3723 203.373,21.0389 202.5,28.5C 196.496,34.1004 190.83,33.7671 185.5,27.5C 180.437,28.6821 175.437,30.0155 170.5,31.5C 170.5,34.1667 170.5,36.8333 170.5,39.5C 169.566,40.5676 169.232,41.901 169.5,43.5C 173.5,43.5 177.5,43.5 181.5,43.5C 187.426,43.8179 193.093,45.1513 198.5,47.5C 202.53,54.3551 207.863,55.3551 214.5,50.5C 221.016,52.0788 222.016,55.2454 217.5,60C 212.893,60.87 210.226,59.0367 209.5,54.5C 206.302,53.9644 203.635,54.631 201.5,56.5C 200.167,57.1667 199.167,58.1667 198.5,59.5C 188.734,63.4437 178.734,66.777 168.5,69.5C 172.683,71.7571 177.016,73.7571 181.5,75.5C 182.192,74.9747 182.692,74.3081 183,73.5C 183.671,74.2524 184.504,74.5858 185.5,74.5C 188.208,77.2085 191.208,79.5419 194.5,81.5C 198.13,85.631 201.963,89.631 206,93.5C 206.246,99.2091 205.746,104.876 204.5,110.5C 202.712,112.791 200.712,114.957 198.5,117C 200.307,123.682 201.307,130.515 201.5,137.5C 200.041,137.433 198.708,137.766 197.5,138.5C 197.158,137.662 196.492,137.328 195.5,137.5C 197.386,136.935 199.053,135.935 200.5,134.5C 199.099,125.92 197.432,117.42 195.5,109C 196.449,108.383 197.282,108.549 198,109.5C 198.333,111.167 198.667,112.833 199,114.5C 200.333,113.167 201.667,111.833 203,110.5C 204.384,104.891 204.717,99.2247 204,93.5C 197.968,87.2436 191.468,81.577 184.5,76.5C 180.824,88.5413 178.157,100.875 176.5,113.5C 175.833,113.5 175.5,113.167 175.5,112.5C 176.192,109.103 176.192,105.77 175.5,102.5C 172.016,101.633 168.683,100.466 165.5,99C 169.521,99.0349 173.521,99.5349 177.5,100.5C 178.321,97.4465 178.321,94.4465 177.5,91.5C 173.684,90.0906 170.017,88.424 166.5,86.5C 170.398,87.0612 174.398,88.3945 178.5,90.5C 179.83,86.1965 180.663,81.8632 181,77.5C 173.212,73.2915 165.045,69.9582 156.5,67.5C 153.878,80.3493 152.878,93.3493 153.5,106.5C 153.167,106.5 152.833,106.5 152.5,106.5C 152.737,105.209 152.404,104.209 151.5,103.5C 151.665,100.482 151.498,97.4816 151,94.5C 145.134,88.9687 139.634,83.1353 134.5,77C 135.577,76.5304 136.577,76.6971 137.5,77.5C 141.164,81.3322 144.664,85.3322 148,89.5C 150.099,86.3001 151.933,82.9667 153.5,79.5C 153.5,75.1667 153.5,70.8333 153.5,66.5C 152.209,66.7373 151.209,66.404 150.5,65.5C 151.791,65.7373 152.791,65.404 153.5,64.5C 154.847,65.0283 156.181,65.195 157.5,65C 148.95,56.0572 138.617,50.2239 126.5,47.5C 116.046,44.9079 105.38,43.9079 94.5,44.5C 94.5,44.1667 94.5,43.8333 94.5,43.5C 97.5184,43.6646 100.518,43.498 103.5,43C 107.699,38.4657 112.199,34.299 117,30.5C 117.333,27.5 117.667,24.5 118,21.5C 118.912,17.2297 121.412,15.3963 125.5,16C 127.53,17.8962 129.197,20.0629 130.5,22.5C 139.513,17.7486 149.013,16.4153 159,18.5C 161.323,16.848 163.656,15.1813 166,13.5C 166.692,12.5632 166.525,11.8966 165.5,11.5C 165.194,2.15208 169.527,-1.18126 178.5,1.5 Z"/></g>
<g><path style="opacity:1" fill="#cf6471" d="M 170.5,2.5 C 177,1.49867 179.5,4.16534 178,10.5C 174.952,14.0095 171.619,14.3428 168,11.5C 166.93,7.8579 167.764,4.8579 170.5,2.5 Z"/></g>
<g><path style="opacity:0.357" fill="#e5e5e5" d="M 192.5,17.5 C 198.705,15.6117 202.705,17.9451 204.5,24.5C 204.332,26.1705 203.665,27.5039 202.5,28.5C 203.373,21.0389 200.04,17.3723 192.5,17.5 Z"/></g>
<g><path style="opacity:0.707" fill="#e5e2e2" d="M 77.5,19.5 C 75.3469,20.5729 73.3469,20.5729 71.5,19.5C 72.5938,18.4183 73.9271,17.7517 75.5,17.5C 76.7133,17.7472 77.38,18.4138 77.5,19.5 Z"/></g>
<g><path style="opacity:0.433" fill="#eaeaea" d="M 164.5,17.5 C 164.389,18.1174 164.056,18.6174 163.5,19C 166.079,20.0757 167.746,21.909 168.5,24.5C 166.329,22.4998 163.996,20.6665 161.5,19C 162.244,17.9614 163.244,17.4614 164.5,17.5 Z"/></g>
<g><path style="opacity:1" fill="#8c5f5b" d="M 75.5,25.5 C 75.4606,24.4168 75.1272,23.4168 74.5,22.5C 76.1836,21.8503 77.5169,20.8503 78.5,19.5C 79.8474,18.9717 81.1807,18.805 82.5,19C 79.6424,20.6941 77.309,22.8607 75.5,25.5 Z"/></g>
<g><path style="opacity:1" fill="#7ac174" d="M 166.5,49.5 C 166.441,43.7024 166.275,37.7024 166,31.5C 163.468,24.998 158.968,22.3314 152.5,23.5C 148.958,23.1872 145.625,23.5206 142.5,24.5C 138.227,25.7751 135.227,28.4418 133.5,32.5C 133.906,30.8908 133.906,29.5575 133.5,28.5C 127.479,32.5212 122.479,37.5212 118.5,43.5C 114.466,43.3279 110.466,42.8279 106.5,42C 110.239,38.3833 114.072,34.8833 118,31.5C 118.043,26.1471 119.543,21.3138 122.5,17C 123.996,16.4926 125.163,16.9926 126,18.5C 126.853,20.9355 127.853,23.2688 129,25.5C 139.863,17.9596 151.363,16.7929 163.5,22C 165.617,23.7309 167.117,25.8976 168,28.5C 168.95,35.6423 168.45,42.6423 166.5,49.5 Z"/></g>
<g><path style="opacity:0.886" fill="#e1e1e1" d="M 192.5,17.5 C 188.884,19.4448 186.884,22.4448 186.5,26.5C 184.167,26.5 181.833,26.5 179.5,26.5C 180.997,25.6942 182.664,25.0276 184.5,24.5C 185.973,20.6867 188.64,18.3534 192.5,17.5 Z"/></g>
<g><path style="opacity:1" fill="#b8525b" d="M 75.5,25.5 C 75.6716,26.4916 75.3382,27.1583 74.5,27.5C 73.5244,26.1851 72.5244,24.8518 71.5,23.5C 71.8333,23.1667 72.1667,22.8333 72.5,22.5C 73.2876,23.7701 74.2876,24.7701 75.5,25.5 Z"/></g>
<g><path style="opacity:1" fill="#4f5f66" d="M 83.5,21.5 C 85.0068,24.6182 84.3401,27.2849 81.5,29.5C 81.631,28.7611 81.4643,28.0944 81,27.5C 80.2825,28.4506 79.4491,28.6172 78.5,28C 80.4661,26.6534 80.7994,25.1534 79.5,23.5C 80.8258,22.0214 82.1591,21.3547 83.5,21.5 Z"/></g>
<g><path style="opacity:1" fill="#cd626f" d="M 192.5,19.5 C 200.305,19.1013 202.638,22.268 199.5,29C 195.808,31.1592 192.308,30.9925 189,28.5C 187.665,24.3919 188.832,21.3919 192.5,19.5 Z"/></g>
<g><path style="opacity:1" fill="#6f9d65" d="M 166.5,49.5 C 169.175,50.3554 171.842,51.522 174.5,53C 175.517,54.0495 175.684,55.2161 175,56.5C 171.344,57.9694 167.511,58.9694 163.5,59.5C 162.498,61.5101 161.498,63.5101 160.5,65.5C 149.025,53.4284 135.025,46.0951 118.5,43.5C 122.479,37.5212 127.479,32.5212 133.5,28.5C 133.906,29.5575 133.906,30.8908 133.5,32.5C 133.171,35.2282 133.837,37.5615 135.5,39.5C 135.5,41.5 136.5,42.5 138.5,42.5C 138.611,43.1174 138.944,43.6174 139.5,44C 143.167,44.6667 146.833,44.6667 150.5,44C 151.942,43.6232 152.942,42.7899 153.5,41.5C 154.496,41.5858 155.329,41.2524 156,40.5C 160.139,33.5982 158.973,27.9315 152.5,23.5C 158.968,22.3314 163.468,24.998 166,31.5C 166.275,37.7024 166.441,43.7024 166.5,49.5 Z"/></g>
<g><path style="opacity:1" fill="#f7f159" d="M 142.5,24.5 C 146.273,24.2633 149.94,24.7633 153.5,26C 155.141,27.129 156.141,28.629 156.5,30.5C 156.565,30.9382 156.399,31.2716 156,31.5C 153.761,28.038 150.594,26.7046 146.5,27.5C 146.5,28.5 146.5,29.5 146.5,30.5C 143.941,30.1984 141.607,30.5318 139.5,31.5C 139.167,32.1667 138.833,32.8333 138.5,33.5C 137.566,34.5676 137.232,35.901 137.5,37.5C 137.916,39.7525 139.249,41.2525 141.5,42C 141.272,42.3988 140.938,42.5654 140.5,42.5C 139.833,42.5 139.167,42.5 138.5,42.5C 137.833,41.1667 136.833,40.1667 135.5,39.5C 134.364,32.7755 136.698,27.7755 142.5,24.5 Z"/></g>
<g><path style="opacity:0.39" fill="#ededed" d="M 168.5,24.5 C 169.85,25.4831 170.85,26.8164 171.5,28.5C 174.021,27.2147 176.687,26.5481 179.5,26.5C 176.601,27.8099 173.601,29.1432 170.5,30.5C 169.523,28.5891 168.857,26.5891 168.5,24.5 Z"/></g>
<g><path style="opacity:1" fill="#cab94c" d="M 156.5,30.5 C 157.678,34.5551 156.678,38.2217 153.5,41.5C 149.171,43.5409 144.838,43.8742 140.5,42.5C 140.938,42.5654 141.272,42.3988 141.5,42C 139.249,41.2525 137.916,39.7525 137.5,37.5C 141.202,40.2669 144.702,39.9336 148,36.5C 148.72,34.8876 148.554,33.3876 147.5,32C 144.854,31.5026 142.187,31.3359 139.5,31.5C 141.607,30.5318 143.941,30.1984 146.5,30.5C 146.5,29.5 146.5,28.5 146.5,27.5C 150.594,26.7046 153.761,28.038 156,31.5C 156.399,31.2716 156.565,30.9382 156.5,30.5 Z"/></g>
<g><path style="opacity:0.412" fill="#eaeaea" d="M 202.5,28.5 C 202.586,29.4959 202.252,30.3292 201.5,31C 199.232,32.5519 196.732,33.3852 194,33.5C 190.285,32.9708 186.952,31.6375 184,29.5C 179.796,30.4262 175.629,31.4262 171.5,32.5C 171.5,35.5 171.5,38.5 171.5,41.5C 177.555,41.3379 183.555,41.8379 189.5,43C 193.11,43.4717 196.11,44.9717 198.5,47.5C 193.093,45.1513 187.426,43.8179 181.5,43.5C 178.038,42.5184 174.371,42.185 170.5,42.5C 170.5,41.5 170.5,40.5 170.5,39.5C 170.5,36.8333 170.5,34.1667 170.5,31.5C 175.437,30.0155 180.437,28.6821 185.5,27.5C 190.83,33.7671 196.496,34.1004 202.5,28.5 Z"/></g>
<g><path style="opacity:1" fill="#93bac3" d="M 79.5,23.5 C 80.7994,25.1534 80.4661,26.6534 78.5,28C 79.4491,28.6172 80.2825,28.4506 81,27.5C 81.4643,28.0944 81.631,28.7611 81.5,29.5C 78.0744,31.247 75.0744,30.747 72.5,28C 73.0944,27.5357 73.7611,27.369 74.5,27.5C 75.3864,28.7759 76.3864,28.7759 77.5,27.5C 78.1799,26.1401 78.8466,24.8068 79.5,23.5 Z"/></g>
<g><path style="opacity:1" fill="#26341e" d="M 142.5,24.5 C 145.625,23.5206 148.958,23.1872 152.5,23.5C 158.973,27.9315 160.139,33.5982 156,40.5C 155.329,41.2524 154.496,41.5858 153.5,41.5C 156.678,38.2217 157.678,34.5551 156.5,30.5C 156.141,28.629 155.141,27.129 153.5,26C 149.94,24.7633 146.273,24.2633 142.5,24.5 Z"/></g>
<g><path style="opacity:1" fill="#3d3d1d" d="M 142.5,24.5 C 136.698,27.7755 134.364,32.7755 135.5,39.5C 133.837,37.5615 133.171,35.2282 133.5,32.5C 135.227,28.4418 138.227,25.7751 142.5,24.5 Z"/></g>
<g><path style="opacity:0.496" fill="#f5f5f5" d="M -0.5,36.5 C -0.166667,36.5 0.166667,36.5 0.5,36.5C 0.18168,41.6591 0.848347,46.6591 2.5,51.5C 1.27187,50.6935 0.271873,49.6935 -0.5,48.5C -0.5,44.5 -0.5,40.5 -0.5,36.5 Z"/></g>
<g><path style="opacity:1" fill="#271c1b" d="M 139.5,31.5 C 142.187,31.3359 144.854,31.5026 147.5,32C 148.554,33.3876 148.72,34.8876 148,36.5C 144.702,39.9336 141.202,40.2669 137.5,37.5C 137.232,35.901 137.566,34.5676 138.5,33.5C 138.833,32.8333 139.167,32.1667 139.5,31.5 Z"/></g>
<g><path style="opacity:1" fill="#75514f" d="M 138.5,33.5 C 140.126,33.0617 141.793,32.7284 143.5,32.5C 147.662,32.6492 148.328,34.1492 145.5,37C 143.5,37.6667 141.5,37.6667 139.5,37C 138.663,35.9887 138.33,34.8221 138.5,33.5 Z"/></g>
<g><path style="opacity:1" fill="#1b1817" d="M 49.5,19.5 C 51.896,22.511 53.2294,26.011 53.5,30C 52.8165,34.9183 51.8165,39.7516 50.5,44.5C 48.7497,45.6594 47.7497,47.326 47.5,49.5C 44.7026,50.8082 44.8692,51.4749 48,51.5C 54.9162,50.7408 59.0828,47.0742 60.5,40.5C 58.0968,40.607 56.2635,39.607 55,37.5C 54.4029,34.3188 54.9029,31.3188 56.5,28.5C 58.1667,27.5 59.5,26.1667 60.5,24.5C 64.062,23.2277 67.062,21.2277 69.5,18.5C 69.5,20.1667 69.5,21.8333 69.5,23.5C 69.1667,23.5 68.8333,23.5 68.5,23.5C 68.44,22.9569 68.1067,22.6236 67.5,22.5C 65.9713,23.7629 64.3046,24.7629 62.5,25.5C 59.6934,27.9713 57.6934,30.9713 56.5,34.5C 56.2484,37.7467 57.7484,39.0801 61,38.5C 65.6667,37.8333 69.6667,35.8333 73,32.5C 71.5958,30.1678 70.7624,27.5011 70.5,24.5C 70.2155,22.5853 70.5489,20.9187 71.5,19.5C 73.3469,20.5729 75.3469,20.5729 77.5,19.5C 77.8333,19.5 78.1667,19.5 78.5,19.5C 77.5169,20.8503 76.1836,21.8503 74.5,22.5C 75.1272,23.4168 75.4606,24.4168 75.5,25.5C 74.2876,24.7701 73.2876,23.7701 72.5,22.5C 72.1667,22.8333 71.8333,23.1667 71.5,23.5C 72.5244,24.8518 73.5244,26.1851 74.5,27.5C 73.7611,27.369 73.0944,27.5357 72.5,28C 75.0744,30.747 78.0744,31.247 81.5,29.5C 79.9739,31.13 77.9739,31.9633 75.5,32C 73.9586,33.3712 72.6253,34.8712 71.5,36.5C 70.0047,36.4148 69.0047,37.0815 68.5,38.5C 70.6557,43.6692 68.989,46.6692 63.5,47.5C 63.0074,49.8056 62.6741,52.139 62.5,54.5C 72.542,49.1521 83.2087,45.4854 94.5,43.5C 94.5,43.8333 94.5,44.1667 94.5,44.5C 80.3235,47.2299 67.6568,53.2299 56.5,62.5C 57.6302,63.6223 58.2969,64.9557 58.5,66.5C 58.3284,67.4916 58.6618,68.1583 59.5,68.5C 58.7095,69.4013 57.7095,70.0679 56.5,70.5C 56.5,69.8333 56.1667,69.5 55.5,69.5C 55.5,69.1667 55.5,68.8333 55.5,68.5C 56.3764,68.6309 57.0431,68.2975 57.5,67.5C 56.0692,64.9613 54.4025,62.6279 52.5,60.5C 50.9689,59.0755 51.3023,58.4088 53.5,58.5C 55.0622,57.2153 56.3955,55.7153 57.5,54C 57.2196,52.605 56.5529,51.4383 55.5,50.5C 52.1581,51.8653 48.8248,52.8653 45.5,53.5C 40.8825,56.2658 35.8825,58.2658 30.5,59.5C 22.3195,61.0193 16.9862,65.6859 14.5,73.5C 17.967,73.5543 20.6337,72.0543 22.5,69C 25.172,67.4426 28.0053,66.276 31,65.5C 32.301,65.6387 33.1344,66.3054 33.5,67.5C 32.8333,67.5 32.5,67.8333 32.5,68.5C 28.1847,67.8843 24.3514,69.2176 21,72.5C 20.3333,73.8333 20.3333,75.1667 21,76.5C 27.3644,80.5594 26.8644,82.8927 19.5,83.5C 17.9253,79.3421 14.9253,76.5087 10.5,75C 13.7433,68.0878 18.7433,62.7545 25.5,59C 23.5273,58.5045 21.5273,58.3379 19.5,58.5C 37.725,59.9499 48.3917,51.6165 51.5,33.5C 52.6689,26.3375 50.0022,21.1708 43.5,18C 34.1143,15.5459 24.7809,12.8792 15.5,10C 13.3359,9.08566 11.3359,7.919 9.5,6.5C 7.64049,18.2698 5.30715,29.9365 2.5,41.5C 1.77321,45.7774 3.10654,49.1107 6.5,51.5C 9.9936,54.1768 13.9936,56.0101 18.5,57C 17.552,57.4828 16.552,57.6495 15.5,57.5C 10.783,56.3078 6.44964,54.3078 2.5,51.5C 0.848347,46.6591 0.18168,41.6591 0.5,36.5C 0.232191,34.901 0.565525,33.5676 1.5,32.5C 6.19315,23.0535 8.02649,13.0535 7,2.5C 10.0808,5.29307 13.5808,7.45974 17.5,9C 24.7455,11.3114 32.0789,13.3114 39.5,15C 43.004,16.2545 46.3374,17.7545 49.5,19.5 Z M 48.5,49.5 C 49.4408,47.9505 50.1075,46.2838 50.5,44.5C 51.8923,42.7274 53.059,40.7274 54,38.5C 55.0195,39.6872 56.1861,40.6872 57.5,41.5C 58.5827,42.365 58.7494,43.365 58,44.5C 55.7146,47.8922 52.548,49.5589 48.5,49.5 Z"/></g>
<g><path style="opacity:1" fill="#ae5860" d="M 68.5,23.5 C 68.8333,23.5 69.1667,23.5 69.5,23.5C 69.5,24.1667 69.8333,24.5 70.5,24.5C 70.7624,27.5011 71.5958,30.1678 73,32.5C 69.6667,35.8333 65.6667,37.8333 61,38.5C 57.7484,39.0801 56.2484,37.7467 56.5,34.5C 57.6934,30.9713 59.6934,27.9713 62.5,25.5C 62.4701,26.4972 62.9701,27.1639 64,27.5C 66.521,27.1778 68.021,25.8445 68.5,23.5 Z"/></g>
<g><path style="opacity:1" fill="#e1d36b" d="M 61.5,28.5 C 64.245,28.373 66.245,29.5397 67.5,32C 65.5975,32.1992 64.0975,33.0325 63,34.5C 62.1667,33.6667 61.3333,32.8333 60.5,32C 61.3366,30.9887 61.67,29.8221 61.5,28.5 Z"/></g>
<g><path style="opacity:0.878" fill="#fbfbfb" d="M 60.5,24.5 C 59.5,26.1667 58.1667,27.5 56.5,28.5C 56.8333,26.1667 58.1667,24.8333 60.5,24.5 Z"/></g>
<g><path style="opacity:1" fill="#f17285" d="M 68.5,23.5 C 68.021,25.8445 66.521,27.1778 64,27.5C 62.9701,27.1639 62.4701,26.4972 62.5,25.5C 64.3046,24.7629 65.9713,23.7629 67.5,22.5C 68.1067,22.6236 68.44,22.9569 68.5,23.5 Z"/></g>
<g><path style="opacity:0.568" fill="#e1e1e1" d="M 49.5,19.5 C 52.9122,21.8521 54.7455,25.1855 55,29.5C 55.3826,28.944 55.8826,28.6107 56.5,28.5C 54.9029,31.3188 54.4029,34.3188 55,37.5C 56.2635,39.607 58.0968,40.607 60.5,40.5C 59.0828,47.0742 54.9162,50.7408 48,51.5C 44.8692,51.4749 44.7026,50.8082 47.5,49.5C 47.8333,50.8333 48.1667,50.8333 48.5,49.5C 52.548,49.5589 55.7146,47.8922 58,44.5C 58.7494,43.365 58.5827,42.365 57.5,41.5C 56.1861,40.6872 55.0195,39.6872 54,38.5C 53.059,40.7274 51.8923,42.7274 50.5,44.5C 51.8165,39.7516 52.8165,34.9183 53.5,30C 53.2294,26.011 51.896,22.511 49.5,19.5 Z"/></g>
<g><path style="opacity:1" fill="#f8cc6c" d="M 34.5,19.5 C 39.2709,18.7418 43.2709,20.0751 46.5,23.5C 47.8333,27.8333 47.8333,32.1667 46.5,36.5C 36.9343,38.1175 28.601,42.1175 21.5,48.5C 19.0971,48.552 16.7638,48.2186 14.5,47.5C 6.30841,42.7447 5.64175,37.2447 12.5,31C 16.4862,30.5012 20.4862,30.3345 24.5,30.5C 25.5,30.5 26.5,30.5 27.5,30.5C 27.5,29.5 27.5,28.5 27.5,27.5C 29.8044,24.8587 32.1377,22.192 34.5,19.5 Z"/></g>
<g><path style="opacity:1" fill="#92598b" d="M 51.5,33.5 C 50.71,32.3915 50.21,31.0581 50,29.5C 49.6667,31.1667 49.3333,32.8333 49,34.5C 48.6667,31.1667 48.3333,27.8333 48,24.5C 47.6174,23.944 47.1174,23.6107 46.5,23.5C 43.2709,20.0751 39.2709,18.7418 34.5,19.5C 30.2011,18.2724 25.8678,17.1057 21.5,16C 17.8092,13.9808 14.1425,12.3142 10.5,11C 11.303,19.6333 9.4697,27.8 5,35.5C 4.0043,41.0799 4.5043,46.4132 6.5,51.5C 3.10654,49.1107 1.77321,45.7774 2.5,41.5C 5.30715,29.9365 7.64049,18.2698 9.5,6.5C 11.3359,7.919 13.3359,9.08566 15.5,10C 24.7809,12.8792 34.1143,15.5459 43.5,18C 50.0022,21.1708 52.6689,26.3375 51.5,33.5 Z"/></g>
<g><path style="opacity:1" fill="#1f2e21" d="M 135.5,39.5 C 136.833,40.1667 137.833,41.1667 138.5,42.5C 136.5,42.5 135.5,41.5 135.5,39.5 Z"/></g>
<g><path style="opacity:1" fill="#777273" d="M 170.5,39.5 C 170.5,40.5 170.5,41.5 170.5,42.5C 174.371,42.185 178.038,42.5184 181.5,43.5C 177.5,43.5 173.5,43.5 169.5,43.5C 169.232,41.901 169.566,40.5676 170.5,39.5 Z"/></g>
<g><path style="opacity:1" fill="#333a1d" d="M 153.5,41.5 C 152.942,42.7899 151.942,43.6232 150.5,44C 146.833,44.6667 143.167,44.6667 139.5,44C 138.944,43.6174 138.611,43.1174 138.5,42.5C 139.167,42.5 139.833,42.5 140.5,42.5C 144.838,43.8742 149.171,43.5409 153.5,41.5 Z"/></g>
<g><path style="opacity:0.473" fill="#ededed" d="M 50.5,44.5 C 50.1075,46.2838 49.4408,47.9505 48.5,49.5C 48.1667,49.5 47.8333,49.5 47.5,49.5C 47.7497,47.326 48.7497,45.6594 50.5,44.5 Z"/></g>
<g><path style="opacity:1" fill="#c7996d" d="M 94.5,44.5 C 105.38,43.9079 116.046,44.9079 126.5,47.5C 131.268,51.0912 135.935,54.9245 140.5,59C 135.215,57.5742 129.882,55.9075 124.5,54C 116.187,52.4268 107.854,52.2601 99.5,53.5C 101.262,57.7084 100.262,61.0417 96.5,63.5C 95.6618,63.1583 95.3284,62.4916 95.5,61.5C 98.1013,58.6629 98.1013,55.8295 95.5,53C 84.1299,49.5679 74.6299,52.4012 67,61.5C 66.4408,65.7156 68.2742,68.0489 72.5,68.5C 72.5,69.5 72.5,70.5 72.5,71.5C 72.6495,72.552 72.4828,73.552 72,74.5C 69.9715,71.9708 68.1381,69.3041 66.5,66.5C 63.911,65.795 61.2443,65.795 58.5,66.5C 58.2969,64.9557 57.6302,63.6223 56.5,62.5C 67.6568,53.2299 80.3235,47.2299 94.5,44.5 Z"/></g>
<g><path style="opacity:1" fill="#efd767" d="M 180.5,48.5 C 184.007,47.9935 187.174,48.6602 190,50.5C 191.033,53.2175 190.2,55.0508 187.5,56C 183.181,57.4595 180.181,56.1262 178.5,52C 178.978,50.6974 179.645,49.5307 180.5,48.5 Z"/></g>
<g><path style="opacity:1" fill="#285e58" d="M 169.5,44.5 C 178.401,44.0336 187.068,45.2003 195.5,48C 200.815,51.6168 200.815,55.2834 195.5,59C 185,63.7779 174,66.6113 162.5,67.5C 162.586,65.323 163.253,63.323 164.5,61.5C 167.848,60.7125 171.182,59.8792 174.5,59C 176.049,57.786 177.215,56.286 178,54.5C 182.002,58.1225 186.335,58.4558 191,55.5C 191.944,52.6529 191.444,50.1529 189.5,48C 186.167,47.3333 182.833,47.3333 179.5,48C 177.996,49.4907 177.163,51.324 177,53.5C 174.859,50.6792 172.025,49.3459 168.5,49.5C 168.629,47.7839 168.962,46.1172 169.5,44.5 Z"/></g>
<g><path style="opacity:1" fill="#241d14" d="M 181.5,49.5 C 183.665,49.1159 185.332,49.7826 186.5,51.5C 184.977,53.2825 182.977,53.9492 180.5,53.5C 180.433,52.0413 180.766,50.7079 181.5,49.5 Z"/></g>
<g><path style="opacity:0.348" fill="#e4e4e4" d="M 198.5,47.5 C 200.564,47.7619 201.897,48.9286 202.5,51C 206.724,51.8054 210.724,51.3054 214.5,49.5C 217.218,49.6946 219.551,50.6946 221.5,52.5C 221.5,54.5 221.5,56.5 221.5,58.5C 215.788,62.8819 210.788,62.0486 206.5,56C 204.735,55.3603 203.068,55.5269 201.5,56.5C 203.635,54.631 206.302,53.9644 209.5,54.5C 210.226,59.0367 212.893,60.87 217.5,60C 222.016,55.2454 221.016,52.0788 214.5,50.5C 207.863,55.3551 202.53,54.3551 198.5,47.5 Z"/></g>
<g><path style="opacity:0.472" fill="#e8e8e8" d="M 2.5,51.5 C 6.44964,54.3078 10.783,56.3078 15.5,57.5C 15.5,57.8333 15.5,58.1667 15.5,58.5C 12.3527,58.2634 9.35272,57.4301 6.5,56C 4.36451,55.1237 3.03118,53.6237 2.5,51.5 Z"/></g>
<g><path style="opacity:1" fill="#8e6b5d" d="M 95.5,61.5 C 94.7354,61.0766 93.9021,60.7432 93,60.5C 87.3596,61.6633 81.693,62.6633 76,63.5C 75.0546,63.9054 74.3879,64.572 74,65.5C 73.8091,67.7078 73.3091,69.7078 72.5,71.5C 72.5,70.5 72.5,69.5 72.5,68.5C 68.2742,68.0489 66.4408,65.7156 67,61.5C 74.6299,52.4012 84.1299,49.5679 95.5,53C 98.1013,55.8295 98.1013,58.6629 95.5,61.5 Z"/></g>
<g><path style="opacity:1" fill="#8f6c5e" d="M 126.5,47.5 C 138.617,50.2239 148.95,56.0572 157.5,65C 156.181,65.195 154.847,65.0283 153.5,64.5C 138.946,61.6808 124.28,59.6808 109.5,58.5C 109.19,69.257 110.024,79.9237 112,90.5C 115.108,93.4441 114.441,94.1108 110,92.5C 105.398,82.8513 100.898,73.1847 96.5,63.5C 100.262,61.0417 101.262,57.7084 99.5,53.5C 107.854,52.2601 116.187,52.4268 124.5,54C 129.882,55.9075 135.215,57.5742 140.5,59C 135.935,54.9245 131.268,51.0912 126.5,47.5 Z"/></g>
<g><path style="opacity:1" fill="#694657" d="M 34.5,19.5 C 32.1377,22.192 29.8044,24.8587 27.5,27.5C 26.7784,27.9175 26.2784,28.5842 26,29.5C 22.2564,28.374 18.423,28.2073 14.5,29C 18.0252,29.1787 21.3586,29.6787 24.5,30.5C 20.4862,30.3345 16.4862,30.5012 12.5,31C 5.64175,37.2447 6.30841,42.7447 14.5,47.5C 21.4704,52.4692 29.137,53.6359 37.5,51C 39.6355,50.1237 40.9688,48.6237 41.5,46.5C 44.2067,43.7534 45.8734,40.4201 46.5,36.5C 47.8333,32.1667 47.8333,27.8333 46.5,23.5C 47.1174,23.6107 47.6174,23.944 48,24.5C 48.3333,27.8333 48.6667,31.1667 49,34.5C 49.3333,32.8333 49.6667,31.1667 50,29.5C 50.21,31.0581 50.71,32.3915 51.5,33.5C 48.3917,51.6165 37.725,59.9499 19.5,58.5C 18.1667,58.5 16.8333,58.5 15.5,58.5C 15.5,58.1667 15.5,57.8333 15.5,57.5C 16.552,57.6495 17.552,57.4828 18.5,57C 13.9936,56.0101 9.9936,54.1768 6.5,51.5C 4.5043,46.4132 4.0043,41.0799 5,35.5C 9.4697,27.8 11.303,19.6333 10.5,11C 14.1425,12.3142 17.8092,13.9808 21.5,16C 25.8678,17.1057 30.2011,18.2724 34.5,19.5 Z"/></g>
<g><path style="opacity:1" fill="#3d3538" d="M 46.5,36.5 C 45.8734,40.4201 44.2067,43.7534 41.5,46.5C 40.9688,48.6237 39.6355,50.1237 37.5,51C 29.137,53.6359 21.4704,52.4692 14.5,47.5C 16.7638,48.2186 19.0971,48.552 21.5,48.5C 28.601,42.1175 36.9343,38.1175 46.5,36.5 Z"/></g>
<g><path style="opacity:1" fill="#f7f8f8" d="M 21.5,48.5 C 23.0936,48.0805 24.5936,47.4138 26,46.5C 30.8801,50.196 30.0468,51.3627 23.5,50C 22.5842,49.7216 21.9175,49.2216 21.5,48.5 Z"/></g>
<g><path style="opacity:1" fill="#edeeed" d="M 41.5,46.5 C 38.752,48.5725 35.752,50.2391 32.5,51.5C 30.7236,49.4622 29.0569,47.2955 27.5,45C 29.1667,44.1667 30.8333,43.3333 32.5,42.5C 33.8924,43.6053 35.059,44.9386 36,46.5C 36.2649,44.8374 35.7649,43.3374 34.5,42C 36.3889,39.8057 38.5556,39.3057 41,40.5C 41.8261,38.5946 42.9928,38.2612 44.5,39.5C 43.2122,41.7388 42.2122,44.0721 41.5,46.5 Z"/></g>
<g><path style="opacity:1" fill="#392a24" d="M 16.5,36.5 C 18.1992,36.3398 19.8659,36.5065 21.5,37C 22.9948,40.8406 21.6615,42.174 17.5,41C 15.4523,39.7741 15.119,38.2741 16.5,36.5 Z"/></g>
<g><path style="opacity:1" fill="#362623" d="M 37.5,26.5 C 42.6546,27.838 42.8213,29.838 38,32.5C 34.897,30.888 34.7304,28.888 37.5,26.5 Z"/></g>
<g><path style="opacity:1" fill="#2a133a" d="M 27.5,27.5 C 27.5,28.5 27.5,29.5 27.5,30.5C 26.5,30.5 25.5,30.5 24.5,30.5C 21.3586,29.6787 18.0252,29.1787 14.5,29C 18.423,28.2073 22.2564,28.374 26,29.5C 26.2784,28.5842 26.7784,27.9175 27.5,27.5 Z"/></g>
<g><path style="opacity:1" fill="#513b3a" d="M 45.5,53.5 C 45.5608,59.903 46.8942,65.903 49.5,71.5C 47.8185,73.0075 45.8185,74.0075 43.5,74.5C 38.7932,69.7954 34.4599,64.7954 30.5,59.5C 35.8825,58.2658 40.8825,56.2658 45.5,53.5 Z"/></g>
<g><path style="opacity:1" fill="#c9a355" d="M 53.5,58.5 C 51.3023,58.4088 50.9689,59.0755 52.5,60.5C 51.9569,60.56 51.6236,60.8933 51.5,61.5C 53.1274,63.7654 54.4608,66.0987 55.5,68.5C 55.5,68.8333 55.5,69.1667 55.5,69.5C 53.5,70.1667 51.5,70.8333 49.5,71.5C 46.8942,65.903 45.5608,59.903 45.5,53.5C 48.8248,52.8653 52.1581,51.8653 55.5,50.5C 56.5529,51.4383 57.2196,52.605 57.5,54C 56.3955,55.7153 55.0622,57.2153 53.5,58.5 Z"/></g>
<g><path style="opacity:0.657" fill="#d1d1d1" d="M 53.5,58.5 C 55.9288,58.415 57.9288,57.415 59.5,55.5C 59.8333,55.8333 60.1667,56.1667 60.5,56.5C 58.6132,58.0404 56.7799,59.7071 55,61.5C 53.9614,60.7562 53.4614,59.7562 53.5,58.5 Z"/></g>
<g><path style="opacity:1" fill="#c05f6b" d="M 212.5,52.5 C 217.123,51.4082 218.956,53.0748 218,57.5C 212.42,59.7516 210.587,58.0849 212.5,52.5 Z"/></g>
<g><path style="opacity:0.914" fill="#dcdcdc" d="M 15.5,58.5 C 16.8333,58.5 18.1667,58.5 19.5,58.5C 21.5273,58.3379 23.5273,58.5045 25.5,59C 18.7433,62.7545 13.7433,68.0878 10.5,75C 14.9253,76.5087 17.9253,79.3421 19.5,83.5C 16.3543,79.711 12.3543,77.0443 7.5,75.5C 8.32025,73.8888 9.65358,73.2222 11.5,73.5C 12.6864,67.4709 16.0198,62.9709 21.5,60C 19.2922,59.8091 17.2922,59.3091 15.5,58.5 Z"/></g>
<g><path style="opacity:0.463" fill="#fcfcfc" d="M 201.5,56.5 C 201.5,58.5 200.5,59.5 198.5,59.5C 199.167,58.1667 200.167,57.1667 201.5,56.5 Z"/></g>
<g><path style="opacity:1" fill="#d3ad5a" d="M 30.5,59.5 C 34.4599,64.7954 38.7932,69.7954 43.5,74.5C 42.063,75.7255 40.3964,76.7255 38.5,77.5C 36.295,74.4234 34.6284,71.0901 33.5,67.5C 33.1344,66.3054 32.301,65.6387 31,65.5C 28.0053,66.276 25.172,67.4426 22.5,69C 20.6337,72.0543 17.967,73.5543 14.5,73.5C 16.9862,65.6859 22.3195,61.0193 30.5,59.5 Z"/></g>
<g><path style="opacity:1" fill="#9ed9ef" d="M 150.5,65.5 C 151.209,66.404 152.209,66.7373 153.5,66.5C 153.5,70.8333 153.5,75.1667 153.5,79.5C 148.106,79.2675 142.773,78.6008 137.5,77.5C 136.577,76.6971 135.577,76.5304 134.5,77C 139.634,83.1353 145.134,88.9687 151,94.5C 151.498,97.4816 151.665,100.482 151.5,103.5C 151.806,106.385 151.473,109.052 150.5,111.5C 137.833,111.5 125.167,111.5 112.5,111.5C 112.768,109.901 112.434,108.568 111.5,107.5C 111.5,103.5 111.5,99.5 111.5,95.5C 118.926,95.8327 125.592,95.4994 131.5,94.5C 125.731,88.4558 119.398,83.1225 112.5,78.5C 111.545,72.5907 111.211,66.5907 111.5,60.5C 124.602,61.4061 137.602,63.0728 150.5,65.5 Z"/></g>
<g><path style="opacity:1" fill="#f6e16c" d="M 52.5,60.5 C 54.4025,62.6279 56.0692,64.9613 57.5,67.5C 57.0431,68.2975 56.3764,68.6309 55.5,68.5C 54.4608,66.0987 53.1274,63.7654 51.5,61.5C 51.6236,60.8933 51.9569,60.56 52.5,60.5 Z"/></g>
<g><path style="opacity:0.35" fill="#e4e3e3" d="M 198.5,59.5 C 196.572,61.4741 194.239,62.9741 191.5,64C 184.925,66.3103 178.258,68.3103 171.5,70C 174.39,71.0285 177.224,72.1952 180,73.5C 181.43,70.6046 183.263,70.9379 185.5,74.5C 184.504,74.5858 183.671,74.2524 183,73.5C 182.692,74.3081 182.192,74.9747 181.5,75.5C 177.016,73.7571 172.683,71.7571 168.5,69.5C 178.734,66.777 188.734,63.4437 198.5,59.5 Z"/></g>
<g><path style="opacity:1" fill="#99d1e5" d="M 175.5,112.5 C 174.833,113.167 174.167,113.833 173.5,114.5C 166.882,113.243 160.215,112.243 153.5,111.5C 153.5,109.833 153.5,108.167 153.5,106.5C 152.878,93.3493 153.878,80.3493 156.5,67.5C 165.045,69.9582 173.212,73.2915 181,77.5C 180.663,81.8632 179.83,86.1965 178.5,90.5C 174.398,88.3945 170.398,87.0612 166.5,86.5C 170.017,88.424 173.684,90.0906 177.5,91.5C 178.321,94.4465 178.321,97.4465 177.5,100.5C 173.521,99.5349 169.521,99.0349 165.5,99C 168.683,100.466 172.016,101.633 175.5,102.5C 176.192,105.77 176.192,109.103 175.5,112.5 Z"/></g>
<g><path style="opacity:1" fill="#a1def4" d="M 65.5,68.5 C 65.5,80.5 65.5,92.5 65.5,104.5C 65.0405,107.877 64.3739,111.211 63.5,114.5C 63.1667,114.5 62.8333,114.5 62.5,114.5C 62.6664,106.16 62.4997,97.8267 62,89.5C 57.8277,96.1237 53.9944,102.79 50.5,109.5C 50.477,107.073 49.977,104.74 49,102.5C 49.0125,108.818 49.1792,115.151 49.5,121.5C 46.0497,123.208 42.383,124.541 38.5,125.5C 37.2318,123.095 36.5651,120.428 36.5,117.5C 44.0454,102.91 52.8787,87.5766 63,71.5C 63.2387,70.212 62.7387,69.212 61.5,68.5C 62.8333,67.1667 64.1667,67.1667 65.5,68.5 Z"/></g>
<g><path style="opacity:1" fill="#533b38" d="M 65.5,68.5 C 67.6063,71.872 69.6063,75.372 71.5,79C 69.0715,87.5393 67.0715,96.0393 65.5,104.5C 65.5,92.5 65.5,80.5 65.5,68.5 Z"/></g>
<g><path style="opacity:0.43" fill="#e7e7e7" d="M 185.5,74.5 C 189.363,75.6936 192.363,78.027 194.5,81.5C 191.208,79.5419 188.208,77.2085 185.5,74.5 Z"/></g>
<g><path style="opacity:1" fill="#757379" d="M 137.5,77.5 C 142.773,78.6008 148.106,79.2675 153.5,79.5C 151.933,82.9667 150.099,86.3001 148,89.5C 144.664,85.3322 141.164,81.3322 137.5,77.5 Z"/></g>
<g><path style="opacity:0.508" fill="#e7e7e7" d="M 32.5,68.5 C 33.6829,71.7029 35.0163,74.8695 36.5,78C 33.2271,81.1111 29.5605,83.6111 25.5,85.5C 24.8333,84.1667 24.1667,84.1667 23.5,85.5C 21.6203,85.7709 20.287,85.1042 19.5,83.5C 26.8644,82.8927 27.3644,80.5594 21,76.5C 20.3333,75.1667 20.3333,73.8333 21,72.5C 24.3514,69.2176 28.1847,67.8843 32.5,68.5 Z M 26.5,83.5 C 26.6602,81.8008 26.4935,80.1341 26,78.5C 24.3651,77.2744 22.8651,75.941 21.5,74.5C 24.0442,70.8855 27.3775,69.5521 31.5,70.5C 32.7061,73.0794 34.0394,75.5794 35.5,78C 32.4721,79.8445 29.4721,81.6778 26.5,83.5 Z"/></g>
<g><path style="opacity:1" fill="#737076" d="M 112.5,78.5 C 119.398,83.1225 125.731,88.4558 131.5,94.5C 118.437,96.8336 112.104,91.5003 112.5,78.5 Z"/></g>
<g><path style="opacity:1" fill="#95cfe3" d="M 59.5,68.5 C 60.1667,68.5 60.8333,68.5 61.5,68.5C 62.7387,69.212 63.2387,70.212 63,71.5C 52.8787,87.5766 44.0454,102.91 36.5,117.5C 33.7876,106.11 32.9542,94.4436 34,82.5C 37.2557,80.1207 40.7557,78.1207 44.5,76.5C 46.0215,80.6761 46.8548,85.0095 47,89.5C 47.3333,84.5 47.6667,79.5 48,74.5C 50.6587,72.7535 53.492,71.4202 56.5,70.5C 57.7095,70.0679 58.7095,69.4013 59.5,68.5 Z"/></g>
<g><path style="opacity:1" fill="#99cde2" d="M 62.5,114.5 C 62.719,115.675 62.3857,116.675 61.5,117.5C 58.4707,118.84 55.4707,120.173 52.5,121.5C 51.8826,121.389 51.3826,121.056 51,120.5C 50.5014,116.848 50.3347,113.182 50.5,109.5C 53.9944,102.79 57.8277,96.1237 62,89.5C 62.4997,97.8267 62.6664,106.16 62.5,114.5 Z"/></g>
<g><path style="opacity:1" fill="#97d1e6" d="M 195.5,137.5 C 193.784,137.629 192.117,137.962 190.5,138.5C 190.232,131.317 189.565,124.317 188.5,117.5C 188.5,117.167 188.5,116.833 188.5,116.5C 188.309,108.813 188.142,101.147 188,93.5C 190.779,96.2969 193.946,98.1302 197.5,99C 194.264,96.1319 190.764,93.6319 187,91.5C 186.5,99.8267 186.334,108.16 186.5,116.5C 182.878,116.678 179.544,116.011 176.5,114.5C 176.5,114.167 176.5,113.833 176.5,113.5C 178.157,100.875 180.824,88.5413 184.5,76.5C 191.468,81.577 197.968,87.2436 204,93.5C 204.717,99.2247 204.384,104.891 203,110.5C 201.667,111.833 200.333,113.167 199,114.5C 198.667,112.833 198.333,111.167 198,109.5C 197.282,108.549 196.449,108.383 195.5,109C 197.432,117.42 199.099,125.92 200.5,134.5C 199.053,135.935 197.386,136.935 195.5,137.5 Z"/></g>
<g><path style="opacity:1" fill="#573e3c" d="M 188.5,116.5 C 187.833,116.5 187.167,116.5 186.5,116.5C 186.334,108.16 186.5,99.8267 187,91.5C 190.764,93.6319 194.264,96.1319 197.5,99C 193.946,98.1302 190.779,96.2969 188,93.5C 188.142,101.147 188.309,108.813 188.5,116.5 Z"/></g>
<g><path style="opacity:1" fill="#75747a" d="M 152.5,106.5 C 152.833,106.5 153.167,106.5 153.5,106.5C 153.5,108.167 153.5,109.833 153.5,111.5C 160.215,112.243 166.882,113.243 173.5,114.5C 171.655,119.186 169.155,123.52 166,127.5C 158.73,126.279 151.563,124.613 144.5,122.5C 146.856,119.978 149.023,117.312 151,114.5C 152.252,111.986 152.752,109.32 152.5,106.5 Z"/></g>
<g><path style="opacity:1" fill="#77757b" d="M 176.5,114.5 C 179.544,116.011 182.878,116.678 186.5,116.5C 183.749,120.757 180.416,124.59 176.5,128C 173.773,128.818 171.106,128.652 168.5,127.5C 171.228,123.127 173.895,118.794 176.5,114.5 Z"/></g>
<g><path style="opacity:1" fill="#78767c" d="M 62.5,114.5 C 62.8333,114.5 63.1667,114.5 63.5,114.5C 63.6079,116.783 64.4412,118.783 66,120.5C 68.4003,122.729 70.567,125.063 72.5,127.5C 69.6137,129.846 66.2803,130.68 62.5,130C 58.9753,127.302 55.6419,124.469 52.5,121.5C 55.4707,120.173 58.4707,118.84 61.5,117.5C 62.3857,116.675 62.719,115.675 62.5,114.5 Z"/></g>
<g><path style="opacity:1" fill="#553e3c" d="M 187.5,118.5 C 187.668,125.564 188.668,132.23 190.5,138.5C 187.713,139.477 184.713,139.81 181.5,139.5C 181.334,134.489 181.501,129.489 182,124.5C 184.068,122.604 185.901,120.604 187.5,118.5 Z"/></g>
<g><path style="opacity:1" fill="#906c5e" d="M 168.5,136.5 C 167.359,135.661 166.026,134.994 164.5,134.5C 163,136.833 161.5,139.167 160,141.5C 156.4,138.646 153.4,139.313 151,143.5C 150.056,146.347 150.556,148.847 152.5,151C 147.549,156.793 141.882,161.627 135.5,165.5C 128.75,161.275 129.083,158.108 136.5,156C 129.93,153.879 129.263,150.879 134.5,147C 131.774,146.818 129.107,146.318 126.5,145.5C 126.833,144.833 127.167,144.167 127.5,143.5C 124.914,142.52 122.247,142.187 119.5,142.5C 120.777,139.447 122.444,136.614 124.5,134C 119.339,132.203 114.005,131.203 108.5,131C 109.826,127.797 109.159,124.964 106.5,122.5C 107.167,122.167 107.833,121.833 108.5,121.5C 120.707,123.487 133.04,124.653 145.5,125C 154.272,126.388 162.938,128.221 171.5,130.5C 170.864,132.78 169.864,134.78 168.5,136.5 Z"/></g>
<g><path style="opacity:1" fill="#141212" d="M 153.5,64.5 C 152.791,65.404 151.791,65.7373 150.5,65.5C 137.602,63.0728 124.602,61.4061 111.5,60.5C 111.211,66.5907 111.545,72.5907 112.5,78.5C 112.104,91.5003 118.437,96.8336 131.5,94.5C 125.592,95.4994 118.926,95.8327 111.5,95.5C 111.5,99.5 111.5,103.5 111.5,107.5C 111.5,109.167 111.5,110.833 111.5,112.5C 111.5,115.5 111.5,118.5 111.5,121.5C 121.825,122.3 132.159,122.466 142.5,122C 145.051,118.956 147.384,115.789 149.5,112.5C 150.167,112.5 150.5,112.167 150.5,111.5C 151.473,109.052 151.806,106.385 151.5,103.5C 152.404,104.209 152.737,105.209 152.5,106.5C 152.752,109.32 152.252,111.986 151,114.5C 149.023,117.312 146.856,119.978 144.5,122.5C 151.563,124.613 158.73,126.279 166,127.5C 169.155,123.52 171.655,119.186 173.5,114.5C 174.167,113.833 174.833,113.167 175.5,112.5C 175.5,113.167 175.833,113.5 176.5,113.5C 176.5,113.833 176.5,114.167 176.5,114.5C 173.895,118.794 171.228,123.127 168.5,127.5C 171.106,128.652 173.773,128.818 176.5,128C 180.416,124.59 183.749,120.757 186.5,116.5C 187.167,116.5 187.833,116.5 188.5,116.5C 188.5,116.833 188.5,117.167 188.5,117.5C 187.833,117.5 187.5,117.833 187.5,118.5C 185.901,120.604 184.068,122.604 182,124.5C 181.501,129.489 181.334,134.489 181.5,139.5C 184.713,139.81 187.713,139.477 190.5,138.5C 192.117,137.962 193.784,137.629 195.5,137.5C 196.492,137.328 197.158,137.662 197.5,138.5C 191.97,140.125 186.303,140.791 180.5,140.5C 180.766,136.395 180.266,132.395 179,128.5C 177.509,130.004 175.676,130.837 173.5,131C 169.437,138.976 164.771,146.476 159.5,153.5C 158.833,154.833 157.833,155.833 156.5,156.5C 153.911,157.419 151.911,159.086 150.5,161.5C 148.596,161.738 147.262,162.738 146.5,164.5C 143.366,166.293 140.033,167.626 136.5,168.5C 136.5,168.167 136.5,167.833 136.5,167.5C 150.446,160.554 161.113,150.22 168.5,136.5C 169.864,134.78 170.864,132.78 171.5,130.5C 162.938,128.221 154.272,126.388 145.5,125C 133.04,124.653 120.707,123.487 108.5,121.5C 107.833,121.833 107.167,122.167 106.5,122.5C 109.159,124.964 109.826,127.797 108.5,131C 114.005,131.203 119.339,132.203 124.5,134C 122.444,136.614 120.777,139.447 119.5,142.5C 120.909,144.417 122.576,146.25 124.5,148C 117.07,150.601 109.736,153.434 102.5,156.5C 100.278,156.822 98.4443,156.155 97,154.5C 95.8867,156.329 94.3867,157.163 92.5,157C 90.3144,153.795 88.8144,150.295 88,146.5C 83.3238,141.121 79.1571,135.455 75.5,129.5C 74.2223,129.218 73.2223,128.551 72.5,127.5C 70.567,125.063 68.4003,122.729 66,120.5C 64.4412,118.783 63.6079,116.783 63.5,114.5C 64.3739,111.211 65.0405,107.877 65.5,104.5C 67.0715,96.0393 69.0715,87.5393 71.5,79C 69.6063,75.372 67.6063,71.872 65.5,68.5C 64.1667,67.1667 62.8333,67.1667 61.5,68.5C 60.8333,68.5 60.1667,68.5 59.5,68.5C 58.6618,68.1583 58.3284,67.4916 58.5,66.5C 61.2443,65.795 63.911,65.795 66.5,66.5C 68.1381,69.3041 69.9715,71.9708 72,74.5C 72.4828,73.552 72.6495,72.552 72.5,71.5C 73.3091,69.7078 73.8091,67.7078 74,65.5C 74.3879,64.572 75.0546,63.9054 76,63.5C 81.693,62.6633 87.3596,61.6633 93,60.5C 93.9021,60.7432 94.7354,61.0766 95.5,61.5C 95.3284,62.4916 95.6618,63.1583 96.5,63.5C 100.898,73.1847 105.398,82.8513 110,92.5C 114.441,94.1108 115.108,93.4441 112,90.5C 110.024,79.9237 109.19,69.257 109.5,58.5C 124.28,59.6808 138.946,61.6808 153.5,64.5 Z"/></g>
<g><path style="opacity:1" fill="#ccc5c5" d="M 107.5,138.5 C 105.883,137.962 104.216,137.629 102.5,137.5C 102.229,139.38 102.896,140.713 104.5,141.5C 106.43,145.1 109.097,148.1 112.5,150.5C 108.534,154.089 103.867,155.256 98.5,154C 97.7865,152.657 98.1198,151.324 99.5,150C 98.2107,148.198 96.5441,147.031 94.5,146.5C 93.3747,144.871 92.0414,143.371 90.5,142C 89.2575,141.689 88.2575,142.189 87.5,143.5C 86.8933,143.376 86.56,143.043 86.5,142.5C 87.0431,142.44 87.3764,142.107 87.5,141.5C 83.8548,137.543 81.8548,132.876 81.5,127.5C 90.7454,127.637 99.0787,130.471 106.5,136C 107.252,136.671 107.586,137.504 107.5,138.5 Z"/></g>
<g><path style="opacity:1" fill="#94c0cf" d="M 93.5,120.5 C 99.4476,119.528 103.948,121.528 107,126.5C 107.781,127.944 107.614,129.277 106.5,130.5C 101.65,127.575 96.6497,124.908 91.5,122.5C 92.2427,121.818 92.9094,121.151 93.5,120.5 Z"/></g>
<g><path style="opacity:1" fill="#f2f2f2" d="M 111.5,135.5 C 112.585,137.587 114.251,138.92 116.5,139.5C 116.953,140.458 117.619,141.292 118.5,142C 114.822,141.164 111.156,139.998 107.5,138.5C 107.586,137.504 107.252,136.671 106.5,136C 99.0787,130.471 90.7454,127.637 81.5,127.5C 81.8548,132.876 83.8548,137.543 87.5,141.5C 87.3764,142.107 87.0431,142.44 86.5,142.5C 81.7246,136.783 78.3912,130.283 76.5,123C 81.9736,122.366 87.307,123.032 92.5,125C 99.1776,128.003 105.511,131.503 111.5,135.5 Z"/></g>
<g><path style="opacity:1" fill="#78787f" d="M 82.5,110.5 C 83.5481,114.264 84.8815,117.931 86.5,121.5C 82.5662,120.64 78.5662,120.307 74.5,120.5C 75.167,122.819 75.3336,125.153 75,127.5C 71.3527,124.175 68.186,120.508 65.5,116.5C 71.7175,115.652 77.3842,113.652 82.5,110.5 Z"/></g>
<g><path style="opacity:1" fill="#737177" d="M 111.5,112.5 C 124.167,112.5 136.833,112.5 149.5,112.5C 147.384,115.789 145.051,118.956 142.5,122C 132.159,122.466 121.825,122.3 111.5,121.5C 111.5,118.5 111.5,115.5 111.5,112.5 Z"/></g>
<g><path style="opacity:1" fill="#987364" d="M 93.5,111.5 C 95.5358,113.206 96.5358,115.539 96.5,118.5C 95.1779,118.33 94.0113,118.663 93,119.5C 92.5702,116.808 92.7369,114.141 93.5,111.5 Z"/></g>
<g><path style="opacity:1" fill="#c2b9b9" d="M 111.5,107.5 C 112.434,108.568 112.768,109.901 112.5,111.5C 125.167,111.5 137.833,111.5 150.5,111.5C 150.5,112.167 150.167,112.5 149.5,112.5C 136.833,112.5 124.167,112.5 111.5,112.5C 111.5,110.833 111.5,109.167 111.5,107.5 Z"/></g>
<g><path style="opacity:1" fill="#737076" d="M 109.5,105.5 C 110.824,110.234 110.824,115.067 109.5,120C 101.207,122.087 96.8735,118.92 96.5,110.5C 100.088,109.352 103.755,108.352 107.5,107.5C 108.713,107.253 109.38,106.586 109.5,105.5 Z"/></g>
<g><path style="opacity:1" fill="#e1e7e6" d="M 86.5,90.5 C 85.8013,97.2947 84.4679,103.961 82.5,110.5C 77.3842,113.652 71.7175,115.652 65.5,116.5C 64.4937,116.062 64.4937,115.396 65.5,114.5C 70.7966,114.259 75.7966,112.926 80.5,110.5C 82.2123,103.629 84.2123,96.9625 86.5,90.5 Z"/></g>
<g><path style="opacity:1" fill="#523a38" d="M 86.5,84.5 C 87.038,86.1172 87.3713,87.7839 87.5,89.5C 88.4879,95.797 90.4879,101.797 93.5,107.5C 91.8661,111.702 90.6995,116.035 90,120.5C 88.9887,121.337 87.8221,121.67 86.5,121.5C 84.8815,117.931 83.5481,114.264 82.5,110.5C 84.4679,103.961 85.8013,97.2947 86.5,90.5C 86.1307,88.5588 85.464,86.7255 84.5,85C 85.0944,84.5357 85.7611,84.369 86.5,84.5 Z"/></g>
<g><path style="opacity:1" fill="#9bdbf2" d="M 109.5,105.5 C 109.38,106.586 108.713,107.253 107.5,107.5C 103.755,108.352 100.088,109.352 96.5,110.5C 93.6772,103.346 90.6772,96.3462 87.5,89.5C 87.3713,87.7839 87.038,86.1172 86.5,84.5C 85.7611,84.369 85.0944,84.5357 84.5,85C 85.464,86.7255 86.1307,88.5588 86.5,90.5C 84.2123,96.9625 82.2123,103.629 80.5,110.5C 75.7966,112.926 70.7966,114.259 65.5,114.5C 68.3415,97.7895 72.0082,81.2895 76.5,65C 81.3429,64.2206 86.1763,63.3873 91,62.5C 92.1074,62.5852 93.1074,62.9186 94,63.5C 99.2724,73.7112 104.272,84.0445 109,94.5C 109.499,98.1516 109.665,101.818 109.5,105.5 Z"/></g>
<g><path style="opacity:1" fill="#502f2a" d="M 86.5,84.5 C 89.9495,82.5707 93.6162,81.904 97.5,82.5C 93.9725,83.9213 90.3058,84.5879 86.5,84.5 Z"/></g>
<g><path style="opacity:1" fill="#e0eded" d="M 188.5,117.5 C 189.565,124.317 190.232,131.317 190.5,138.5C 188.668,132.23 187.668,125.564 187.5,118.5C 187.5,117.833 187.833,117.5 188.5,117.5 Z"/></g>
<g><path style="opacity:1" fill="#8f6c5e" d="M 75.5,129.5 C 79.1571,135.455 83.3238,141.121 88,146.5C 88.8144,150.295 90.3144,153.795 92.5,157C 94.3867,157.163 95.8867,156.329 97,154.5C 98.4443,156.155 100.278,156.822 102.5,156.5C 103.249,160.082 104.582,163.416 106.5,166.5C 107.333,165.5 108.167,164.5 109,163.5C 111.237,165.647 113.237,167.98 115,170.5C 115.192,168.423 115.692,166.423 116.5,164.5C 118.67,166.086 121.004,167.42 123.5,168.5C 124.167,167.167 124.833,165.833 125.5,164.5C 127.527,165.513 129.527,166.513 131.5,167.5C 112.681,176.247 93.6809,176.581 74.5,168.5C 79.0126,168.105 80.5126,165.771 79,161.5C 75.9015,157.034 71.7348,155.534 66.5,157C 65.1068,158.171 64.2735,159.671 64,161.5C 61.5608,159.502 59.0608,159.169 56.5,160.5C 55.6618,160.158 55.3284,159.492 55.5,158.5C 61.1132,159.921 63.2799,157.921 62,152.5C 59.4213,149.901 56.9213,149.901 54.5,152.5C 51.4734,148.958 48.8068,145.124 46.5,141C 44.5999,141.213 42.9333,142.047 41.5,143.5C 40.4749,142.626 39.8082,141.459 39.5,140C 40.3091,138.216 40.9757,136.383 41.5,134.5C 40.772,132.845 40.6053,131.179 41,129.5C 44.6437,132.322 48.6437,134.322 53,135.5C 60.6217,133.555 68.1217,131.555 75.5,129.5 Z"/></g>
<g><path style="opacity:1" fill="#cf6370" d="M 116.5,139.5 C 115.415,137.413 113.749,136.08 111.5,135.5C 112.514,134.235 114.014,133.569 116,133.5C 117.5,133.667 119,133.833 120.5,134C 121.451,134.718 121.617,135.551 121,136.5C 120.092,138.439 118.592,139.439 116.5,139.5 Z"/></g>
<g><path style="opacity:1" fill="#191b1b" d="M 111.5,135.5 C 113.749,136.08 115.415,137.413 116.5,139.5C 114.251,138.92 112.585,137.587 111.5,135.5 Z"/></g>
<g><path style="opacity:1" fill="#191717" d="M 33.5,67.5 C 34.6284,71.0901 36.295,74.4234 38.5,77.5C 40.3964,76.7255 42.063,75.7255 43.5,74.5C 45.8185,74.0075 47.8185,73.0075 49.5,71.5C 51.5,70.8333 53.5,70.1667 55.5,69.5C 56.1667,69.5 56.5,69.8333 56.5,70.5C 53.492,71.4202 50.6587,72.7535 48,74.5C 47.6667,79.5 47.3333,84.5 47,89.5C 46.8548,85.0095 46.0215,80.6761 44.5,76.5C 40.7557,78.1207 37.2557,80.1207 34,82.5C 32.9542,94.4436 33.7876,106.11 36.5,117.5C 36.5651,120.428 37.2318,123.095 38.5,125.5C 41.9887,128.137 45.6553,130.637 49.5,133C 53.2974,133.59 56.964,133.09 60.5,131.5C 56.8391,128.173 53.1724,124.84 49.5,121.5C 49.1792,115.151 49.0125,108.818 49,102.5C 49.977,104.74 50.477,107.073 50.5,109.5C 50.3347,113.182 50.5014,116.848 51,120.5C 51.3826,121.056 51.8826,121.389 52.5,121.5C 55.6419,124.469 58.9753,127.302 62.5,130C 66.2803,130.68 69.6137,129.846 72.5,127.5C 73.2223,128.551 74.2223,129.218 75.5,129.5C 68.1217,131.555 60.6217,133.555 53,135.5C 48.6437,134.322 44.6437,132.322 41,129.5C 40.6053,131.179 40.772,132.845 41.5,134.5C 40.9757,136.383 40.3091,138.216 39.5,140C 39.8082,141.459 40.4749,142.626 41.5,143.5C 42.412,145.595 43.5787,147.595 45,149.5C 48.0724,153.078 51.5724,156.078 55.5,158.5C 55.3284,159.492 55.6618,160.158 56.5,160.5C 74.5147,174.208 94.8481,178.708 117.5,174C 123.241,173.032 128.575,171.198 133.5,168.5C 134.5,168.5 135.5,168.5 136.5,168.5C 135.942,169.79 134.942,170.623 133.5,171C 111.364,180.166 89.5307,179.666 68,169.5C 64.6935,171.032 61.1935,172.199 57.5,173C 57.0426,173.414 56.7093,173.914 56.5,174.5C 57.5,175.833 58.5,177.167 59.5,178.5C 55.9281,179.875 52.5948,181.541 49.5,183.5C 43.0771,189.707 36.4104,190.04 29.5,184.5C 26.4772,178.829 26.9772,173.495 31,168.5C 31.6103,165.173 32.1103,161.839 32.5,158.5C 35.5739,158.873 38.5739,159.539 41.5,160.5C 41.33,159.178 41.6634,158.011 42.5,157C 39.8443,154.314 39.8443,151.647 42.5,149C 41.2115,146.259 39.5448,143.759 37.5,141.5C 35.9368,143.402 33.9368,144.402 31.5,144.5C 25.4217,143.314 19.4217,141.814 13.5,140C 8.045,127.38 6.21166,114.213 8,100.5C 13.7308,95.2608 19.5641,90.2608 25.5,85.5C 29.5605,83.6111 33.2271,81.1111 36.5,78C 35.0163,74.8695 33.6829,71.7029 32.5,68.5C 32.5,67.8333 32.8333,67.5 33.5,67.5 Z M 45.5,163.5 C 45.0472,162.542 44.3805,161.708 43.5,161C 45.0625,158.885 47.0625,157.885 49.5,158C 52.0048,160.573 51.5048,162.74 48,164.5C 47.3292,163.748 46.4959,163.414 45.5,163.5 Z M 56.5,163.5 C 60.4786,166.251 60.1453,168.584 55.5,170.5C 54.1401,169.82 52.8068,169.153 51.5,168.5C 52.1667,165.833 53.8333,164.167 56.5,163.5 Z"/></g>
<g><path style="opacity:1" fill="#76757c" d="M 26.5,131.5 C 31.0903,132.03 35.4237,133.364 39.5,135.5C 37.1645,138.176 34.8311,140.842 32.5,143.5C 26.9602,142.122 21.6269,140.455 16.5,138.5C 19.4751,135.677 22.8084,133.344 26.5,131.5 Z"/></g>
<g><path style="opacity:1" fill="#78767c" d="M 49.5,121.5 C 53.1724,124.84 56.8391,128.173 60.5,131.5C 56.964,133.09 53.2974,133.59 49.5,133C 45.6553,130.637 41.9887,128.137 38.5,125.5C 42.383,124.541 46.0497,123.208 49.5,121.5 Z"/></g>
<g><path style="opacity:1" fill="#533c3a" d="M 24.5,117.5 C 28.1756,118.754 31.6756,120.421 35,122.5C 37.5627,126.393 39.0627,130.726 39.5,135.5C 35.4237,133.364 31.0903,132.03 26.5,131.5C 25.51,126.919 24.8434,122.253 24.5,117.5 Z"/></g>
<g><path style="opacity:1" fill="#747278" d="M 32.5,107.5 C 33.3875,110.483 34.0542,113.65 34.5,117C 34.1667,117.833 33.8333,118.667 33.5,119.5C 30.0748,117.787 26.7415,116.121 23.5,114.5C 27.9529,113.801 30.9529,111.468 32.5,107.5 Z"/></g>
<g><path style="opacity:1" fill="#a0ddf2" d="M 32.5,107.5 C 30.9529,111.468 27.9529,113.801 23.5,114.5C 21.3509,113.252 19.3509,111.752 17.5,110C 19.5,108.333 21.5,106.667 23.5,105C 20.1992,105.824 17.1992,107.49 14.5,110C 17.7342,112.748 21.0676,115.248 24.5,117.5C 24.8434,122.253 25.51,126.919 26.5,131.5C 22.8084,133.344 19.4751,135.677 16.5,138.5C 15.5,138.5 14.5,138.5 13.5,138.5C 11.811,130.888 10.311,123.221 9,115.5C 8.33333,110.833 8.33333,106.167 9,101.5C 15.7916,95.1075 23.1249,89.4408 31,84.5C 31.5952,92.1652 32.0952,99.8318 32.5,107.5 Z"/></g>
<g><path style="opacity:0.573" fill="#e5e5e5" d="M 194.5,81.5 C 199.072,84.5633 203.239,88.23 207,92.5C 207.739,98.5578 207.406,104.558 206,110.5C 203.757,113.075 201.923,115.908 200.5,119C 201.773,125.468 202.773,131.968 203.5,138.5C 198.769,139.354 194.102,140.52 189.5,142C 186.183,142.498 182.85,142.665 179.5,142.5C 178.92,138.858 178.42,135.191 178,131.5C 176.491,132.09 174.991,132.756 173.5,133.5C 170.288,141.283 165.621,147.95 159.5,153.5C 164.771,146.476 169.437,138.976 173.5,131C 175.676,130.837 177.509,130.004 179,128.5C 180.266,132.395 180.766,136.395 180.5,140.5C 186.303,140.791 191.97,140.125 197.5,138.5C 198.708,137.766 200.041,137.433 201.5,137.5C 201.307,130.515 200.307,123.682 198.5,117C 200.712,114.957 202.712,112.791 204.5,110.5C 205.746,104.876 206.246,99.2091 206,93.5C 201.963,89.631 198.13,85.631 194.5,81.5 Z"/></g>
<g><path style="opacity:1" fill="#c89b6e" d="M 54.5,152.5 C 54.5172,154.565 54.8505,156.565 55.5,158.5C 51.5724,156.078 48.0724,153.078 45,149.5C 43.5787,147.595 42.412,145.595 41.5,143.5C 42.9333,142.047 44.5999,141.213 46.5,141C 48.8068,145.124 51.4734,148.958 54.5,152.5 Z"/></g>
<g><path style="opacity:1" fill="#d36572" d="M 104.5,141.5 C 104.47,140.503 104.97,139.836 106,139.5C 111.85,140.943 117.017,143.609 121.5,147.5C 118.216,148.657 114.882,148.824 111.5,148C 109.25,145.578 106.917,143.411 104.5,141.5 Z"/></g>
<g><path style="opacity:0.437" fill="#e5e5e5" d="M 23.5,85.5 C 24.1667,85.5 24.8333,85.5 25.5,85.5C 19.5641,90.2608 13.7308,95.2608 8,100.5C 6.21166,114.213 8.045,127.38 13.5,140C 19.4217,141.814 25.4217,143.314 31.5,144.5C 33.9368,144.402 35.9368,143.402 37.5,141.5C 39.5448,143.759 41.2115,146.259 42.5,149C 39.8443,151.647 39.8443,154.314 42.5,157C 41.6634,158.011 41.33,159.178 41.5,160.5C 38.5739,159.539 35.5739,158.873 32.5,158.5C 32.1103,161.839 31.6103,165.173 31,168.5C 26.9772,173.495 26.4772,178.829 29.5,184.5C 27.1484,182.856 25.8151,180.523 25.5,177.5C 26.1884,173.791 27.6884,170.457 30,167.5C 30.6667,163.5 31.3333,159.5 32,155.5C 34.7905,156.562 37.4572,157.895 40,159.5C 40.4188,157.32 40.2521,155.154 39.5,153C 39.4393,151.289 40.1059,149.956 41.5,149C 40.1196,147.075 38.6196,145.241 37,143.5C 35.9384,144.899 34.605,145.899 33,146.5C 25.882,144.805 18.882,142.805 12,140.5C 7.05552,127.611 5.05552,114.278 6,100.5C 11.7308,95.2608 17.5641,90.2608 23.5,85.5 Z"/></g>
<g><path style="opacity:1" fill="#ce626f" d="M 94.5,146.5 C 95.2899,147.794 96.2899,148.961 97.5,150C 96.3601,151.973 95.0267,153.807 93.5,155.5C 90.6032,151.979 89.4366,147.979 90,143.5C 91.129,145.141 92.629,146.141 94.5,146.5 Z"/></g>
<g><path style="opacity:1" fill="#fae24a" d="M 119.5,142.5 C 122.247,142.187 124.914,142.52 127.5,143.5C 127.167,144.167 126.833,144.833 126.5,145.5C 129.107,146.318 131.774,146.818 134.5,147C 129.263,150.879 129.93,153.879 136.5,156C 129.083,158.108 128.75,161.275 135.5,165.5C 135.833,166.167 136.167,166.833 136.5,167.5C 136.5,167.833 136.5,168.167 136.5,168.5C 135.5,168.5 134.5,168.5 133.5,168.5C 132.833,168.167 132.167,167.833 131.5,167.5C 129.527,166.513 127.527,165.513 125.5,164.5C 124.833,165.833 124.167,167.167 123.5,168.5C 121.004,167.42 118.67,166.086 116.5,164.5C 115.692,166.423 115.192,168.423 115,170.5C 113.237,167.98 111.237,165.647 109,163.5C 108.167,164.5 107.333,165.5 106.5,166.5C 104.582,163.416 103.249,160.082 102.5,156.5C 109.736,153.434 117.07,150.601 124.5,148C 122.576,146.25 120.909,144.417 119.5,142.5 Z"/></g>
<g><path style="opacity:1" fill="#7f7d84" d="M 42.5,151.5 C 45.5,151.167 46.8333,152.5 46.5,155.5C 43.5,155.833 42.1667,154.5 42.5,151.5 Z"/></g>
<g><path style="opacity:1" fill="#151313" d="M 55.5,158.5 C 54.8505,156.565 54.5172,154.565 54.5,152.5C 56.9213,149.901 59.4213,149.901 62,152.5C 63.2799,157.921 61.1132,159.921 55.5,158.5 Z"/></g>
<g><path style="opacity:1" fill="#c89b6e" d="M 168.5,136.5 C 161.113,150.22 150.446,160.554 136.5,167.5C 136.167,166.833 135.833,166.167 135.5,165.5C 141.882,161.627 147.549,156.793 152.5,151C 150.556,148.847 150.056,146.347 151,143.5C 153.4,139.313 156.4,138.646 160,141.5C 161.5,139.167 163,136.833 164.5,134.5C 166.026,134.994 167.359,135.661 168.5,136.5 Z"/></g>
<g><path style="opacity:1" fill="#8b695d" d="M 154.5,141.5 C 155.833,141.5 157.167,141.5 158.5,141.5C 159.227,145.224 157.894,147.891 154.5,149.5C 151.937,146.92 151.937,144.253 154.5,141.5 Z"/></g>
<g><path style="opacity:1" fill="#7d7a81" d="M 56.5,152.5 C 60.1612,152.35 61.1612,153.85 59.5,157C 58.5509,157.617 57.7175,157.451 57,156.5C 56.51,155.207 56.3433,153.873 56.5,152.5 Z"/></g>
<g><path style="opacity:0.482" fill="#ededed" d="M 156.5,156.5 C 155.089,158.914 153.089,160.581 150.5,161.5C 151.911,159.086 153.911,157.419 156.5,156.5 Z"/></g>
<g><path style="opacity:0.427" fill="#efefef" d="M 56.5,163.5 C 53.8333,164.167 52.1667,165.833 51.5,168.5C 50.9033,168.265 50.5699,167.765 50.5,167C 51.6254,165.037 52.9587,163.204 54.5,161.5C 55.5223,161.855 56.189,162.522 56.5,163.5 Z"/></g>
<g><path style="opacity:0.408" fill="#ededed" d="M 150.5,161.5 C 149.738,163.262 148.404,164.262 146.5,164.5C 147.262,162.738 148.596,161.738 150.5,161.5 Z"/></g>
<g><path style="opacity:0.404" fill="#dfdfdf" d="M 45.5,163.5 C 42.9236,163.278 42.0902,161.945 43,159.5C 48.3526,153.68 51.3526,154.68 52,162.5C 50.647,163.685 49.4803,165.019 48.5,166.5C 47.1451,165.812 46.1451,164.812 45.5,163.5 Z M 45.5,163.5 C 46.4959,163.414 47.3292,163.748 48,164.5C 51.5048,162.74 52.0048,160.573 49.5,158C 47.0625,157.885 45.0625,158.885 43.5,161C 44.3805,161.708 45.0472,162.542 45.5,163.5 Z"/></g>
<g><path style="opacity:1" fill="#cb616d" d="M 47.5,180.5 C 46.8333,180.5 46.5,180.167 46.5,179.5C 43.1486,176.152 39.4819,173.152 35.5,170.5C 33.7006,167.495 33.0339,164.162 33.5,160.5C 38.0134,161.172 42.0134,163.005 45.5,166C 49.5,170 53.5,174 57.5,178C 54.3214,179.461 50.9881,180.295 47.5,180.5 Z"/></g>
<g><path style="opacity:1" fill="#7e7c83" d="M 62.5,167.5 C 63.5,167.5 64.5,167.5 65.5,167.5C 65.5,168.5 65.5,169.5 65.5,170.5C 64.5,170.5 63.5,170.5 62.5,170.5C 62.5,169.5 62.5,168.5 62.5,167.5 Z"/></g>
<g><path style="opacity:0.416" fill="#e3e3e3" d="M 56.5,163.5 C 59.9868,164.445 61.3201,166.778 60.5,170.5C 58.4176,170.472 56.5843,171.139 55,172.5C 53.3732,171.468 52.2066,170.134 51.5,168.5C 52.8068,169.153 54.1401,169.82 55.5,170.5C 60.1453,168.584 60.4786,166.251 56.5,163.5 Z"/></g>
<g><path style="opacity:1" fill="#c6996d" d="M 131.5,167.5 C 132.167,167.833 132.833,168.167 133.5,168.5C 128.575,171.198 123.241,173.032 117.5,174C 94.8481,178.708 74.5147,174.208 56.5,160.5C 59.0608,159.169 61.5608,159.502 64,161.5C 64.2735,159.671 65.1068,158.171 66.5,157C 71.7348,155.534 75.9015,157.034 79,161.5C 80.5126,165.771 79.0126,168.105 74.5,168.5C 93.6809,176.581 112.681,176.247 131.5,167.5 Z"/></g>
<g><path style="opacity:1" fill="#8d6a5d" d="M 67.5,157.5 C 71.1823,157.591 74.349,158.924 77,161.5C 78.2399,164.906 77.0732,166.573 73.5,166.5C 67.795,165.816 65.795,162.816 67.5,157.5 Z"/></g>
<g><path style="opacity:1" fill="#ffac1c" d="M 155.5,173.5 C 160.457,175.085 160.624,177.085 156,179.5C 155.365,178.034 154.531,176.7 153.5,175.5C 154.243,174.818 154.909,174.151 155.5,173.5 Z"/></g>
<g><path style="opacity:0.237" fill="#ff9c05" d="M 164.5,174.5 C 166.75,174.181 168.75,174.681 170.5,176C 167.656,178.29 165.656,177.79 164.5,174.5 Z"/></g>
<g><path style="opacity:1" fill="#4c4648" d="M 35.5,170.5 C 39.4819,173.152 43.1486,176.152 46.5,179.5C 43.6923,182.14 40.3589,182.973 36.5,182C 32.832,178.483 32.4987,174.65 35.5,170.5 Z"/></g>
<g><path style="opacity:0.082" fill="#ffad21" d="M 139.5,170.5 C 144.749,169.482 147.749,171.482 148.5,176.5C 143.327,177.65 140.327,175.65 139.5,170.5 Z"/></g>
<g><path style="opacity:0.402" fill="#ebebeb" d="M 146.5,164.5 C 136.574,172.205 125.24,176.705 112.5,178C 97.2061,179.887 82.5394,177.72 68.5,171.5C 66.3086,173.353 63.9752,173.687 61.5,172.5C 60.3279,172.919 59.3279,173.585 58.5,174.5C 59.593,176.349 60.9263,178.016 62.5,179.5C 58.3135,181.297 53.9801,182.63 49.5,183.5C 52.5948,181.541 55.9281,179.875 59.5,178.5C 58.5,177.167 57.5,175.833 56.5,174.5C 56.7093,173.914 57.0426,173.414 57.5,173C 61.1935,172.199 64.6935,171.032 68,169.5C 89.5307,179.666 111.364,180.166 133.5,171C 134.942,170.623 135.942,169.79 136.5,168.5C 140.033,167.626 143.366,166.293 146.5,164.5 Z"/></g>
<g><path style="opacity:1" fill="#aaedf5" d="M 33.5,170.5 C 32.645,171.531 31.9783,172.697 31.5,174C 32.3319,176.478 32.4986,178.978 32,181.5C 34.6401,184.401 37.8068,186.068 41.5,186.5C 32.4702,186.642 28.6369,182.308 30,173.5C 30.6152,171.884 31.6152,170.551 33,169.5C 33.3988,169.728 33.5654,170.062 33.5,170.5 Z"/></g>
<g><path style="opacity:1" fill="#89b4c6" d="M 33.5,170.5 C 34.1667,170.5 34.8333,170.5 35.5,170.5C 32.4987,174.65 32.832,178.483 36.5,182C 40.3589,182.973 43.6923,182.14 46.5,179.5C 46.5,180.167 46.8333,180.5 47.5,180.5C 47.205,184.129 45.205,186.129 41.5,186.5C 37.8068,186.068 34.6401,184.401 32,181.5C 32.4986,178.978 32.3319,176.478 31.5,174C 31.9783,172.697 32.645,171.531 33.5,170.5 Z"/></g>
<g><path style="opacity:0.404" fill="#e3e3e3" d="M 49.5,183.5 C 49.631,184.239 49.4643,184.906 49,185.5C 47.1879,186.977 45.3545,188.31 43.5,189.5C 40.5,189.5 37.5,189.5 34.5,189.5C 32.5273,188.194 30.8606,186.527 29.5,184.5C 36.4104,190.04 43.0771,189.707 49.5,183.5 Z"/></g>
</svg>
