<?xml version="1.0" encoding="UTF-8"?>
<!DOCTYPE svg PUBLIC "-//W3C//DTD SVG 1.1//EN" "http://www.w3.org/Graphics/SVG/1.1/DTD/svg11.dtd">
<svg xmlns="http://www.w3.org/2000/svg" version="1.1" width="1200px" height="1183px" style="shape-rendering:geometricPrecision; text-rendering:geometricPrecision; image-rendering:optimizeQuality; fill-rule:evenodd; clip-rule:evenodd" xmlns:xlink="http://www.w3.org/1999/xlink">
<g><path style="opacity:0.98" fill="#ffe35d" d="M 874.5,20.5 C 750.655,38.3588 626.822,56.3588 503,74.5C 501.93,74.472 501.097,74.1386 500.5,73.5C 618.492,50.4016 736.492,27.2349 854.5,4C 867.413,2.08832 874.08,7.58832 874.5,20.5 Z"/></g>
<g><path style="opacity:0.998" fill="#ffe150" d="M 874.5,20.5 C 873.903,24.6189 872.903,28.6189 871.5,32.5C 729.833,53.1667 588.167,73.8333 446.5,94.5C 447.061,89.2129 449.728,85.3795 454.5,83C 469.771,79.5125 485.105,76.3458 500.5,73.5C 501.097,74.1386 501.93,74.472 503,74.5C 626.822,56.3588 750.655,38.3588 874.5,20.5 Z"/></g>
<g><path style="opacity:0.997" fill="#ffdf43" d="M 871.5,32.5 C 870.458,36.6972 869.125,40.6972 867.5,44.5C 726.778,64.4603 586.111,84.7936 445.5,105.5C 445.423,101.785 445.756,98.1185 446.5,94.5C 588.167,73.8333 729.833,53.1667 871.5,32.5 Z"/></g>
<g><path style="opacity:0.998" fill="#ffdb34" d="M 867.5,44.5 C 862.146,65.2483 856.479,85.915 850.5,106.5C 714.555,126.54 578.555,146.206 442.5,165.5C 443.187,145.483 444.187,125.483 445.5,105.5C 586.111,84.7936 726.778,64.4603 867.5,44.5 Z"/></g>
<g><path style="opacity:0.999" fill="#fed72f" d="M 850.5,106.5 C 842.833,132.5 835.167,158.5 827.5,184.5C 826.584,184.018 825.584,183.685 824.5,183.5C 695.893,202.634 567.226,221.301 438.5,239.5C 439.106,227.843 439.439,216.176 439.5,204.5C 440.468,202.393 440.802,200.059 440.5,197.5C 440.589,186.645 441.256,175.979 442.5,165.5C 578.555,146.206 714.555,126.54 850.5,106.5 Z"/></g>
<g><path style="opacity:0.997" fill="#8b73fd" d="M 1142.5,129.5 C 1078.63,177.523 1014.3,225.023 949.5,272C 946.287,274.05 943.621,276.55 941.5,279.5C 936.383,277.503 931.05,277.003 925.5,278C 901.279,283.103 876.946,287.603 852.5,291.5C 851.262,291.19 851.262,290.69 852.5,290C 917.257,242.967 981.59,195.467 1045.5,147.5C 1077.65,141.195 1109.98,135.195 1142.5,129.5 Z"/></g>
<g><path style="opacity:0.999" fill="#8e6ffd" d="M 1142.5,129.5 C 1151.79,129.365 1159.45,132.698 1165.5,139.5C 1092.21,193.153 1018.88,246.82 945.5,300.5C 949.199,292.348 947.865,285.348 941.5,279.5C 943.621,276.55 946.287,274.05 949.5,272C 1014.3,225.023 1078.63,177.523 1142.5,129.5 Z"/></g>
<g><path style="opacity:0.991" fill="#4bc4ff" d="M 139.5,144.5 C 110.518,165.809 81.5183,187.142 52.5,208.5C 51.6143,209.325 51.281,210.325 51.5,211.5C 42.3115,197.128 34.1448,182.128 27,166.5C 24.3517,150.967 29.8517,139.467 43.5,132C 47.5252,130.452 51.6919,129.619 56,129.5C 84.0881,133.82 111.921,138.82 139.5,144.5 Z"/></g>
<g><path style="opacity:0.999" fill="#906cfd" d="M 1165.5,139.5 C 1171.11,145.642 1173.77,152.976 1173.5,161.5C 1090.15,222.525 1006.82,283.525 923.5,344.5C 930.325,329.516 937.659,314.849 945.5,300.5C 1018.88,246.82 1092.21,193.153 1165.5,139.5 Z"/></g>
<g><path style="opacity:0.994" fill="#4fbeff" d="M 139.5,144.5 C 159.849,147.725 180.183,151.058 200.5,154.5C 157.597,184.973 114.931,215.973 72.5,247.5C 65.0103,235.864 58.0103,223.864 51.5,211.5C 51.281,210.325 51.6143,209.325 52.5,208.5C 81.5183,187.142 110.518,165.809 139.5,144.5 Z"/></g>
<g><path style="opacity:0.996" fill="#8679fd" d="M 1045.5,147.5 C 981.59,195.467 917.257,242.967 852.5,290C 851.262,290.69 851.262,291.19 852.5,291.5C 839.418,294.783 826.084,297.45 812.5,299.5C 806.563,298.707 802.229,295.707 799.5,290.5C 798.094,284.599 798.761,278.933 801.5,273.5C 849.955,238.218 898.289,202.718 946.5,167C 948.611,166.155 950.611,165.322 952.5,164.5C 983.262,158.216 1014.26,152.55 1045.5,147.5 Z"/></g>
<g><path style="opacity:0.996" fill="#54b7ff" d="M 200.5,154.5 C 222.089,158.751 243.756,162.751 265.5,166.5C 210.13,208.85 154.13,250.516 97.5,291.5C 88.664,277.166 80.3307,262.5 72.5,247.5C 114.931,215.973 157.597,184.973 200.5,154.5 Z"/></g>
<g><path style="opacity:0.998" fill="#9368fd" d="M 1173.5,161.5 C 1172.77,167.198 1170.93,172.531 1168,177.5C 1158.82,193.861 1149.65,210.194 1140.5,226.5C 1059.36,284.915 978.693,344.082 898.5,404C 896.423,405.705 894.09,406.872 891.5,407.5C 899.167,392.167 906.833,376.833 914.5,361.5C 917.262,355.64 920.262,349.974 923.5,344.5C 1006.82,283.525 1090.15,222.525 1173.5,161.5 Z"/></g>
<g><path style="opacity:0.996" fill="#5ab1ff" d="M 265.5,166.5 C 285.349,169.861 305.015,173.528 324.5,177.5C 261.924,224.467 198.924,270.967 135.5,317C 129.638,321.041 124.305,325.541 119.5,330.5C 111.41,317.994 104.077,304.994 97.5,291.5C 154.13,250.516 210.13,208.85 265.5,166.5 Z"/></g>
<g><path style="opacity:0.989" fill="#827ffd" d="M 952.5,164.5 C 950.611,165.322 948.611,166.155 946.5,167C 898.289,202.718 849.955,238.218 801.5,273.5C 809.396,244.155 818.063,215.155 827.5,186.5C 869.151,179.058 910.818,171.725 952.5,164.5 Z"/></g>
<g><path style="opacity:0.998" fill="#5cadff" d="M 324.5,177.5 C 329.537,177.908 334.537,178.574 339.5,179.5C 339.489,181.017 338.823,182.184 337.5,183C 266.47,235.176 195.47,287.343 124.5,339.5C 122.583,336.669 120.917,333.669 119.5,330.5C 124.305,325.541 129.638,321.041 135.5,317C 198.924,270.967 261.924,224.467 324.5,177.5 Z"/></g>
<g><path style="opacity:0.997" fill="#5faaff" d="M 339.5,179.5 C 354.434,182.489 369.434,185.156 384.5,187.5C 303.167,247.5 221.833,307.5 140.5,367.5C 134.803,358.446 129.469,349.113 124.5,339.5C 195.47,287.343 266.47,235.176 337.5,183C 338.823,182.184 339.489,181.017 339.5,179.5 Z"/></g>
<g><path style="opacity:0.998" fill="#62a6ff" d="M 384.5,187.5 C 394.525,189.372 404.525,191.372 414.5,193.5C 327.924,258.134 240.924,322.3 153.5,386C 152.748,386.671 152.414,387.504 152.5,388.5C 148.262,381.698 144.262,374.698 140.5,367.5C 221.833,307.5 303.167,247.5 384.5,187.5 Z"/></g>
<g><path style="opacity:0.998" fill="#64a3fe" d="M 414.5,193.5 C 423.187,194.704 431.854,196.037 440.5,197.5C 440.802,200.059 440.468,202.393 439.5,204.5C 439.728,202.645 439.061,201.812 437.5,202C 345.885,270.129 253.885,337.629 161.5,404.5C 158.5,399.167 155.5,393.833 152.5,388.5C 152.414,387.504 152.748,386.671 153.5,386C 240.924,322.3 327.924,258.134 414.5,193.5 Z"/></g>
<g><path style="opacity:1" fill="#fed029" d="M 827.5,184.5 C 827.5,185.167 827.5,185.833 827.5,186.5C 818.063,215.155 809.396,244.155 801.5,273.5C 798.761,278.933 798.094,284.599 799.5,290.5C 677.153,308.073 554.819,325.74 432.5,343.5C 432.768,345.099 432.434,346.432 431.5,347.5C 432.185,339.184 432.518,330.851 432.5,322.5C 434.265,301.679 435.599,280.679 436.5,259.5C 437.329,252.991 437.995,246.324 438.5,239.5C 567.226,221.301 695.893,202.634 824.5,183.5C 825.584,183.685 826.584,184.018 827.5,184.5 Z"/></g>
<g><path style="opacity:0.999" fill="#689ffe" d="M 439.5,204.5 C 439.439,216.176 439.106,227.843 438.5,239.5C 437.995,246.324 437.329,252.991 436.5,259.5C 436.631,258.624 436.298,257.957 435.5,257.5C 351.482,319.191 267.482,380.858 183.5,442.5C 175.677,430.196 168.343,417.529 161.5,404.5C 253.885,337.629 345.885,270.129 437.5,202C 439.061,201.812 439.728,202.645 439.5,204.5 Z"/></g>
<g><path style="opacity:0.997" fill="#9664fd" d="M 1140.5,226.5 C 1132.82,239.869 1125.15,253.202 1117.5,266.5C 1116.88,266.389 1116.38,266.056 1116,265.5C 1035.4,325.542 954.571,385.209 873.5,444.5C 879.23,432.04 885.23,419.706 891.5,407.5C 894.09,406.872 896.423,405.705 898.5,404C 978.693,344.082 1059.36,284.915 1140.5,226.5 Z"/></g>
<g><path style="opacity:0.999" fill="#6d99fe" d="M 436.5,259.5 C 435.599,280.679 434.265,301.679 432.5,322.5C 358.096,377.578 283.429,432.244 208.5,486.5C 199.664,472.166 191.331,457.5 183.5,442.5C 267.482,380.858 351.482,319.191 435.5,257.5C 436.298,257.957 436.631,258.624 436.5,259.5 Z"/></g>
<g><path style="opacity:0.997" fill="#9960fd" d="M 1117.5,266.5 C 1101.59,296.66 1084.92,326.327 1067.5,355.5C 988.815,413.191 910.148,470.858 831.5,528.5C 843.167,504.5 854.833,480.5 866.5,456.5C 868.833,452.5 871.167,448.5 873.5,444.5C 954.571,385.209 1035.4,325.542 1116,265.5C 1116.38,266.056 1116.88,266.389 1117.5,266.5 Z"/></g>
<g><path style="opacity:1" fill="#feca23" d="M 941.5,279.5 C 947.865,285.348 949.199,292.348 945.5,300.5C 937.659,314.849 930.325,329.516 923.5,344.5C 920.262,349.974 917.262,355.64 914.5,361.5C 751.723,385.039 589.057,409.039 426.5,433.5C 426.893,422.145 427.56,410.812 428.5,399.5C 428.999,392.51 429.332,385.51 429.5,378.5C 430.323,368.181 430.989,357.848 431.5,347.5C 432.434,346.432 432.768,345.099 432.5,343.5C 554.819,325.74 677.153,308.073 799.5,290.5C 802.229,295.707 806.563,298.707 812.5,299.5C 826.084,297.45 839.418,294.783 852.5,291.5C 876.946,287.603 901.279,283.103 925.5,278C 931.05,277.003 936.383,277.503 941.5,279.5 Z"/></g>
<g><path style="opacity:0.999" fill="#7292fe" d="M 432.5,322.5 C 432.518,330.851 432.185,339.184 431.5,347.5C 430.989,357.848 430.323,368.181 429.5,378.5C 363.167,427.167 296.833,475.833 230.5,524.5C 222.665,512.168 215.332,499.502 208.5,486.5C 283.429,432.244 358.096,377.578 432.5,322.5 Z"/></g>
<g><path style="opacity:1" fill="#fec41d" d="M 914.5,361.5 C 906.833,376.833 899.167,392.167 891.5,407.5C 885.23,419.706 879.23,432.04 873.5,444.5C 871.167,448.5 868.833,452.5 866.5,456.5C 764.922,471.725 663.256,486.392 561.5,500.5C 555.166,499.24 548.832,499.407 542.5,501C 517.798,506.727 493.132,512.561 468.5,518.5C 457.646,520.671 446.813,523.004 436,525.5C 429.652,524.822 425.319,521.489 423,515.5C 422.5,507.507 422.334,499.507 422.5,491.5C 424.233,474.027 425.233,456.361 425.5,438.5C 426.451,437.081 426.784,435.415 426.5,433.5C 589.057,409.039 751.723,385.039 914.5,361.5 Z"/></g>
<g><path style="opacity:0.997" fill="#9e5afd" d="M 1067.5,355.5 C 1051.1,385.967 1034.43,416.3 1017.5,446.5C 941.344,502.411 865.011,558.078 788.5,613.5C 798.77,593.294 808.77,572.961 818.5,552.5C 822.833,544.5 827.167,536.5 831.5,528.5C 910.148,470.858 988.815,413.191 1067.5,355.5 Z"/></g>
<g><path style="opacity:0.999" fill="#758efe" d="M 429.5,378.5 C 429.332,385.51 428.999,392.51 428.5,399.5C 364.802,445.681 301.469,492.348 238.5,539.5C 235.582,534.667 232.916,529.667 230.5,524.5C 296.833,475.833 363.167,427.167 429.5,378.5 Z"/></g>
<g><path style="opacity:0.999" fill="#778bfe" d="M 428.5,399.5 C 427.56,410.812 426.893,422.145 426.5,433.5C 426.784,435.415 426.451,437.081 425.5,438.5C 425.719,437.325 425.386,436.325 424.5,435.5C 370.359,475.14 316.359,514.974 262.5,555C 258.929,557.421 255.262,559.587 251.5,561.5C 246.678,554.532 242.344,547.199 238.5,539.5C 301.469,492.348 364.802,445.681 428.5,399.5 Z"/></g>
<g><path style="opacity:0.999" fill="#7b86fe" d="M 425.5,438.5 C 425.233,456.361 424.233,474.027 422.5,491.5C 372.796,527.119 323.13,563.452 273.5,600.5C 265.41,587.994 258.077,574.994 251.5,561.5C 255.262,559.587 258.929,557.421 262.5,555C 316.359,514.974 370.359,475.14 424.5,435.5C 425.386,436.325 425.719,437.325 425.5,438.5 Z"/></g>
<g><path style="opacity:1" fill="#febe17" d="M 866.5,456.5 C 854.833,480.5 843.167,504.5 831.5,528.5C 827.167,536.5 822.833,544.5 818.5,552.5C 730.433,564.7 642.433,577.367 554.5,590.5C 554.5,589.167 554.5,587.833 554.5,586.5C 555.707,578.465 557.041,570.465 558.5,562.5C 561.708,548.304 564.875,533.971 568,519.5C 568.667,515.833 568.667,512.167 568,508.5C 567.303,506.416 566.136,504.749 564.5,503.5C 563.694,502.272 562.694,501.272 561.5,500.5C 663.256,486.392 764.922,471.725 866.5,456.5 Z"/></g>
<g><path style="opacity:0.998" fill="#a354fd" d="M 1017.5,446.5 C 1000.15,477.202 982.818,507.869 965.5,538.5C 893.115,590.705 821.115,643.538 749.5,697C 748.552,697.483 747.552,697.649 746.5,697.5C 751.897,685.706 757.563,674.04 763.5,662.5C 771.578,646.011 779.911,629.677 788.5,613.5C 865.011,558.078 941.344,502.411 1017.5,446.5 Z"/></g>
<g><path style="opacity:0.997" fill="#8180fd" d="M 422.5,491.5 C 422.334,499.507 422.5,507.507 423,515.5C 425.319,521.489 429.652,524.822 436,525.5C 446.813,523.004 457.646,520.671 468.5,518.5C 413.016,559.803 357.35,600.97 301.5,642C 300.177,642.816 299.511,643.983 299.5,645.5C 290.079,630.998 281.412,615.998 273.5,600.5C 323.13,563.452 372.796,527.119 422.5,491.5 Z"/></g>
<g><path style="opacity:0.999" fill="#8679fd" d="M 561.5,500.5 C 562.694,501.272 563.694,502.272 564.5,503.5C 561.91,504.128 559.577,505.295 557.5,507C 478.317,565.363 399.317,623.863 320.5,682.5C 312.744,670.662 305.744,658.328 299.5,645.5C 299.511,643.983 300.177,642.816 301.5,642C 357.35,600.97 413.016,559.803 468.5,518.5C 493.132,512.561 517.798,506.727 542.5,501C 548.832,499.407 555.166,499.24 561.5,500.5 Z"/></g>
<g><path style="opacity:0.999" fill="#8a73fd" d="M 564.5,503.5 C 566.136,504.749 567.303,506.416 568,508.5C 568.667,512.167 568.667,515.833 568,519.5C 564.875,533.971 561.708,548.304 558.5,562.5C 558.631,561.761 558.464,561.094 558,560.5C 486.07,613.876 413.904,666.876 341.5,719.5C 333.744,707.662 326.744,695.328 320.5,682.5C 399.317,623.863 478.317,565.363 557.5,507C 559.577,505.295 561.91,504.128 564.5,503.5 Z"/></g>
<g><path style="opacity:0.997" fill="#a74ffd" d="M 965.5,538.5 C 955.893,556.76 945.893,574.76 935.5,592.5C 864.359,643.582 793.693,695.415 723.5,748C 722.552,748.483 721.552,748.649 720.5,748.5C 728.928,731.31 737.595,714.31 746.5,697.5C 747.552,697.649 748.552,697.483 749.5,697C 821.115,643.538 893.115,590.705 965.5,538.5 Z"/></g>
<g><path style="opacity:0.999" fill="#8e6ffd" d="M 558.5,562.5 C 557.041,570.465 555.707,578.465 554.5,586.5C 553.833,588.167 553.167,589.833 552.5,591.5C 485.515,639.4 418.849,688.4 352.5,738.5C 348.079,732.666 344.412,726.332 341.5,719.5C 413.904,666.876 486.07,613.876 558,560.5C 558.464,561.094 558.631,561.761 558.5,562.5 Z"/></g>
<g><path style="opacity:1" fill="#feb711" d="M 818.5,552.5 C 808.77,572.961 798.77,593.294 788.5,613.5C 779.911,629.677 771.578,646.011 763.5,662.5C 722.241,668.932 680.908,674.932 639.5,680.5C 638.089,678.086 636.089,676.419 633.5,675.5C 630.144,673.621 626.477,673.121 622.5,674C 599.226,681.202 575.893,688.202 552.5,695C 547.51,696.166 543.177,695 539.5,691.5C 535.417,685.038 534.417,678.038 536.5,670.5C 540.083,654.918 543.417,639.251 546.5,623.5C 548.884,612.915 550.884,602.248 552.5,591.5C 553.167,589.833 553.833,588.167 554.5,586.5C 554.5,587.833 554.5,589.167 554.5,590.5C 642.433,577.367 730.433,564.7 818.5,552.5 Z"/></g>
<g><path style="opacity:0.998" fill="#906cfd" d="M 552.5,591.5 C 550.884,602.248 548.884,612.915 546.5,623.5C 485.167,668.167 423.833,712.833 362.5,757.5C 358.899,751.298 355.566,744.964 352.5,738.5C 418.849,688.4 485.515,639.4 552.5,591.5 Z"/></g>
<g><path style="opacity:0.997" fill="#aa4cfd" d="M 935.5,592.5 C 925.738,610.364 915.738,628.031 905.5,645.5C 905.565,645.062 905.399,644.728 905,644.5C 835.552,696.462 765.718,747.795 695.5,798.5C 702.167,785.167 708.833,771.833 715.5,758.5C 717.167,755.167 718.833,751.833 720.5,748.5C 721.552,748.649 722.552,748.483 723.5,748C 793.693,695.415 864.359,643.582 935.5,592.5 Z"/></g>
<g><path style="opacity:0.999" fill="#9368fd" d="M 546.5,623.5 C 543.417,639.251 540.083,654.918 536.5,670.5C 483.951,708.935 431.617,747.601 379.5,786.5C 373.596,777.033 367.929,767.367 362.5,757.5C 423.833,712.833 485.167,668.167 546.5,623.5 Z"/></g>
<g><path style="opacity:0.997" fill="#ad47fd" d="M 905.5,645.5 C 888.924,676.992 871.59,707.992 853.5,738.5C 853.631,737.761 853.464,737.094 853,736.5C 786.622,785.718 720.122,834.718 653.5,883.5C 658.167,873.5 662.833,863.5 667.5,853.5C 677.072,835.357 686.405,817.024 695.5,798.5C 765.718,747.795 835.552,696.462 905,644.5C 905.399,644.728 905.565,645.062 905.5,645.5 Z"/></g>
<g><path style="opacity:1" fill="#feb10b" d="M 763.5,662.5 C 757.563,674.04 751.897,685.706 746.5,697.5C 737.595,714.31 728.928,731.31 720.5,748.5C 718.833,751.833 717.167,755.167 715.5,758.5C 686.621,762.078 657.788,766.078 629,770.5C 627.319,770.392 626.152,769.725 625.5,768.5C 627.704,756.146 630.038,743.812 632.5,731.5C 635.374,718.304 638.207,704.97 641,691.5C 641.888,687.598 641.388,683.931 639.5,680.5C 680.908,674.932 722.241,668.932 763.5,662.5 Z"/></g>
<g><path style="opacity:0.998" fill="#9664fd" d="M 536.5,670.5 C 534.417,678.038 535.417,685.038 539.5,691.5C 535.402,693.749 531.402,696.249 527.5,699C 480.983,733.363 434.65,767.863 388.5,802.5C 384.997,797.498 381.997,792.165 379.5,786.5C 431.617,747.601 483.951,708.935 536.5,670.5 Z"/></g>
<g><path style="opacity:0.999" fill="#9a60fd" d="M 633.5,675.5 C 558.833,730.167 484.167,784.833 409.5,839.5C 402.247,827.329 395.247,814.996 388.5,802.5C 434.65,767.863 480.983,733.363 527.5,699C 531.402,696.249 535.402,693.749 539.5,691.5C 543.177,695 547.51,696.166 552.5,695C 575.893,688.202 599.226,681.202 622.5,674C 626.477,673.121 630.144,673.621 633.5,675.5 Z"/></g>
<g><path style="opacity:0.999" fill="#9e5afd" d="M 633.5,675.5 C 636.089,676.419 638.089,678.086 639.5,680.5C 641.388,683.931 641.888,687.598 641,691.5C 638.207,704.97 635.374,718.304 632.5,731.5C 632.631,730.761 632.464,730.094 632,729.5C 565.265,779.082 498.432,828.416 431.5,877.5C 423.803,865.114 416.47,852.447 409.5,839.5C 484.167,784.833 558.833,730.167 633.5,675.5 Z"/></g>
<g><path style="opacity:0.997" fill="#b241fd" d="M 853.5,738.5 C 837.433,768.3 821.099,797.967 804.5,827.5C 801.91,828.128 799.577,829.295 797.5,831C 705.551,899.462 613.218,967.295 520.5,1034.5C 513.472,1021.82 506.472,1009.15 499.5,996.5C 530.148,974.191 560.815,951.858 591.5,929.5C 590.63,935.182 589.63,940.849 588.5,946.5C 591.269,961.05 599.269,965.216 612.5,959C 615.699,955.434 618.533,951.6 621,947.5C 631.608,925.95 642.441,904.617 653.5,883.5C 720.122,834.718 786.622,785.718 853,736.5C 853.464,737.094 853.631,737.761 853.5,738.5 Z"/></g>
<g><path style="opacity:0.999" fill="#a354fd" d="M 632.5,731.5 C 630.038,743.812 627.704,756.146 625.5,768.5C 623.372,777.14 621.372,785.807 619.5,794.5C 619.631,793.761 619.464,793.094 619,792.5C 567.5,830.667 516,868.833 464.5,907C 460.598,909.751 456.598,912.251 452.5,914.5C 445.25,902.337 438.25,890.004 431.5,877.5C 498.432,828.416 565.265,779.082 632,729.5C 632.464,730.094 632.631,730.761 632.5,731.5 Z"/></g>
<g><path style="opacity:1" fill="#feab06" d="M 715.5,758.5 C 708.833,771.833 702.167,785.167 695.5,798.5C 686.405,817.024 677.072,835.357 667.5,853.5C 648.299,855.838 629.132,858.505 610,861.5C 608.615,861.486 607.449,861.152 606.5,860.5C 610.576,838.451 614.91,816.451 619.5,794.5C 621.372,785.807 623.372,777.14 625.5,768.5C 626.152,769.725 627.319,770.392 629,770.5C 657.788,766.078 686.621,762.078 715.5,758.5 Z"/></g>
<g><path style="opacity:0.999" fill="#a84dfd" d="M 619.5,794.5 C 614.91,816.451 610.576,838.451 606.5,860.5C 605.715,862.374 605.048,864.374 604.5,866.5C 562.106,897.024 520.106,928.024 478.5,959.5C 469.079,944.998 460.412,929.998 452.5,914.5C 456.598,912.251 460.598,909.751 464.5,907C 516,868.833 567.5,830.667 619,792.5C 619.464,793.094 619.631,793.761 619.5,794.5 Z"/></g>
<g><path style="opacity:0.996" fill="#b73bfe" d="M 804.5,827.5 C 787.151,858.202 769.818,888.869 752.5,919.5C 752.565,919.062 752.399,918.728 752,918.5C 682.226,969.965 612.393,1021.3 542.5,1072.5C 535.182,1059.87 527.848,1047.2 520.5,1034.5C 613.218,967.295 705.551,899.462 797.5,831C 799.577,829.295 801.91,828.128 804.5,827.5 Z"/></g>
<g><path style="opacity:1" fill="#fea707" d="M 667.5,853.5 C 662.833,863.5 658.167,873.5 653.5,883.5C 642.441,904.617 631.608,925.95 621,947.5C 618.533,951.6 615.699,955.434 612.5,959C 599.269,965.216 591.269,961.05 588.5,946.5C 589.63,940.849 590.63,935.182 591.5,929.5C 596.212,908.607 600.546,887.607 604.5,866.5C 605.048,864.374 605.715,862.374 606.5,860.5C 607.449,861.152 608.615,861.486 610,861.5C 629.132,858.505 648.299,855.838 667.5,853.5 Z"/></g>
<g><path style="opacity:0.998" fill="#ad47fd" d="M 604.5,866.5 C 600.546,887.607 596.212,908.607 591.5,929.5C 560.815,951.858 530.148,974.191 499.5,996.5C 491.744,984.662 484.744,972.328 478.5,959.5C 520.106,928.024 562.106,897.024 604.5,866.5 Z"/></g>
<g><path style="opacity:0.99" fill="#bc34fe" d="M 752.5,919.5 C 711.864,993.435 670.698,1067.1 629,1140.5C 616.28,1153.7 602.113,1155.54 586.5,1146C 583.628,1143.46 581.128,1140.63 579,1137.5C 566.821,1115.81 554.655,1094.14 542.5,1072.5C 612.393,1021.3 682.226,969.965 752,918.5C 752.399,918.728 752.565,919.062 752.5,919.5 Z"/></g>
</svg>
